<svg preserveAspectRatio="none" width="100%" height="100%" overflow="visible" style="display: block;" viewBox="0 0 2674.45 2717.48" fill="none" xmlns="http://www.w3.org/2000/svg">
<g id="Group 121" opacity="0.8">
<path id="Vector" d="M1337.22 1358.45C1453.69 1146.67 1433.77 912.108 1292.72 834.532C1151.67 756.957 942.901 865.748 826.428 1077.53C709.954 1289.3 729.878 1523.87 870.929 1601.45C1011.98 1679.02 1220.75 1570.23 1337.22 1358.45Z" stroke="var(--stroke-0, white)" stroke-opacity="0.8" stroke-width="2.88" stroke-miterlimit="10"/>
<path id="Vector_2" d="M1337.24 1358.74C1611.37 860.321 1766.68 419.475 1684.15 374.084C1601.61 328.692 1312.49 695.944 1038.37 1194.36C764.246 1692.78 608.932 2133.63 691.465 2179.02C773.998 2224.41 1063.12 1857.16 1337.24 1358.74Z" stroke="var(--stroke-0, white)" stroke-opacity="0.3" stroke-width="2.88" stroke-miterlimit="10"/>
<path id="Vector_3" d="M1636.13 1523.12C1910.25 1024.7 2065.56 583.855 1983.03 538.464C1900.5 493.073 1611.37 860.324 1337.25 1358.74C1063.13 1857.16 907.816 2298.01 990.349 2343.4C1072.88 2388.79 1362.01 2021.54 1636.13 1523.12Z" stroke="var(--stroke-0, white)" stroke-opacity="0.3" stroke-width="2.88" stroke-miterlimit="10"/>
<path id="Vector_4" d="M1337.17 1358.53C1486.12 1087.7 1460.64 787.727 1280.26 688.52C1099.88 589.314 832.903 728.442 683.952 999.272C535 1270.1 560.479 1570.08 740.861 1669.28C921.242 1768.49 1188.22 1629.36 1337.17 1358.53Z" stroke="var(--stroke-0, white)" stroke-opacity="0.6" stroke-width="2.88" stroke-miterlimit="10"/>
<path id="Vector_5" d="M1337.18 1358.5C1518.87 1028.14 1487.8 662.236 1267.78 541.23C1047.77 420.225 722.117 589.94 540.426 920.299C358.734 1250.66 389.803 1616.56 609.82 1737.57C829.837 1858.57 1155.49 1688.86 1337.18 1358.5Z" stroke="var(--stroke-0, white)" stroke-opacity="0.4" stroke-width="2.88" stroke-miterlimit="10"/>
<path id="Vector_6" d="M1337.19 1358.51C1551.55 968.754 1514.89 537.063 1255.32 394.301C995.739 251.539 611.539 451.766 397.181 841.522C182.822 1231.28 219.479 1662.97 479.055 1805.73C738.631 1948.49 1122.83 1748.27 1337.19 1358.51Z" stroke="var(--stroke-0, white)" stroke-opacity="0.2" stroke-width="2.88" stroke-miterlimit="10"/>
<path id="Vector_7" d="M1847.95 1639.42C1964.43 1427.65 1944.5 1193.08 1803.45 1115.5C1662.4 1037.93 1453.64 1146.72 1337.16 1358.5C1220.69 1570.27 1240.61 1804.84 1381.66 1882.42C1522.72 1959.99 1731.48 1851.2 1847.95 1639.42Z" stroke="var(--stroke-0, white)" stroke-opacity="0.8" stroke-width="2.88" stroke-miterlimit="10"/>
<path id="Vector_8" d="M1990.43 1718.01C2139.38 1447.18 2113.9 1147.2 1933.52 1048C1753.14 948.79 1486.16 1087.92 1337.21 1358.75C1188.26 1629.58 1213.74 1929.55 1394.12 2028.76C1574.5 2127.97 1841.48 1988.84 1990.43 1718.01Z" stroke="var(--stroke-0, white)" stroke-opacity="0.6" stroke-width="2.88" stroke-miterlimit="10"/>
<path id="Vector_9" d="M2133.98 1796.99C2315.67 1466.63 2284.6 1100.72 2064.59 979.717C1844.57 858.712 1518.92 1028.43 1337.23 1358.79C1155.54 1689.15 1186.61 2055.05 1406.62 2176.05C1626.64 2297.06 1952.29 2127.35 2133.98 1796.99Z" stroke="var(--stroke-0, white)" stroke-opacity="0.6" stroke-width="2.88" stroke-miterlimit="10"/>
<path id="Vector_10" d="M2277.24 1875.74C2491.6 1485.99 2454.95 1054.29 2195.37 911.533C1935.79 768.77 1551.59 968.998 1337.24 1358.75C1122.88 1748.51 1159.53 2180.2 1419.11 2322.96C1678.69 2465.72 2062.89 2265.5 2277.24 1875.74Z" stroke="var(--stroke-0, white)" stroke-opacity="0.3" stroke-width="2.88" stroke-miterlimit="10"/>
<path id="Vector_11" d="M2183.01 1823.92C2454.43 1330.42 2485.12 826.229 2251.56 697.776C2018 569.322 1608.64 865.249 1337.22 1358.75C1065.8 1852.25 1035.12 2356.44 1268.68 2484.89C1502.24 2613.34 1911.6 2317.42 2183.01 1823.92Z" stroke="var(--stroke-0, white)" stroke-opacity="0.6" stroke-width="2.88" stroke-miterlimit="10"/>
<path id="Vector_12" d="M1337.23 1358.73C1608.65 865.231 1639.34 361.039 1405.78 232.586C1172.22 104.132 762.856 400.059 491.441 893.557C220.026 1387.06 189.337 1891.25 422.897 2019.7C656.457 2148.15 1065.82 1852.23 1337.23 1358.73Z" stroke="var(--stroke-0, white)" stroke-opacity="0.6" stroke-width="2.88" stroke-miterlimit="10"/>
<path id="Vector_13" d="M752.815 1448.89C760.688 1441.02 773.452 1441.02 781.325 1448.89C789.198 1456.76 789.198 1469.53 781.325 1477.4C773.452 1485.27 760.688 1485.27 752.815 1477.4C744.942 1469.53 744.942 1456.76 752.815 1448.89Z" fill="var(--fill-0, black)" stroke="var(--stroke-0, #A3A3A3)" stroke-width="2.88"/>
<path id="Vector_14" d="M1504.56 1891.59C1512.44 1883.72 1525.2 1883.72 1533.07 1891.59C1540.95 1899.46 1540.95 1912.23 1533.07 1920.1C1525.2 1927.97 1512.44 1927.97 1504.56 1920.1C1496.69 1912.23 1496.69 1899.46 1504.56 1891.59Z" fill="var(--fill-0, black)" stroke="var(--stroke-0, #A3A3A3)" stroke-width="2.88"/>
<path id="Vector_15" d="M2075.99 1331.79C2082.18 1325.6 2092.21 1325.6 2098.39 1331.79C2104.58 1337.97 2104.58 1348 2098.39 1354.19C2092.21 1360.37 2082.18 1360.37 2075.99 1354.19C2069.81 1348 2069.81 1337.97 2075.99 1331.79Z" fill="var(--fill-0, black)" stroke="var(--stroke-0, #7A7A7A)" stroke-width="2.88"/>
<path id="Vector_16" d="M913.075 724.367C919.261 718.181 929.29 718.181 935.476 724.367C941.662 730.553 941.662 740.582 935.476 746.768C929.29 752.954 919.261 752.954 913.075 746.768C906.889 740.582 906.889 730.553 913.075 724.367Z" fill="var(--fill-0, black)" stroke="var(--stroke-0, #7A7A7A)" stroke-width="2.88"/>
<path id="Vector_17" d="M2195.63 1124.83C2200.12 1120.33 2207.42 1120.33 2211.92 1124.83C2216.42 1129.33 2216.42 1136.62 2211.92 1141.12C2207.42 1145.62 2200.12 1145.62 2195.63 1141.12C2191.13 1136.62 2191.13 1129.33 2195.63 1124.83Z" fill="var(--fill-0, black)" stroke="var(--stroke-0, #7A7A7A)" stroke-width="2.88"/>
<path id="Vector_18" d="M1161.46 499.259C1165.96 494.76 1173.25 494.76 1177.75 499.258C1182.25 503.757 1182.25 511.052 1177.75 515.551C1173.25 520.05 1165.96 520.049 1161.46 515.55C1156.96 511.051 1156.96 503.758 1161.46 499.259Z" fill="var(--fill-0, black)" stroke="var(--stroke-0, #525252)" stroke-width="2.88"/>
</g>
</svg>
