<svg width="2248" height="894" viewBox="0 0 2248 894" fill="none" xmlns="http://www.w3.org/2000/svg">
<rect width="2248" height="894" fill="black"/>
<path d="M1054.16 180.392V733.32H104.141V180.392H1054.16Z" stroke="#656565" stroke-width="1.15434"/>
<path d="M1054.16 733.319V586.718H104.141V733.319H1054.16Z" stroke="#656565" stroke-width="1.15434"/>
<path d="M2143.88 733.319V586.718H1193.85V733.319H2143.88Z" stroke="#656565" stroke-width="1.15434"/>
<path d="M2143.86 180.392V733.32H1193.84V180.392H2143.86Z" stroke="#656565" stroke-width="1.15434"/>
<path d="M1531.66 235.75C1607.06 235.75 1668.26 302.146 1668.26 384.153C1668.26 466.161 1607.06 532.557 1531.66 532.557C1456.26 532.556 1395.06 466.161 1395.06 384.153C1395.06 302.146 1456.26 235.75 1531.66 235.75Z" stroke="#656565" stroke-width="1.17594"/>
<path d="M1579.99 542.777C1629.07 542.777 1668.85 471.759 1668.85 384.154C1668.85 296.55 1629.07 225.532 1579.99 225.532C1530.91 225.532 1491.13 296.55 1491.13 384.154C1491.13 471.759 1530.91 542.777 1579.99 542.777Z" stroke="#656565" stroke-width="1.3066" stroke-dasharray="5.23 5.23"/>
<path d="M1616.41 542.777C1645.38 542.777 1668.86 471.759 1668.86 384.154C1668.86 296.55 1645.38 225.532 1616.41 225.532C1587.44 225.532 1563.96 296.55 1563.96 384.154C1563.96 471.759 1587.44 542.777 1616.41 542.777Z" fill="#80EBFF" fill-opacity="0.1" stroke="#656565" stroke-width="1.3066" stroke-dasharray="5.23 5.23"/>
<path d="M1550.48 542.777C1615.86 542.777 1668.85 471.759 1668.85 384.154C1668.85 296.55 1615.86 225.532 1550.48 225.532C1485.1 225.532 1432.1 296.55 1432.1 384.154C1432.1 471.759 1485.1 542.777 1550.48 542.777Z" stroke="#656565" stroke-width="1.17594"/>
<path d="M1514.46 279.684C1518.76 279.684 1522.25 276.332 1522.25 272.199C1522.25 268.065 1518.76 264.714 1514.46 264.714C1510.16 264.714 1506.67 268.065 1506.67 272.199C1506.67 276.332 1510.16 279.684 1514.46 279.684Z" fill="#80EBFF"/>
<path d="M1806.06 235.749C1730.66 235.749 1669.46 302.145 1669.46 384.152C1669.46 466.16 1730.66 532.556 1806.06 532.556C1881.46 532.556 1942.66 466.16 1942.66 384.152C1942.66 302.145 1881.46 235.749 1806.06 235.749Z" stroke="#656565" stroke-width="1.17594"/>
<path d="M1757.73 542.777C1708.65 542.777 1668.87 471.759 1668.87 384.154C1668.87 296.55 1708.65 225.532 1757.73 225.532C1806.81 225.532 1846.59 296.55 1846.59 384.154C1846.59 471.759 1806.81 542.777 1757.73 542.777Z" stroke="#656565" stroke-width="1.3066" stroke-dasharray="5.23 5.23"/>
<path d="M1707.42 542.777C1686.12 542.777 1668.86 471.759 1668.86 384.154C1668.86 296.55 1686.12 225.532 1707.42 225.532C1728.72 225.532 1745.98 296.55 1745.98 384.154C1745.98 471.759 1728.72 542.777 1707.42 542.777Z" fill="#80EBFF" fill-opacity="0.1" stroke="#656565" stroke-width="1.3066" stroke-dasharray="5.23 5.23"/>
<path d="M1787.24 542.777C1721.86 542.777 1668.87 471.759 1668.87 384.154C1668.87 296.55 1721.86 225.532 1787.24 225.532C1852.62 225.532 1905.62 296.55 1905.62 384.154C1905.62 471.759 1852.62 542.777 1787.24 542.777Z" stroke="#656565" stroke-width="1.17594"/>
<path d="M1846.59 379.692C1842.29 379.692 1838.81 376.341 1838.81 372.208C1838.81 368.074 1842.29 364.723 1846.59 364.723C1850.9 364.723 1854.38 368.074 1854.38 372.208C1854.38 376.341 1850.9 379.692 1846.59 379.692Z" fill="#80EBFF"/>
<path d="M1741.76 313.209C1737.46 313.209 1733.97 309.858 1733.97 305.724C1733.97 301.59 1737.46 298.239 1741.76 298.239C1746.06 298.239 1749.54 301.59 1749.54 305.724C1749.54 309.858 1746.06 313.209 1741.76 313.209Z" fill="#80EBFF"/>
<path d="M1563.96 434.667C1559.66 434.667 1556.17 431.316 1556.17 427.182C1556.17 423.048 1559.66 419.697 1563.96 419.697C1568.26 419.697 1571.74 423.048 1571.74 427.182C1571.74 431.316 1568.26 434.667 1563.96 434.667Z" fill="#80EBFF"/>
<path opacity="0.4" d="M820.798 541.151C874.773 541.151 918.528 470.86 918.528 384.153C918.528 297.446 874.773 227.155 820.798 227.155C766.824 227.155 723.069 297.446 723.069 384.153C723.069 470.86 766.824 541.151 820.798 541.151Z" stroke="#F8B62D" stroke-width="0.606028" stroke-miterlimit="10"/>
<path d="M820.798 227.762C847.5 227.762 871.767 245.15 889.389 273.459C907.006 301.759 917.922 340.895 917.922 384.153C917.922 427.412 907.006 466.546 889.389 494.847C871.767 523.156 847.5 540.545 820.798 540.545C794.096 540.545 769.83 523.156 752.207 494.847C734.591 466.546 723.675 427.412 723.675 384.153C723.675 340.895 734.59 301.759 752.207 273.459C769.83 245.15 794.096 227.762 820.798 227.762Z" stroke="#656565" stroke-width="1.21206"/>
<path d="M820.798 499.917C813.162 499.917 798.094 496.293 782.982 472.009C768.938 449.447 760.884 417.424 760.884 384.153C760.884 350.882 768.938 318.854 782.982 296.291C798.1 272.008 813.167 268.384 820.798 268.384C828.429 268.384 843.502 272.008 858.619 296.291C872.664 318.854 880.717 350.876 880.717 384.153C880.717 417.43 872.664 449.453 858.619 472.009C843.502 496.293 828.435 499.917 820.798 499.917Z" stroke="#656565" stroke-width="1.21206" stroke-dasharray="4.85 4.85"/>
<path d="M860.509 386.348C860.944 386.348 862.09 386.536 863.329 388.522C864.494 390.392 865.182 393.098 865.182 395.94C865.182 398.782 864.49 401.489 863.329 403.359C862.09 405.346 860.949 405.534 860.509 405.534C860.073 405.534 858.927 405.346 857.694 403.36V403.359L857.481 402.999C856.445 401.151 855.841 398.606 855.841 395.94C855.841 393.099 856.532 390.392 857.693 388.521L857.694 388.522C858.934 386.535 860.074 386.348 860.509 386.348Z" stroke="#656565" stroke-width="1.21206"/>
<path d="M256.664 362.639L804.636 229.295" stroke="#656565" stroke-width="1.21206"/>
<path d="M256.664 405.666L804.636 539.01" stroke="#656565" stroke-width="1.21206"/>
<path d="M832.23 278.281C832.666 278.281 833.812 278.469 835.051 280.456C836.216 282.325 836.904 285.031 836.904 287.874C836.904 290.716 836.212 293.422 835.051 295.293C833.812 297.28 832.671 297.468 832.23 297.468C831.795 297.468 830.649 297.28 829.416 295.294V295.293L829.203 294.933C828.167 293.084 827.562 290.539 827.562 287.874C827.563 285.032 828.254 282.326 829.415 280.455L829.416 280.456C830.655 278.468 831.796 278.281 832.23 278.281Z" stroke="#656565" stroke-width="1.21206"/>
<path d="M823.538 426.613L256.664 384.154L822.593 490.543" fill="#80EBFF" fill-opacity="0.1"/>
<path d="M823.538 426.613L256.664 384.154L822.593 490.543" stroke="#656565" stroke-width="1.21206" stroke-dasharray="4.85 4.85"/>
<path d="M823.537 490.633C821.759 490.633 818.246 489.633 814.717 482.918C811.443 476.682 809.565 467.822 809.565 458.623C809.565 449.423 811.443 440.569 814.717 434.327C818.241 427.612 821.753 426.612 823.537 426.612C825.321 426.612 828.828 427.612 832.358 434.327C835.631 440.563 837.51 449.423 837.51 458.623C837.51 467.822 835.631 476.676 832.358 482.918C828.834 489.633 825.321 490.633 823.537 490.633Z" fill="#152022" stroke="#656565" stroke-width="1.21206" stroke-dasharray="4.85 4.85"/>
<path d="M256.664 384.154L855.235 395.942" stroke="#656565" stroke-width="1.21206"/>
<path d="M826.951 287.874L256.664 384.154" stroke="#656565" stroke-width="1.21206"/>
<path d="M803.396 327.562L256.664 384.153L803.396 364.7" fill="#80EBFF" fill-opacity="0.1"/>
<path d="M803.396 327.562L256.664 384.153L803.396 364.7" stroke="#656565" stroke-width="1.21206"/>
<path d="M803.396 364.33C802.056 364.33 799.403 363.76 796.751 359.941C794.284 356.396 792.867 351.359 792.867 346.133C792.867 340.907 794.284 335.87 796.751 332.325C799.409 328.506 802.056 327.936 803.396 327.936C804.736 327.936 807.388 328.506 810.046 332.325C812.514 335.87 813.93 340.907 813.93 346.133C813.93 351.359 812.514 356.396 810.046 359.941C807.388 363.76 804.741 364.33 803.396 364.33Z" fill="#152022" stroke="#656565" stroke-width="1.18782"/>
<path d="M256.663 362.826C265.508 362.826 272.934 372.214 272.934 384.152C272.934 396.091 265.508 405.479 256.663 405.479C247.819 405.478 240.394 396.091 240.394 384.152C240.394 372.214 247.819 362.826 256.663 362.826Z" fill="black" stroke="#656565" stroke-width="1.2363"/>
<path d="M446.948 358.805C450.938 358.805 454.172 355.696 454.172 351.861C454.172 348.027 450.938 344.918 446.948 344.918C442.959 344.918 439.724 348.027 439.724 351.861C439.724 355.696 442.959 358.805 446.948 358.805Z" fill="#80EBFF"/>
<path d="M580.136 489.42C584.125 489.42 587.36 486.311 587.36 482.476C587.36 478.642 584.125 475.533 580.136 475.533C576.146 475.533 572.911 478.642 572.911 482.476C572.911 486.311 576.146 489.42 580.136 489.42Z" fill="#80EBFF"/>
<path d="M724.053 399.454C728.042 399.454 731.277 396.345 731.277 392.511C731.277 388.676 728.042 385.567 724.053 385.567C720.063 385.567 716.828 388.676 716.828 392.511C716.828 396.345 720.063 399.454 724.053 399.454Z" fill="#80EBFF"/>
<path d="M870.509 326.322C874.499 326.322 877.734 323.213 877.734 319.379C877.734 315.544 874.499 312.436 870.509 312.436C866.52 312.436 863.285 315.544 863.285 319.379C863.285 323.213 866.52 326.322 870.509 326.322Z" fill="#80EBFF"/>
<path d="M103.563 159.038H158.972V179.816H103.563V159.038Z" fill="#656565" fill-opacity="0.8"/>
<path d="M126.073 175.473C125.161 175.473 124.353 175.219 123.649 174.712C122.956 174.204 122.414 173.482 122.021 172.547C121.641 171.612 121.45 170.498 121.45 169.205C121.45 167.912 121.641 166.799 122.021 165.864C122.414 164.929 122.956 164.207 123.649 163.699C124.353 163.191 125.161 162.937 126.073 162.937C126.997 162.937 127.805 163.191 128.497 163.699C129.19 164.207 129.727 164.929 130.108 165.864C130.5 166.799 130.696 167.912 130.696 169.205C130.696 170.498 130.5 171.612 130.108 172.547C129.727 173.482 129.19 174.204 128.497 174.712C127.805 175.219 126.997 175.473 126.073 175.473ZM122.939 169.205C122.939 169.99 123.02 170.7 123.182 171.335C123.355 171.958 123.591 172.484 123.891 172.911L127.251 164.582C126.893 164.386 126.5 164.288 126.073 164.288C125.461 164.288 124.919 164.49 124.446 164.894C123.972 165.286 123.603 165.852 123.337 166.591C123.072 167.318 122.939 168.19 122.939 169.205ZM126.073 174.14C126.685 174.14 127.228 173.944 127.701 173.551C128.174 173.147 128.543 172.576 128.809 171.837C129.074 171.098 129.207 170.221 129.207 169.205C129.207 168.42 129.121 167.716 128.947 167.093C128.786 166.458 128.555 165.927 128.255 165.5L124.878 173.846C125.248 174.042 125.646 174.14 126.073 174.14ZM132.473 175.266V173.95H135.607V164.859L132.646 165.431V164.322L136.092 163.145H137.062V173.95H140.369V175.266H132.473Z" fill="#121212"/>
<path d="M1193.26 159.037H1248.67V179.815H1193.26V159.037Z" fill="#656565" fill-opacity="0.8"/>
<path d="M1215.77 175.472C1214.86 175.472 1214.05 175.218 1213.35 174.711C1212.65 174.203 1212.11 173.481 1211.72 172.546C1211.34 171.611 1211.15 170.497 1211.15 169.204C1211.15 167.912 1211.34 166.798 1211.72 165.863C1212.11 164.928 1212.65 164.206 1213.35 163.698C1214.05 163.19 1214.86 162.936 1215.77 162.936C1216.69 162.936 1217.5 163.19 1218.19 163.698C1218.89 164.206 1219.42 164.928 1219.8 165.863C1220.2 166.798 1220.39 167.912 1220.39 169.204C1220.39 170.497 1220.2 171.611 1219.8 172.546C1219.42 173.481 1218.89 174.203 1218.19 174.711C1217.5 175.218 1216.69 175.472 1215.77 175.472ZM1212.64 169.204C1212.64 169.989 1212.72 170.699 1212.88 171.334C1213.05 171.957 1213.29 172.483 1213.59 172.91L1216.95 164.581C1216.59 164.385 1216.2 164.287 1215.77 164.287C1215.16 164.287 1214.62 164.489 1214.14 164.893C1213.67 165.285 1213.3 165.851 1213.03 166.59C1212.77 167.317 1212.64 168.189 1212.64 169.204ZM1215.77 174.139C1216.38 174.139 1216.92 173.943 1217.4 173.55C1217.87 173.146 1218.24 172.575 1218.51 171.836C1218.77 171.097 1218.9 170.22 1218.9 169.204C1218.9 168.419 1218.82 167.715 1218.64 167.092C1218.48 166.457 1218.25 165.926 1217.95 165.499L1214.58 173.845C1214.94 174.041 1215.34 174.139 1215.77 174.139ZM1222.24 175.265V174.122C1223.49 173.129 1224.57 172.217 1225.49 171.386C1226.43 170.555 1227.15 169.753 1227.66 168.979C1228.17 168.206 1228.42 167.415 1228.42 166.607C1228.42 165.88 1228.21 165.308 1227.8 164.893C1227.39 164.466 1226.84 164.252 1226.15 164.252C1225.62 164.252 1225.17 164.368 1224.8 164.599C1224.43 164.829 1224.16 165.135 1223.97 165.516C1223.79 165.897 1223.69 166.307 1223.69 166.746H1222.26C1222.27 165.949 1222.44 165.268 1222.78 164.702C1223.12 164.125 1223.58 163.687 1224.16 163.386C1224.75 163.086 1225.41 162.936 1226.15 162.936C1227.34 162.936 1228.26 163.265 1228.92 163.923C1229.58 164.581 1229.91 165.464 1229.91 166.572C1229.91 167.3 1229.75 167.998 1229.44 168.668C1229.13 169.326 1228.71 169.96 1228.2 170.572C1227.68 171.184 1227.09 171.773 1226.45 172.338C1225.8 172.904 1225.15 173.447 1224.49 173.966H1230.24V175.265H1222.24Z" fill="#121212"/>
<rect x="1188.07" y="729.771" width="10.3891" height="10.3891" fill="black" stroke="#656565" stroke-width="1.15434"/>
<rect x="2139.24" y="729.771" width="10.3891" height="10.3891" fill="black" stroke="#656565" stroke-width="1.15434"/>
<rect x="1188.07" y="174.619" width="10.3891" height="10.3891" fill="black" stroke="#656565" stroke-width="1.15434"/>
<rect x="2139.24" y="174.619" width="10.3891" height="10.3891" fill="black" stroke="#656565" stroke-width="1.15434"/>
<rect x="98.3689" y="729.771" width="10.3891" height="10.3891" fill="black" stroke="#656565" stroke-width="1.15434"/>
<rect x="98.3689" y="174.619" width="10.3891" height="10.3891" fill="black" stroke="#656565" stroke-width="1.15434"/>
<rect x="1049.55" y="729.771" width="10.3891" height="10.3891" fill="black" stroke="#656565" stroke-width="1.15434"/>
<rect x="1049.55" y="175.773" width="10.3891" height="10.3891" fill="black" stroke="#656565" stroke-width="1.15434"/>
<path d="M516.582 654.577C515.917 653.37 515.412 652.521 515.067 652.028C519.623 650.674 523.132 649.246 525.595 647.743C523.305 645.552 521.298 642.535 519.574 638.693H518.281V636.145H536.898V638.878C534.879 642.597 532.613 645.564 530.102 647.78C532.416 649.233 535.63 650.489 539.743 651.548C539.078 652.681 538.61 653.555 538.339 654.171C533.759 652.718 530.262 651.166 527.848 649.517C524.992 651.487 521.236 653.173 516.582 654.577ZM518.577 634.852C517.936 634.064 517.308 633.362 516.693 632.746C518.54 631.86 519.771 630.961 520.387 630.05C520.978 629.163 521.273 627.809 521.273 625.986V622.81H535.088V628.942C535.088 629.631 535.224 630.111 535.495 630.382C535.741 630.628 536.221 630.752 536.935 630.752H540.001L539.632 633.337H536.012C533.598 633.387 532.392 632.291 532.392 630.05V625.322H523.896V626.43C523.896 628.548 523.526 630.198 522.788 631.38C522.049 632.537 520.645 633.694 518.577 634.852ZM512.149 652.102L510.339 650.181C510.881 649.393 511.152 648.532 511.152 647.596V635.11H507.458V632.562H513.738V646.524C514.353 645.86 515.535 644.542 517.284 642.572C517.653 643.582 518.023 644.431 518.392 645.121C517.358 646.155 515.782 647.842 513.664 650.181C512.876 651.117 512.371 651.757 512.149 652.102ZM522.381 638.693C523.957 641.895 525.792 644.37 527.885 646.118C530.2 644.271 532.232 641.796 533.98 638.693H522.381ZM514.439 629.237C513.085 627.513 511.484 625.58 509.637 623.438L511.817 621.923C513.984 624.287 515.634 626.147 516.767 627.501L514.439 629.237ZM555.146 635.517V632.746H564.602V621.295H567.41V632.746H576.829V635.517H567.41V654.503H564.602V635.517H555.146ZM549.568 654.023L547.611 651.807C548.349 650.969 548.719 649.911 548.719 648.63V635.369H544.434V632.709H551.489V648.63C554.001 646.906 555.873 645.564 557.104 644.604C557.375 645.761 557.658 646.771 557.953 647.633C555.663 649.135 553.398 650.736 551.157 652.435C550.566 652.976 550.036 653.506 549.568 654.023ZM552.339 629.089C550.319 626.774 548.559 624.866 547.057 623.364L549.162 621.628C550.935 623.327 552.757 625.174 554.629 627.169L552.339 629.089ZM583.441 654.577C582.604 653.789 581.89 653.149 581.299 652.656C582.924 651.056 584.032 649.381 584.623 647.633C585.214 645.909 585.498 643.471 585.473 640.319V635.849H610.296V646.746H607.673V645.232H587.837C587.615 647.128 587.16 648.802 586.47 650.255C585.805 651.634 584.796 653.075 583.441 654.577ZM581.927 626.984V624.583H596.481V621.221H599.177V624.583H613.694V626.984H599.177V630.493H611.072V632.857H584.586V630.493H596.481V626.984H581.927ZM588.022 640.356C588.022 641.218 588.022 642.08 588.022 642.941H596.592V638.102H588.022V640.356ZM607.673 638.102H599.177V642.941H607.673V638.102ZM630.908 654.614C630.12 653.851 629.332 653.186 628.544 652.619C630.785 650.452 632.336 648.211 633.198 645.897C634.134 643.409 634.577 639.814 634.528 635.11V622.81H648.934V649.48C648.934 651.08 648.626 652.225 648.01 652.915C647.37 653.629 646.225 654.035 644.575 654.134C643.27 654.208 641.731 654.245 639.958 654.245C639.736 652.89 639.539 651.918 639.367 651.327C640.524 651.425 641.94 651.474 643.615 651.474C644.551 651.474 645.215 651.29 645.609 650.92C646.028 650.526 646.237 649.886 646.237 648.999V643.089H636.744C636.399 645.404 635.759 647.46 634.823 649.258C633.961 650.908 632.656 652.693 630.908 654.614ZM620.048 650.625V623.733H630.612V647.78H622.56V650.625H620.048ZM637.224 635.295C637.224 637.462 637.175 639.248 637.077 640.651H646.237V634.187H637.224V635.295ZM637.224 625.359V631.749H646.237V625.359H637.224ZM622.56 645.269H628.137V636.883H622.56V645.269ZM622.56 626.245V634.445H628.137V626.245H622.56Z" fill="white" fill-opacity="0.8"/>
<path opacity="0.5" d="M480.617 685.583V683.653H487.271V675.45H489.226V683.653H495.651V685.583H489.226V698.078H487.271V685.583H480.617ZM473.913 688.834C473.642 688.156 473.363 687.471 473.075 686.777C475.614 683.628 477.604 679.852 479.043 675.45L480.998 675.984C480.253 678.015 479.457 679.869 478.611 681.545V698.078H476.757V684.897C475.86 686.286 474.912 687.598 473.913 688.834ZM501.568 697.113L500.527 695.005C501.408 694.565 502.288 693.904 503.168 693.024C507.045 689.181 510.728 684.669 514.215 679.488L516.095 680.707C512.184 686.057 508.214 690.747 504.184 694.776C508.197 694.556 512.209 694.336 516.222 694.116C514.884 692.203 513.614 690.442 512.412 688.834L514.038 687.818C516.357 690.899 518.49 693.811 520.437 696.554L518.685 697.773L517.466 695.944C511.422 696.249 507.062 696.503 504.387 696.706C503.135 696.825 502.195 696.96 501.568 697.113ZM500.045 688.453C499.774 688.097 499.3 687.547 498.623 686.802C500.62 685.278 502.508 683.484 504.286 681.418C505.962 679.471 507.426 677.44 508.679 675.323L510.533 676.415C508.959 678.819 507.35 680.978 505.708 682.891C503.896 685.007 502.009 686.861 500.045 688.453ZM527.345 684.974V676.288H543.09V684.974H527.345ZM524.374 688.631V687.031H546.188V688.631H536.487V691.17H544.512V692.694H536.487V695.538H536.589C538.705 695.589 541.973 695.597 546.391 695.563C546.205 696.156 546.044 696.74 545.909 697.316C542.167 697.316 539.052 697.282 536.563 697.214C534.616 697.163 533.076 696.867 531.941 696.325C530.773 695.767 529.791 694.844 528.996 693.557C528.284 695.284 527.006 696.85 525.161 698.255C525.059 698.154 524.653 697.697 523.942 696.884C525.347 695.767 526.346 694.708 526.939 693.71C527.531 692.694 527.988 691.263 528.31 689.418L530.062 689.697C530.011 690.036 529.859 690.721 529.605 691.754C530.722 693.921 532.415 695.123 534.684 695.36V688.631H524.374ZM529.199 681.291V683.475H541.211V681.291H529.199ZM529.199 677.812V679.945H541.211V677.812H529.199ZM557.921 695.741C556.956 694.827 555.991 693.913 555.026 692.999C554.027 694.607 552.58 696.215 550.683 697.824C550.379 697.451 549.955 696.952 549.414 696.325C551.293 694.869 552.732 693.363 553.731 691.805L550.328 688.834C550.954 686.209 551.437 683.856 551.775 681.774H549.693V680.021H552.055C552.207 679.124 552.427 677.55 552.715 675.298L554.62 675.45C554.416 676.855 554.171 678.379 553.883 680.021H558.073V681.825C557.718 685.972 557.007 689.155 555.94 691.373C557.058 692.338 558.175 693.295 559.292 694.243L557.921 695.741ZM558.708 687.539V685.71H564.549V682.383L568.739 678.498H559.546V676.72H571.025V678.675L566.479 683.044V685.71H571.838V687.539H566.479V694.649C566.479 695.716 566.251 696.486 565.794 696.96C565.353 697.417 564.592 697.671 563.508 697.722C562.831 697.756 561.874 697.773 560.638 697.773C560.452 696.588 560.342 695.927 560.308 695.792C560.867 695.843 561.756 695.868 562.975 695.868C563.55 695.868 563.957 695.741 564.194 695.487C564.431 695.233 564.549 694.802 564.549 694.192V687.539H558.708ZM556.321 681.774H553.578C553.07 684.466 552.605 686.641 552.182 688.3C553.011 688.961 553.798 689.604 554.543 690.23C555.508 688.063 556.101 685.244 556.321 681.774ZM593.011 688.021H590.319V685.278H593.011V688.021ZM620.609 698.128V688.25H631.833V698.128H630.03V696.808H622.412V698.128H620.609ZM612.304 691.094L611.796 689.443C612.287 689.121 612.905 688.47 613.65 687.488C614.107 686.912 614.793 685.913 615.707 684.491C614.031 684.559 612.753 684.643 611.873 684.745L611.39 683.044C611.847 682.637 612.313 682.07 612.787 681.342C614.158 679.192 615.25 677.169 616.063 675.272L617.942 675.882C616.503 678.472 615.022 680.843 613.498 682.993L616.698 682.891C617.019 682.383 617.468 681.604 618.044 680.555L619.72 681.266C617.603 684.601 615.809 687.234 614.336 689.164L618.856 688.783C618.789 689.189 618.738 689.731 618.704 690.408C616.063 690.628 614.539 690.764 614.133 690.815C613.726 690.865 613.117 690.958 612.304 691.094ZM622.412 689.9V695.132H630.03V689.9H622.412ZM619.898 684.72C619.491 683.924 619.17 683.365 618.932 683.044C621.997 681.097 624.274 678.43 625.764 675.044L627.669 675.298L627.237 676.111C628.236 677.77 629.226 679.099 630.208 680.098C631.139 681.063 632.333 681.985 633.789 682.866C633.569 683.187 633.222 683.763 632.748 684.593C629.937 682.696 627.812 680.394 626.373 677.685C625.493 679.175 624.553 680.462 623.554 681.545C622.589 682.595 621.37 683.653 619.898 684.72ZM621.523 685.304V683.653H630.868V685.304H621.523ZM611.695 696.478L611.339 694.598C614.658 694.124 617.282 693.693 619.212 693.303C619.178 693.811 619.161 694.429 619.161 695.157C616.384 695.58 613.896 696.021 611.695 696.478ZM637.141 680.936V679.107H647.756C647.587 678.616 647.147 677.448 646.436 675.603L648.493 675.222C649.136 676.779 649.61 678.007 649.915 678.904L649.001 679.107H658.803V680.936H645.141C645.107 682.476 645.048 683.831 644.963 684.999H655.908C655.824 687.996 655.671 690.696 655.451 693.1C655.316 694.708 654.901 695.826 654.207 696.452C653.53 697.062 652.395 697.383 650.804 697.417C649.737 697.451 648.467 697.468 646.994 697.468C646.91 696.825 646.774 696.156 646.588 695.462C647.807 695.513 649.077 695.538 650.397 695.538C651.498 695.538 652.268 695.335 652.708 694.929C653.149 694.522 653.428 693.76 653.547 692.643C653.733 691.018 653.851 689.079 653.902 686.827H644.785C644.514 689.452 643.922 691.576 643.007 693.202C642.076 694.844 640.51 696.529 638.309 698.255C637.801 697.747 637.293 697.24 636.786 696.732C639.02 695.039 640.553 693.439 641.382 691.932C642.195 690.476 642.72 688.402 642.957 685.71C643.075 684.237 643.151 682.646 643.185 680.936H637.141ZM663.679 697.849V678.625H670.435C670.807 677.355 671.095 676.212 671.298 675.196L673.33 675.425C672.923 676.881 672.61 677.947 672.39 678.625H683.005V694.598C683.005 695.665 682.785 696.435 682.345 696.909C681.888 697.4 681.126 697.663 680.059 697.697L676.834 697.773C676.733 697.163 676.606 696.495 676.453 695.767C677.537 695.834 678.51 695.868 679.374 695.868C680.034 695.868 680.5 695.741 680.77 695.487C681.024 695.25 681.151 694.844 681.151 694.268V680.402H665.533V697.849H663.679ZM668.708 692.491V683.856H677.952V692.491H668.708ZM670.511 685.532V690.815H676.174V685.532H670.511Z" fill="#CCCCCC"/>
<path d="M1619.07 645.269L1614.86 642.166C1614.29 644.456 1613.47 646.561 1612.38 648.482C1611.37 650.255 1609.92 652.238 1608.03 654.429C1607.19 653.641 1606.44 652.964 1605.77 652.398C1609.42 648.729 1611.66 644.776 1612.49 640.54C1612 640.196 1610.51 639.211 1608.03 637.585L1609.54 635.554L1613.01 637.77C1613.13 636.317 1613.25 635.024 1613.34 633.891L1613.53 630.456H1609.43V627.87H1613.64C1613.66 625.679 1613.68 623.475 1613.68 621.258H1616.34L1616.23 627.87H1624.68C1624.59 630.579 1624.54 634.051 1624.54 638.287C1624.54 643.483 1624.76 647.202 1625.2 649.443C1625.4 650.354 1625.72 650.809 1626.16 650.809C1626.58 650.809 1626.89 650.366 1627.09 649.48C1627.33 648.174 1627.59 646.34 1627.86 643.976C1628.26 644.173 1628.97 644.444 1630 644.788C1629.63 647.423 1629.29 649.381 1628.97 650.662C1628.45 652.706 1627.48 653.728 1626.05 653.728C1624.2 653.678 1623.05 652.361 1622.58 649.775C1622.01 646.845 1621.82 640.405 1621.99 630.456H1616.15L1616 634.039C1615.86 635.935 1615.67 637.696 1615.45 639.321L1620.77 642.831L1619.07 645.269ZM1597.31 630.234V627.723H1601.45V621.295H1604.07V627.723H1607.69V630.234H1604.07V637.401C1605.87 636.933 1606.94 636.649 1607.29 636.551C1607.29 637.29 1607.34 638.201 1607.43 639.284L1604.07 640.245V650.181C1604.07 651.536 1603.83 652.509 1603.33 653.1C1602.84 653.691 1601.97 654.035 1600.71 654.134C1600.17 654.159 1599.2 654.171 1597.79 654.171C1597.62 653.137 1597.44 652.176 1597.24 651.29C1598.25 651.363 1599.16 651.388 1599.97 651.363C1600.51 651.363 1600.9 651.228 1601.12 650.957C1601.34 650.686 1601.45 650.231 1601.45 649.59V640.984C1600.07 641.378 1598.69 641.759 1597.31 642.129L1597.05 639.026C1598.7 638.706 1600.17 638.373 1601.45 638.029V630.234H1597.31ZM1646.33 636.736V634.002H1666.57V636.736H1660.52V648.852C1660.52 650.575 1660.17 651.807 1659.48 652.546C1658.77 653.309 1657.55 653.728 1655.82 653.801C1654.49 653.875 1652.82 653.912 1650.8 653.912C1650.5 652.287 1650.32 651.327 1650.25 651.031C1652.12 651.08 1653.67 651.105 1654.9 651.105C1655.93 651.105 1656.66 650.908 1657.08 650.514C1657.5 650.12 1657.71 649.43 1657.71 648.445V636.736H1646.33ZM1635.03 644.197C1634.78 643.409 1634.41 642.486 1633.92 641.427C1637.19 638.595 1640.22 634.864 1643.01 630.234L1645.3 631.749C1644.29 633.374 1643.12 635.073 1641.79 636.847V654.503H1639.13V640.097C1637.85 641.476 1636.48 642.843 1635.03 644.197ZM1648.1 626.319V623.622H1664.87V626.319H1648.1ZM1635.91 632.672C1635.37 631.466 1634.93 630.579 1634.58 630.013C1637.81 627.427 1640.57 624.497 1642.86 621.221L1645.19 622.847C1642.3 626.59 1639.21 629.865 1635.91 632.672ZM1671.93 644.973V642.609H1685.86C1686 641.969 1686.11 641.23 1686.19 640.393H1688.92C1688.8 641.255 1688.65 641.993 1688.48 642.609H1702.55V644.973H1689.18C1690.61 646.992 1692.34 648.495 1694.39 649.48C1696.43 650.465 1699.37 651.203 1703.22 651.696C1702.8 652.459 1702.38 653.37 1701.96 654.429C1698.09 653.715 1695.03 652.718 1692.76 651.437C1690.47 650.157 1688.66 648.396 1687.33 646.155C1686.25 648.298 1684.55 650.021 1682.24 651.327C1679.95 652.607 1676.66 653.728 1672.37 654.688C1672.08 653.851 1671.66 652.94 1671.12 651.955C1675.28 651.265 1678.44 650.378 1680.61 649.295C1682.73 648.236 1684.22 646.795 1685.08 644.973H1671.93ZM1672.48 626.541V624.361H1678.32V621.295H1680.87V624.361H1686.41V626.541H1680.87V629.68H1685.78V631.786H1680.87V634.963H1686.67V637.142H1680.87V640.393H1678.32V637.142H1672.15V634.963H1678.32V631.786H1673.22V629.68H1678.32V626.541H1672.48ZM1693.46 639.174L1692.91 636.44C1694.02 636.514 1695.13 636.551 1696.24 636.551C1697.02 636.551 1697.6 636.366 1697.97 635.997C1698.34 635.628 1698.55 635 1698.6 634.113C1698.82 631.503 1698.93 628.72 1698.93 625.765H1694.06C1693.98 629.139 1693.55 631.81 1692.76 633.781C1691.97 635.775 1690.55 637.758 1688.48 639.728C1688.01 639.235 1687.36 638.632 1686.52 637.918C1688.42 636.243 1689.72 634.556 1690.44 632.857C1691.15 631.158 1691.53 628.794 1691.58 625.765H1688.07V623.438H1701.59C1701.54 625.038 1701.39 628.732 1701.15 634.519C1701.05 636.071 1700.7 637.191 1700.11 637.881C1699.5 638.57 1698.5 638.964 1697.12 639.063C1695.57 639.137 1694.35 639.174 1693.46 639.174ZM1722.42 635.369C1721.61 634.679 1720.89 634.101 1720.25 633.633C1722.98 629.914 1725.11 625.789 1726.64 621.258L1729.37 621.886C1728.8 623.413 1728.14 624.989 1727.37 626.614H1739.16C1739.08 633.362 1738.85 640.343 1738.46 647.559C1738.33 649.726 1737.84 651.24 1736.98 652.102C1736.07 653.013 1734.5 653.494 1732.29 653.543C1730.88 653.592 1728.99 653.617 1726.6 653.617C1726.48 652.484 1726.27 651.511 1725.97 650.699C1727.37 650.772 1729.36 650.809 1731.92 650.809C1733.3 650.809 1734.27 650.526 1734.84 649.96C1735.4 649.393 1735.72 648.384 1735.8 646.931C1736.14 641.488 1736.34 635.591 1736.39 629.237H1726.08C1724.88 631.527 1723.66 633.571 1722.42 635.369ZM1709.75 644.493L1708.83 641.981C1709.57 641.513 1710.4 640.676 1711.31 639.469C1712.19 638.287 1713.25 636.773 1714.48 634.926C1711.58 635 1709.64 635.135 1708.68 635.332L1707.87 632.857C1708.49 632.365 1709.18 631.54 1709.94 630.382C1711.96 627.181 1713.58 624.14 1714.82 621.258L1717.55 622.108C1715.55 625.925 1713.44 629.471 1711.2 632.746C1712.8 632.697 1714.38 632.635 1715.96 632.562C1716.9 631.084 1717.75 629.606 1718.51 628.129L1721.06 629.311C1718.32 633.768 1715.53 637.893 1712.67 641.685C1714.4 641.439 1716.83 641.156 1719.99 640.836C1719.86 641.87 1719.8 642.671 1719.8 643.237C1715.71 643.656 1713.17 643.939 1712.16 644.087C1711.37 644.234 1710.57 644.37 1709.75 644.493ZM1708.28 652.176L1707.83 649.443C1712.69 648.876 1717.08 648.285 1721.02 647.67C1720.95 648.532 1720.91 649.418 1720.91 650.329C1715.27 651.117 1711.06 651.733 1708.28 652.176ZM1729.07 643.902C1727.4 641.316 1725.69 638.817 1723.94 636.403L1726.01 635C1728.2 637.856 1729.97 640.294 1731.33 642.313L1729.07 643.902Z" fill="white" fill-opacity="0.8"/>
<path opacity="0.5" d="M1564.65 684.262C1564.14 683.721 1563.67 683.264 1563.23 682.891C1565.51 680.656 1567.24 678.1 1568.41 675.222L1570.39 675.374C1569.98 676.305 1569.62 677.059 1569.3 677.634H1584.38V679.285H1572.22V681.723H1582.78V683.297H1572.22V685.735H1583.01V687.285H1572.22V688.859H1570.34V679.285H1568.41C1567.36 681.046 1566.11 682.705 1564.65 684.262ZM1571.71 697.57C1570.64 697.57 1569.87 697.316 1569.37 696.808C1568.87 696.283 1568.61 695.47 1568.61 694.37V689.773H1570.44V693.964C1570.44 694.675 1570.59 695.166 1570.87 695.436C1571.16 695.707 1571.66 695.843 1572.37 695.843H1576.13C1576.82 695.843 1577.34 695.724 1577.68 695.487C1578 695.267 1578.23 694.895 1578.36 694.37C1578.52 693.71 1578.64 692.939 1578.75 692.059C1579.05 692.194 1579.66 692.406 1580.57 692.694C1580.39 693.659 1580.18 694.531 1579.96 695.31C1579.71 696.105 1579.33 696.672 1578.82 697.011C1578.28 697.383 1577.53 697.57 1576.56 697.57H1571.71ZM1564.8 696.3C1564.3 696.046 1563.74 695.809 1563.13 695.589C1563.89 693.879 1564.59 691.932 1565.24 689.748L1566.94 690.256C1566.31 692.304 1565.6 694.319 1564.8 696.3ZM1583.77 695.589C1582.3 693.269 1581.18 691.576 1580.4 690.51L1581.89 689.596C1583.13 691.289 1584.29 692.956 1585.37 694.598L1583.77 695.589ZM1575.27 693.43C1574.37 692.16 1573.46 690.967 1572.55 689.849L1573.92 688.884C1574.99 690.137 1575.93 691.272 1576.74 692.287L1575.27 693.43ZM1591.27 697.113L1590.22 695.005C1591.1 694.565 1591.99 693.904 1592.87 693.024C1596.74 689.181 1600.42 684.669 1603.91 679.488L1605.79 680.707C1601.88 686.057 1597.91 690.747 1593.88 694.776C1597.89 694.556 1601.91 694.336 1605.92 694.116C1604.58 692.203 1603.31 690.442 1602.11 688.834L1603.73 687.818C1606.05 690.899 1608.19 693.811 1610.13 696.554L1608.38 697.773L1607.16 695.944C1601.12 696.249 1596.76 696.503 1594.08 696.706C1592.83 696.825 1591.89 696.96 1591.27 697.113ZM1589.74 688.453C1589.47 688.097 1589 687.547 1588.32 686.802C1590.32 685.278 1592.21 683.484 1593.98 681.418C1595.66 679.471 1597.12 677.44 1598.38 675.323L1600.23 676.415C1598.66 678.819 1597.05 680.978 1595.41 682.891C1593.59 685.007 1591.71 686.861 1589.74 688.453ZM1635.07 697.824C1633.57 696.418 1632.38 695.056 1631.52 693.735C1630.6 695.123 1629.26 696.613 1627.48 698.205C1626.99 697.527 1626.59 697.019 1626.29 696.681C1628.17 695.039 1629.58 693.481 1630.53 692.008C1629.61 690.129 1628.99 687.674 1628.65 684.643C1628.26 685.371 1627.9 685.998 1627.58 686.523C1627.28 685.998 1626.97 685.465 1626.67 684.923C1628.26 682.129 1629.42 678.929 1630.15 675.323L1631.87 675.526C1631.48 677.101 1631.09 678.489 1630.68 679.691H1636.01V681.317H1634.9C1634.59 685.922 1633.79 689.494 1632.51 692.034C1633.39 693.422 1634.62 694.768 1636.19 696.071C1635.78 696.63 1635.41 697.214 1635.07 697.824ZM1619.1 681.672V680.021H1622.43V675.399H1624.15V680.021H1627.43V681.672H1624.15V686.167H1626.64V694.903H1621.54V696.427H1619.91V686.167H1622.43V681.672H1619.1ZM1616.2 698.103V684.491C1615.54 685.896 1614.87 687.141 1614.2 688.224C1614.13 687.835 1613.92 687.064 1613.56 685.913C1615.26 683.018 1616.64 679.497 1617.7 675.349L1619.43 675.704C1619.04 677.16 1618.52 678.769 1617.88 680.529V698.103H1616.2ZM1631.52 690.154C1632.43 688.089 1633 685.143 1633.22 681.317H1630.1L1629.87 681.901C1630.17 685.473 1630.72 688.224 1631.52 690.154ZM1621.54 687.792V693.303H1625.04V687.792H1621.54ZM1641.4 685.837V677.609H1643.28V684.009H1649.32V675.425H1651.25V684.009H1657.29V677.609H1659.17V685.837H1651.25V695.106H1658V688.605H1659.88V697.824H1658V696.909H1640.69V688.605H1642.56V695.106H1649.32V685.837H1641.4ZM1682.71 688.021H1680.02V685.278H1682.71V688.021ZM1710.31 698.128V688.25H1721.53V698.128H1719.73V696.808H1712.11V698.128H1710.31ZM1702 691.094L1701.49 689.443C1701.98 689.121 1702.6 688.47 1703.35 687.488C1703.8 686.912 1704.49 685.913 1705.4 684.491C1703.73 684.559 1702.45 684.643 1701.57 684.745L1701.09 683.044C1701.54 682.637 1702.01 682.07 1702.48 681.342C1703.86 679.192 1704.95 677.169 1705.76 675.272L1707.64 675.882C1706.2 678.472 1704.72 680.843 1703.19 682.993L1706.39 682.891C1706.72 682.383 1707.17 681.604 1707.74 680.555L1709.42 681.266C1707.3 684.601 1705.51 687.234 1704.03 689.164L1708.55 688.783C1708.49 689.189 1708.43 689.731 1708.4 690.408C1705.76 690.628 1704.24 690.764 1703.83 690.815C1703.42 690.865 1702.81 690.958 1702 691.094ZM1712.11 689.9V695.132H1719.73V689.9H1712.11ZM1709.59 684.72C1709.19 683.924 1708.87 683.365 1708.63 683.044C1711.69 681.097 1713.97 678.43 1715.46 675.044L1717.37 675.298L1716.93 676.111C1717.93 677.77 1718.92 679.099 1719.91 680.098C1720.84 681.063 1722.03 681.985 1723.49 682.866C1723.27 683.187 1722.92 683.763 1722.44 684.593C1719.63 682.696 1717.51 680.394 1716.07 677.685C1715.19 679.175 1714.25 680.462 1713.25 681.545C1712.29 682.595 1711.07 683.653 1709.59 684.72ZM1711.22 685.304V683.653H1720.57V685.304H1711.22ZM1701.39 696.478L1701.04 694.598C1704.35 694.124 1706.98 693.693 1708.91 693.303C1708.88 693.811 1708.86 694.429 1708.86 695.157C1706.08 695.58 1703.59 696.021 1701.39 696.478ZM1727.75 683.856V676.491H1735.02V683.856H1732.88V687.691H1735.27V689.316H1732.88V694.116L1735.65 693.633C1735.65 694.514 1735.66 695.14 1735.68 695.513C1733.09 695.902 1730.12 696.402 1726.79 697.011L1726.48 695.056C1727.08 694.988 1727.49 694.929 1727.73 694.878V686.218H1729.2V694.675C1729.89 694.607 1730.58 694.505 1731.26 694.37V683.856H1727.75ZM1748.14 688.427C1745.69 687.615 1743.73 686.675 1742.28 685.608C1740.7 686.743 1738.69 687.767 1736.23 688.681C1736.01 688.14 1735.75 687.598 1735.45 687.056C1737.78 686.243 1739.61 685.388 1740.93 684.491C1740.04 683.628 1739.16 682.442 1738.32 680.936C1737.71 681.799 1737.12 682.569 1736.56 683.247C1736.21 682.79 1735.85 682.332 1735.5 681.875C1737.11 679.945 1738.45 677.71 1739.54 675.171L1741.39 675.526L1740.3 677.66H1747.46V679.412C1746.31 681.579 1745.05 683.281 1743.68 684.516C1745.01 685.397 1746.75 686.125 1748.88 686.7C1748.64 687.276 1748.4 687.852 1748.14 688.427ZM1737.15 698.154V689.037H1747.08V698.154H1745.33V696.706H1738.88V698.154H1737.15ZM1738.88 690.688V695.056H1745.33V690.688H1738.88ZM1729.4 678.091V682.256H1733.36V678.091H1729.4ZM1745.55 679.31H1739.36L1739.28 679.437C1740.15 681.113 1741.14 682.459 1742.28 683.475C1743.55 682.392 1744.64 681.003 1745.55 679.31ZM1759.78 689.926V688.173H1772.98V689.926H1767.39V695.233H1774.23V696.986H1758.51V695.233H1765.52V689.926H1759.78ZM1759.4 687.183C1759.21 686.777 1758.9 686.209 1758.46 685.481C1761.3 684.449 1763.58 683.399 1765.29 682.332C1766.96 681.3 1768.52 679.988 1769.96 678.396H1760.23V676.669H1772.17V678.549C1770.95 680.038 1769.66 681.317 1768.31 682.383C1769.8 683.128 1771.8 684.195 1774.3 685.583L1773.18 687.183C1771.07 685.913 1768.95 684.669 1766.84 683.45C1764.87 684.787 1762.39 686.032 1759.4 687.183ZM1752.46 690.992C1752.43 690.891 1752.18 690.264 1751.73 689.113C1753.94 687.048 1755.93 684.457 1757.69 681.342L1759.29 682.307C1758.41 683.746 1757.57 685.024 1756.75 686.142V698.128H1754.93V688.402C1754.11 689.35 1753.29 690.213 1752.46 690.992ZM1752.89 683.12C1752.83 682.9 1752.56 682.273 1752.08 681.24C1754.35 679.395 1756.18 677.414 1757.57 675.298L1759.14 676.364C1757.28 678.904 1755.2 681.156 1752.89 683.12Z" fill="#CCCCCC"/>
</svg>
