<svg width="2248" height="894" viewBox="0 0 2248 894" fill="none" xmlns="http://www.w3.org/2000/svg">
<rect width="2248" height="894" fill="#FAFAFA"/>
<path d="M1054.24 180.314V733.397H104.063V180.314H1054.24Z" stroke="#8F939B"/>
<path d="M1054.24 733.396V586.641H104.063V733.396H1054.24Z" stroke="#8F939B"/>
<path d="M2143.95 733.396V586.641H1193.78V733.396H2143.95Z" stroke="#8F939B"/>
<path d="M2143.94 180.314V733.397H1193.76V180.314H2143.94Z" stroke="#8F939B"/>
<path d="M1531.66 235.75C1607.06 235.75 1668.26 302.146 1668.26 384.153C1668.26 466.161 1607.06 532.557 1531.66 532.557C1456.26 532.556 1395.06 466.161 1395.06 384.153C1395.06 302.146 1456.26 235.75 1531.66 235.75Z" stroke="#8F939B" stroke-width="1.17594"/>
<path d="M1579.99 542.777C1629.07 542.777 1668.85 471.759 1668.85 384.154C1668.85 296.55 1629.07 225.532 1579.99 225.532C1530.91 225.532 1491.13 296.55 1491.13 384.154C1491.13 471.759 1530.91 542.777 1579.99 542.777Z" stroke="#8F939B" stroke-width="1.3066" stroke-dasharray="5.23 5.23"/>
<path d="M1616.41 542.777C1645.38 542.777 1668.86 471.759 1668.86 384.154C1668.86 296.55 1645.38 225.532 1616.41 225.532C1587.44 225.532 1563.96 296.55 1563.96 384.154C1563.96 471.759 1587.44 542.777 1616.41 542.777Z" fill="#80EBFF" fill-opacity="0.1" stroke="#8F939B" stroke-width="1.3066" stroke-dasharray="5.23 5.23"/>
<path d="M1550.48 542.777C1615.86 542.777 1668.85 471.759 1668.85 384.154C1668.85 296.55 1615.86 225.532 1550.48 225.532C1485.1 225.532 1432.1 296.55 1432.1 384.154C1432.1 471.759 1485.1 542.777 1550.48 542.777Z" stroke="#8F939B" stroke-width="1.17594"/>
<path d="M1514.46 279.684C1518.76 279.684 1522.25 276.332 1522.25 272.199C1522.25 268.065 1518.76 264.714 1514.46 264.714C1510.16 264.714 1506.67 268.065 1506.67 272.199C1506.67 276.332 1510.16 279.684 1514.46 279.684Z" fill="#80EBFF"/>
<path d="M1806.06 235.749C1730.66 235.749 1669.46 302.145 1669.46 384.152C1669.46 466.16 1730.66 532.556 1806.06 532.556C1881.46 532.556 1942.66 466.16 1942.66 384.152C1942.66 302.145 1881.46 235.749 1806.06 235.749Z" stroke="#8F939B" stroke-width="1.17594"/>
<path d="M1757.73 542.777C1708.65 542.777 1668.87 471.759 1668.87 384.154C1668.87 296.55 1708.65 225.532 1757.73 225.532C1806.81 225.532 1846.59 296.55 1846.59 384.154C1846.59 471.759 1806.81 542.777 1757.73 542.777Z" stroke="#8F939B" stroke-width="1.3066" stroke-dasharray="5.23 5.23"/>
<path d="M1707.42 542.777C1686.12 542.777 1668.86 471.759 1668.86 384.154C1668.86 296.55 1686.12 225.532 1707.42 225.532C1728.72 225.532 1745.98 296.55 1745.98 384.154C1745.98 471.759 1728.72 542.777 1707.42 542.777Z" fill="#80EBFF" fill-opacity="0.1" stroke="#8F939B" stroke-width="1.3066" stroke-dasharray="5.23 5.23"/>
<path d="M1787.24 542.777C1721.86 542.777 1668.87 471.759 1668.87 384.154C1668.87 296.55 1721.86 225.532 1787.24 225.532C1852.62 225.532 1905.62 296.55 1905.62 384.154C1905.62 471.759 1852.62 542.777 1787.24 542.777Z" stroke="#8F939B" stroke-width="1.17594"/>
<path d="M1846.59 379.692C1842.29 379.692 1838.81 376.341 1838.81 372.208C1838.81 368.074 1842.29 364.723 1846.59 364.723C1850.9 364.723 1854.38 368.074 1854.38 372.208C1854.38 376.341 1850.9 379.692 1846.59 379.692Z" fill="#80EBFF"/>
<path d="M1741.76 313.209C1737.46 313.209 1733.97 309.858 1733.97 305.724C1733.97 301.59 1737.46 298.239 1741.76 298.239C1746.06 298.239 1749.54 301.59 1749.54 305.724C1749.54 309.858 1746.06 313.209 1741.76 313.209Z" fill="#80EBFF"/>
<path d="M1563.96 434.667C1559.66 434.667 1556.17 431.316 1556.17 427.182C1556.17 423.048 1559.66 419.697 1563.96 419.697C1568.26 419.697 1571.74 423.048 1571.74 427.182C1571.74 431.316 1568.26 434.667 1563.96 434.667Z" fill="#80EBFF"/>
<path opacity="0.4" d="M820.798 541.151C874.773 541.151 918.528 470.86 918.528 384.153C918.528 297.446 874.773 227.155 820.798 227.155C766.824 227.155 723.069 297.446 723.069 384.153C723.069 470.86 766.824 541.151 820.798 541.151Z" stroke="#F8B62D" stroke-width="0.606028" stroke-miterlimit="10"/>
<path d="M820.798 227.655C847.55 227.655 871.845 245.076 889.479 273.403C907.108 301.723 918.028 340.878 918.028 384.153C918.028 427.429 907.108 466.584 889.479 494.903C871.845 523.23 847.55 540.65 820.798 540.65C794.047 540.65 769.751 523.23 752.117 494.903C734.489 466.584 723.569 427.429 723.569 384.153C723.569 340.878 734.489 301.723 752.117 273.403C769.751 245.076 794.046 227.655 820.798 227.655Z" stroke="#8F939B"/>
<path d="M820.798 499.917C813.162 499.917 798.094 496.293 782.982 472.009C768.938 449.447 760.884 417.424 760.884 384.153C760.884 350.882 768.938 318.854 782.982 296.291C798.1 272.008 813.167 268.384 820.798 268.384C828.429 268.384 843.502 272.008 858.619 296.291C872.664 318.854 880.717 350.876 880.717 384.153C880.717 417.43 872.664 449.453 858.619 472.009C843.502 496.293 828.435 499.917 820.798 499.917Z" stroke="#8F939B" stroke-dasharray="4.85 4.85"/>
<path d="M860.509 386.241C860.985 386.241 862.163 386.453 863.419 388.466C864.597 390.356 865.289 393.083 865.289 395.94C865.289 398.797 864.592 401.524 863.419 403.415C862.163 405.429 860.99 405.64 860.509 405.64C860.032 405.64 858.854 405.429 857.604 403.416L857.603 403.415C856.425 401.525 855.734 398.798 855.734 395.94C855.734 393.084 856.429 390.356 857.603 388.465C858.859 386.451 860.033 386.241 860.509 386.241Z" stroke="#8F939B"/>
<path d="M256.664 362.639L804.636 229.295" stroke="#8F939B" stroke-width="1.21206"/>
<path d="M256.664 405.666L804.636 539.01" stroke="#8F939B"/>
<path d="M832.23 278.175C832.707 278.175 833.885 278.386 835.141 280.399C836.319 282.29 837.011 285.016 837.011 287.874C837.011 290.73 836.314 293.458 835.141 295.349C833.885 297.363 832.712 297.573 832.23 297.573C831.754 297.573 830.576 297.362 829.326 295.35L829.325 295.349C828.147 293.458 827.456 290.732 827.456 287.874C827.456 285.017 828.151 282.29 829.325 280.398C830.581 278.385 831.755 278.175 832.23 278.175Z" stroke="#8F939B"/>
<path d="M823.538 426.613L256.664 384.154L822.593 490.543" fill="#80EBFF" fill-opacity="0.1"/>
<path d="M823.538 426.613L256.664 384.154L822.593 490.543" stroke="#8F939B" stroke-width="1.21206" stroke-dasharray="4.85 4.85"/>
<path d="M823.537 490.633C821.759 490.633 818.246 489.633 814.717 482.918C811.443 476.682 809.565 467.822 809.565 458.623C809.565 449.423 811.443 440.569 814.717 434.327C818.241 427.612 821.753 426.612 823.537 426.612C825.321 426.612 828.828 427.612 832.358 434.327C835.631 440.563 837.51 449.423 837.51 458.623C837.51 467.822 835.631 476.676 832.358 482.918C828.834 489.633 825.321 490.633 823.537 490.633Z" fill="#EEF8FA" stroke="#8F939B" stroke-width="1.21206" stroke-dasharray="4.85 4.85"/>
<path d="M256.664 384.154L855.235 395.942" stroke="#8F939B" stroke-width="1.21206"/>
<path d="M826.951 287.874L256.664 384.154" stroke="#8F939B" stroke-width="1.21206"/>
<path d="M803.396 327.562L256.664 384.153L803.396 364.7" fill="#80EBFF" fill-opacity="0.1"/>
<path d="M803.396 327.562L256.664 384.153L803.396 364.7" stroke="#8F939B"/>
<path d="M803.396 364.33C802.056 364.33 799.403 363.76 796.751 359.941C794.284 356.396 792.867 351.359 792.867 346.133C792.867 340.907 794.284 335.87 796.751 332.325C799.409 328.506 802.056 327.936 803.396 327.936C804.736 327.936 807.388 328.506 810.046 332.325C812.514 335.87 813.93 340.907 813.93 346.133C813.93 351.359 812.514 356.396 810.046 359.941C807.388 363.76 804.741 364.33 803.396 364.33Z" fill="#EEF8FA" stroke="#8F939B"/>
<path d="M256.663 362.826C265.508 362.826 272.934 372.214 272.934 384.152C272.934 396.091 265.508 405.479 256.663 405.479C247.819 405.478 240.394 396.091 240.394 384.152C240.394 372.214 247.819 362.826 256.663 362.826Z" fill="white" stroke="#8F939B" stroke-width="1.2363"/>
<path d="M446.948 358.805C450.938 358.805 454.172 355.696 454.172 351.861C454.172 348.027 450.938 344.918 446.948 344.918C442.959 344.918 439.724 348.027 439.724 351.861C439.724 355.696 442.959 358.805 446.948 358.805Z" fill="#80EBFF"/>
<path d="M580.136 489.42C584.125 489.42 587.36 486.311 587.36 482.476C587.36 478.642 584.125 475.533 580.136 475.533C576.146 475.533 572.911 478.642 572.911 482.476C572.911 486.311 576.146 489.42 580.136 489.42Z" fill="#80EBFF"/>
<path d="M724.053 399.454C728.042 399.454 731.277 396.345 731.277 392.511C731.277 388.676 728.042 385.567 724.053 385.567C720.063 385.567 716.828 388.676 716.828 392.511C716.828 396.345 720.063 399.454 724.053 399.454Z" fill="#80EBFF"/>
<path d="M870.509 326.322C874.499 326.322 877.734 323.213 877.734 319.379C877.734 315.544 874.499 312.436 870.509 312.436C866.52 312.436 863.285 315.544 863.285 319.379C863.285 323.213 866.52 326.322 870.509 326.322Z" fill="#80EBFF"/>
<path d="M103.563 159.038H158.972V179.816H103.563V159.038Z" fill="#E1E2E4"/>
<path d="M126.073 175.473C125.161 175.473 124.353 175.219 123.649 174.712C122.956 174.204 122.414 173.482 122.021 172.547C121.641 171.612 121.45 170.498 121.45 169.205C121.45 167.912 121.641 166.799 122.021 165.864C122.414 164.929 122.956 164.207 123.649 163.699C124.353 163.191 125.161 162.937 126.073 162.937C126.997 162.937 127.805 163.191 128.497 163.699C129.19 164.207 129.727 164.929 130.108 165.864C130.5 166.799 130.696 167.912 130.696 169.205C130.696 170.498 130.5 171.612 130.108 172.547C129.727 173.482 129.19 174.204 128.497 174.712C127.805 175.219 126.997 175.473 126.073 175.473ZM122.939 169.205C122.939 169.99 123.02 170.7 123.182 171.335C123.355 171.958 123.591 172.484 123.891 172.911L127.251 164.582C126.893 164.386 126.5 164.288 126.073 164.288C125.461 164.288 124.919 164.49 124.446 164.894C123.972 165.286 123.603 165.852 123.337 166.591C123.072 167.318 122.939 168.19 122.939 169.205ZM126.073 174.14C126.685 174.14 127.228 173.944 127.701 173.551C128.174 173.147 128.543 172.576 128.809 171.837C129.074 171.098 129.207 170.221 129.207 169.205C129.207 168.42 129.121 167.716 128.947 167.093C128.786 166.458 128.555 165.927 128.255 165.5L124.878 173.846C125.248 174.042 125.646 174.14 126.073 174.14ZM132.473 175.266V173.95H135.607V164.859L132.646 165.431V164.322L136.092 163.145H137.062V173.95H140.369V175.266H132.473Z" fill="#191B1D" fill-opacity="0.6"/>
<path d="M1193.26 159.037H1248.67V179.815H1193.26V159.037Z" fill="#E1E2E4"/>
<path d="M1215.77 175.472C1214.86 175.472 1214.05 175.218 1213.35 174.711C1212.65 174.203 1212.11 173.481 1211.72 172.546C1211.34 171.611 1211.15 170.497 1211.15 169.204C1211.15 167.912 1211.34 166.798 1211.72 165.863C1212.11 164.928 1212.65 164.206 1213.35 163.698C1214.05 163.19 1214.86 162.936 1215.77 162.936C1216.69 162.936 1217.5 163.19 1218.19 163.698C1218.89 164.206 1219.42 164.928 1219.8 165.863C1220.2 166.798 1220.39 167.912 1220.39 169.204C1220.39 170.497 1220.2 171.611 1219.8 172.546C1219.42 173.481 1218.89 174.203 1218.19 174.711C1217.5 175.218 1216.69 175.472 1215.77 175.472ZM1212.64 169.204C1212.64 169.989 1212.72 170.699 1212.88 171.334C1213.05 171.957 1213.29 172.483 1213.59 172.91L1216.95 164.581C1216.59 164.385 1216.2 164.287 1215.77 164.287C1215.16 164.287 1214.62 164.489 1214.14 164.893C1213.67 165.285 1213.3 165.851 1213.03 166.59C1212.77 167.317 1212.64 168.189 1212.64 169.204ZM1215.77 174.139C1216.38 174.139 1216.92 173.943 1217.4 173.55C1217.87 173.146 1218.24 172.575 1218.51 171.836C1218.77 171.097 1218.9 170.22 1218.9 169.204C1218.9 168.419 1218.82 167.715 1218.64 167.092C1218.48 166.457 1218.25 165.926 1217.95 165.499L1214.58 173.845C1214.94 174.041 1215.34 174.139 1215.77 174.139ZM1222.24 175.265V174.122C1223.49 173.129 1224.57 172.217 1225.49 171.386C1226.43 170.555 1227.15 169.753 1227.66 168.979C1228.17 168.206 1228.42 167.415 1228.42 166.607C1228.42 165.88 1228.21 165.308 1227.8 164.893C1227.39 164.466 1226.84 164.252 1226.15 164.252C1225.62 164.252 1225.17 164.368 1224.8 164.599C1224.43 164.829 1224.16 165.135 1223.97 165.516C1223.79 165.897 1223.69 166.307 1223.69 166.746H1222.26C1222.27 165.949 1222.44 165.268 1222.78 164.702C1223.12 164.125 1223.58 163.687 1224.16 163.386C1224.75 163.086 1225.41 162.936 1226.15 162.936C1227.34 162.936 1228.26 163.265 1228.92 163.923C1229.58 164.581 1229.91 165.464 1229.91 166.572C1229.91 167.3 1229.75 167.998 1229.44 168.668C1229.13 169.326 1228.71 169.96 1228.2 170.572C1227.68 171.184 1227.09 171.773 1226.45 172.338C1225.8 172.904 1225.15 173.447 1224.49 173.966H1230.24V175.265H1222.24Z" fill="#191B1D" fill-opacity="0.6"/>
<rect x="1187.99" y="729.693" width="10.5434" height="10.5434" fill="#FAFAFA" stroke="#8F939B"/>
<rect x="2139.16" y="729.693" width="10.5434" height="10.5434" fill="#FAFAFA" stroke="#8F939B"/>
<rect x="1187.99" y="174.542" width="10.5434" height="10.5434" fill="#FAFAFA" stroke="#8F939B"/>
<rect x="2139.16" y="174.542" width="10.5434" height="10.5434" fill="#FAFAFA" stroke="#8F939B"/>
<rect x="98.2917" y="729.693" width="10.5434" height="10.5434" fill="#FAFAFA" stroke="#8F939B"/>
<rect x="98.2917" y="174.542" width="10.5434" height="10.5434" fill="#FAFAFA" stroke="#8F939B"/>
<rect x="1049.47" y="729.693" width="10.5434" height="10.5434" fill="#FAFAFA" stroke="#8F939B"/>
<rect x="1049.47" y="175.696" width="10.5434" height="10.5434" fill="#FAFAFA" stroke="#8F939B"/>
<path d="M519.797 653.436C519.422 652.637 518.87 651.71 518.142 650.653C522.251 649.455 525.468 648.164 527.793 646.778C525.774 644.876 523.918 642.152 522.228 638.607L522.721 638.36H521.101V635.577H539.135V638.571C537.209 642.047 535.096 644.794 532.795 646.814C535.073 648.176 538.031 649.291 541.671 650.16C541.178 651.123 540.673 652.085 540.157 653.048C535.859 651.733 532.56 650.313 530.259 648.786C527.629 650.547 524.142 652.097 519.797 653.436ZM521.664 634.521C521.007 633.722 520.314 632.959 519.586 632.231C521.3 631.386 522.451 630.54 523.038 629.695C523.601 628.873 523.883 627.64 523.883 625.997V622.967H537.339V628.638C537.339 629.272 537.468 629.719 537.726 629.977C537.961 630.212 538.407 630.329 539.065 630.329H541.918L541.495 633.147H537.937C535.566 633.194 534.38 632.125 534.38 629.942V625.75H526.772V626.701C526.772 628.603 526.408 630.106 525.68 631.21C524.952 632.337 523.613 633.44 521.664 634.521ZM515.253 651.287L513.316 649.068C513.88 648.27 514.162 647.389 514.162 646.426V635.084H510.745V632.266H517.05V645.193C518.224 643.949 519.292 642.775 520.255 641.671C520.701 642.963 521.077 643.914 521.382 644.524C520.373 645.487 518.846 647.095 516.803 649.35C516.122 650.125 515.606 650.77 515.253 651.287ZM525.222 638.36C526.725 641.201 528.427 643.432 530.329 645.053C532.372 643.456 534.227 641.225 535.894 638.36H525.222ZM517.191 629.378C516.064 627.852 514.561 625.95 512.682 623.672L515.183 622.052C517.531 624.752 519.093 626.584 519.868 627.546L517.191 629.378ZM556.289 635.472V632.372H565.13V621.629H568.265V632.372H577.036V635.472H568.265V653.33H565.13V635.472H556.289ZM550.935 652.978L548.786 650.512C549.561 649.667 549.949 648.61 549.949 647.342V635.331H546.039V632.407H553.013V647.025C555.174 645.499 556.852 644.278 558.05 643.362C558.285 644.583 558.602 645.698 559.001 646.708C556.676 648.281 554.504 649.855 552.485 651.428C551.78 652.062 551.264 652.579 550.935 652.978ZM553.436 629.272C551.604 627.135 549.937 625.28 548.434 623.707L550.794 621.84C552.015 623.014 553.753 624.799 556.007 627.194L553.436 629.272ZM583.552 653.471C582.613 652.626 581.826 651.956 581.192 651.463C582.742 649.819 583.763 648.27 584.256 646.814C584.75 645.334 584.996 643.103 584.996 640.121V635.507H609.054V646.074H606.201V644.665H587.603C587.415 646.52 587.016 648.093 586.405 649.385C585.818 650.653 584.867 652.015 583.552 653.471ZM581.756 627.265V624.588H595.458V621.523H598.452V624.588H612.153V627.265H598.452V630.329H609.688V632.865H584.186V630.329H595.458V627.265H581.756ZM587.814 640.227C587.814 641.119 587.802 641.777 587.779 642.199H595.598V637.973H587.814V640.227ZM606.201 637.973H598.452V642.199H606.201V637.973ZM629.131 653.471C628.333 652.743 627.452 652.003 626.489 651.252C628.485 649.279 629.883 647.248 630.681 645.158C631.573 642.833 631.996 639.44 631.949 634.979V623.003H645.827V648.364C645.827 649.96 645.534 651.087 644.947 651.745C644.336 652.449 643.221 652.849 641.6 652.943C640.027 653.037 638.559 653.083 637.197 653.083C636.986 651.886 636.751 650.806 636.493 649.843C637.644 649.937 638.959 649.984 640.438 649.984C642.082 650.054 642.88 649.291 642.833 647.694V642.587H634.52C634.192 644.771 633.605 646.696 632.759 648.364C631.984 649.89 630.775 651.592 629.131 653.471ZM618.036 650.054V623.777H628.462V647.412H620.818V650.054H618.036ZM634.943 635.225C634.943 637.127 634.896 638.701 634.802 639.945H642.833V634.168H634.943V635.225ZM634.943 625.82V631.527H642.833V625.82H634.943ZM620.818 644.63H625.715V636.881H620.818V644.63ZM620.818 626.595V634.168H625.715V626.595H620.818Z" fill="#191A1D" fill-opacity="0.85"/>
<path opacity="0.5" d="M485.026 685.047V683.206H491.371V675.384H493.235V683.206H499.362V685.047H493.235V696.961H491.371V685.047H485.026ZM478.633 688.146C478.375 687.5 478.108 686.847 477.834 686.185C480.256 683.182 482.153 679.582 483.525 675.384L485.389 675.893C484.679 677.83 483.92 679.598 483.113 681.196V696.961H481.345V684.393C480.49 685.716 479.586 686.968 478.633 688.146ZM505.005 696.041L504.012 694.031C504.851 693.611 505.691 692.981 506.53 692.142C510.227 688.477 513.738 684.175 517.064 679.235L518.856 680.397C515.127 685.499 511.341 689.97 507.499 693.813C511.325 693.603 515.151 693.393 518.977 693.183C517.702 691.359 516.491 689.68 515.345 688.146L516.895 687.178C519.106 690.116 521.141 692.893 522.997 695.508L521.326 696.67L520.164 694.927C514.4 695.217 510.243 695.459 507.693 695.653C506.498 695.766 505.602 695.895 505.005 696.041ZM503.552 687.783C503.293 687.444 502.841 686.919 502.195 686.209C504.1 684.756 505.901 683.045 507.596 681.075C509.194 679.218 510.59 677.281 511.785 675.263L513.553 676.304C512.051 678.597 510.518 680.655 508.952 682.48C507.224 684.498 505.424 686.265 503.552 687.783ZM529.584 684.465V676.183H544.598V684.465H529.584ZM526.751 687.952V686.427H547.552V687.952H538.302V690.374H545.954V691.827H538.302V694.539H538.399C540.417 694.588 543.532 694.596 547.746 694.563C547.569 695.129 547.415 695.685 547.286 696.234C543.718 696.234 540.748 696.202 538.374 696.138C536.518 696.089 535.049 695.807 533.967 695.29C532.853 694.757 531.917 693.877 531.158 692.65C530.48 694.297 529.261 695.79 527.501 697.13C527.404 697.034 527.017 696.598 526.339 695.823C527.679 694.757 528.631 693.748 529.196 692.796C529.762 691.827 530.197 690.463 530.504 688.703L532.175 688.97C532.127 689.292 531.981 689.946 531.739 690.931C532.805 692.997 534.419 694.144 536.582 694.37V687.952H526.751ZM531.352 680.954V683.037H542.806V680.954H531.352ZM531.352 677.636V679.671H542.806V677.636H531.352ZM558.74 694.733C557.82 693.861 556.9 692.989 555.98 692.118C555.027 693.651 553.647 695.185 551.839 696.719C551.548 696.364 551.144 695.887 550.628 695.29C552.42 693.902 553.792 692.465 554.745 690.979L551.5 688.146C552.097 685.644 552.557 683.4 552.88 681.414H550.894V679.743H553.146C553.292 678.888 553.501 677.386 553.776 675.239L555.592 675.384C555.398 676.724 555.164 678.177 554.89 679.743H558.886V681.463C558.547 685.418 557.868 688.453 556.851 690.568C557.917 691.488 558.982 692.4 560.048 693.304L558.74 694.733ZM559.491 686.911V685.168H565.061V681.995L569.056 678.29H560.29V676.595H571.236V678.46L566.901 682.625V685.168H572.011V686.911H566.901V693.692C566.901 694.709 566.683 695.443 566.247 695.895C565.828 696.331 565.101 696.573 564.068 696.622C563.422 696.654 562.51 696.67 561.331 696.67C561.154 695.54 561.049 694.911 561.017 694.781C561.549 694.83 562.397 694.854 563.559 694.854C564.108 694.854 564.496 694.733 564.722 694.491C564.948 694.249 565.061 693.837 565.061 693.256V686.911H559.491ZM557.215 681.414H554.599C554.115 683.981 553.671 686.056 553.267 687.638C554.058 688.267 554.809 688.881 555.519 689.478C556.44 687.412 557.005 684.724 557.215 681.414ZM592.2 687.371H589.633V684.756H592.2V687.371ZM618.517 697.009V687.589H629.22V697.009H627.501V695.75H620.236V697.009H618.517ZM610.598 690.301L610.114 688.727C610.582 688.421 611.171 687.799 611.882 686.863C612.317 686.314 612.971 685.361 613.843 684.005C612.245 684.07 611.026 684.151 610.186 684.247L609.726 682.625C610.162 682.237 610.606 681.697 611.058 681.002C612.366 678.952 613.407 677.023 614.182 675.215L615.974 675.796C614.602 678.266 613.189 680.526 611.736 682.576L614.787 682.48C615.094 681.995 615.522 681.253 616.071 680.252L617.669 680.93C615.651 684.11 613.94 686.621 612.535 688.461L616.846 688.098C616.781 688.485 616.733 689.002 616.701 689.648C614.182 689.857 612.729 689.987 612.342 690.035C611.954 690.083 611.373 690.172 610.598 690.301ZM620.236 689.163V694.152H627.501V689.163H620.236ZM617.839 684.223C617.451 683.464 617.145 682.932 616.919 682.625C619.841 680.768 622.012 678.226 623.433 674.997L625.249 675.239L624.837 676.014C625.79 677.596 626.734 678.863 627.67 679.816C628.558 680.736 629.697 681.616 631.085 682.455C630.875 682.762 630.544 683.311 630.092 684.102C627.412 682.294 625.386 680.098 624.014 677.515C623.174 678.936 622.278 680.163 621.326 681.196C620.406 682.197 619.243 683.206 617.839 684.223ZM619.389 684.78V683.206H628.3V684.78H619.389ZM610.017 695.435L609.678 693.643C612.842 693.191 615.344 692.78 617.185 692.408C617.153 692.893 617.136 693.482 617.136 694.176C614.489 694.58 612.116 694.999 610.017 695.435ZM634.282 680.615V678.871H644.404C644.242 678.403 643.823 677.289 643.145 675.53L645.106 675.166C645.72 676.652 646.172 677.822 646.462 678.678L645.59 678.871H654.938V680.615H641.91C641.877 682.084 641.821 683.376 641.74 684.49H652.177C652.097 687.347 651.951 689.922 651.741 692.215C651.612 693.748 651.217 694.814 650.555 695.411C649.909 695.992 648.827 696.299 647.31 696.331C646.293 696.364 645.082 696.38 643.677 696.38C643.597 695.766 643.468 695.129 643.29 694.467C644.452 694.515 645.663 694.539 646.922 694.539C647.972 694.539 648.706 694.346 649.126 693.958C649.546 693.571 649.812 692.844 649.925 691.779C650.103 690.229 650.216 688.38 650.264 686.233H641.571C641.312 688.735 640.747 690.762 639.875 692.311C638.988 693.877 637.494 695.484 635.395 697.13C634.911 696.646 634.427 696.162 633.942 695.677C636.074 694.063 637.535 692.537 638.326 691.101C639.101 689.712 639.601 687.735 639.827 685.168C639.94 683.763 640.013 682.246 640.045 680.615H634.282ZM659.587 696.743V678.411H666.029C666.384 677.2 666.659 676.111 666.852 675.142L668.79 675.36C668.402 676.748 668.103 677.766 667.894 678.411H678.016V693.643C678.016 694.66 677.806 695.395 677.386 695.847C676.95 696.315 676.224 696.565 675.207 696.598L672.131 696.67C672.035 696.089 671.913 695.451 671.768 694.757C672.801 694.822 673.73 694.854 674.553 694.854C675.183 694.854 675.627 694.733 675.885 694.491C676.127 694.265 676.248 693.877 676.248 693.328V680.106H661.355V696.743H659.587ZM664.382 691.633V683.4H673.197V691.633H664.382ZM666.102 684.998V690.035H671.502V684.998H666.102Z" fill="#484950"/>
<path d="M1621.22 644.806C1618.8 643.021 1617.55 642.105 1617.48 642.059C1616.97 644.055 1616.19 645.968 1615.16 647.8C1614.2 649.491 1612.86 651.334 1611.14 653.33C1610.32 652.532 1609.49 651.792 1608.64 651.111C1610.45 649.185 1611.83 647.424 1612.76 645.827C1613.75 644.16 1614.48 642.293 1614.95 640.227C1613.84 639.475 1612.44 638.56 1610.72 637.479L1612.38 635.26C1613.41 635.918 1614.43 636.564 1615.44 637.198C1615.63 635.131 1615.73 633.934 1615.76 633.605L1615.9 630.681H1612.13V627.793H1615.97C1616.02 625.304 1616.04 623.226 1616.04 621.558H1618.93C1618.91 623.648 1618.88 625.727 1618.86 627.793H1626.78C1626.71 630.376 1626.68 633.722 1626.68 637.832C1626.68 642.763 1626.87 646.215 1627.24 648.187C1627.38 649.009 1627.65 649.42 1628.05 649.42C1628.45 649.42 1628.72 649.009 1628.86 648.187C1629.1 646.919 1629.32 645.123 1629.53 642.798C1629.79 642.916 1630.56 643.197 1631.86 643.644C1631.57 645.898 1631.26 647.835 1630.9 649.455C1630.41 651.569 1629.41 652.626 1627.91 652.626C1626.97 652.626 1626.18 652.262 1625.55 651.534C1624.89 650.782 1624.48 649.761 1624.32 648.469C1623.9 645.158 1623.73 639.229 1623.82 630.681H1618.79L1618.65 633.746C1618.48 636.024 1618.31 637.738 1618.12 638.888C1618.87 639.358 1620.5 640.426 1623.01 642.094L1621.22 644.806ZM1600.58 630.364V627.582H1604.42V621.594H1607.27V627.582H1610.55V630.364H1607.27V636.74L1610.23 636.035C1610.23 637.186 1610.26 638.196 1610.33 639.065L1607.27 639.875V649.103C1607.27 650.418 1607.02 651.381 1606.53 651.992C1606.04 652.579 1605.21 652.919 1604.06 653.013C1603.48 653.037 1602.49 653.048 1601.11 653.048C1600.85 651.569 1600.65 650.536 1600.51 649.949C1601.59 649.996 1602.44 650.007 1603.08 649.984C1603.57 649.984 1603.91 649.866 1604.1 649.632C1604.31 649.373 1604.42 648.951 1604.42 648.364V640.685L1600.58 641.671L1600.33 638.29C1602.09 637.937 1603.45 637.656 1604.42 637.444V630.364H1600.58ZM1647.46 636.634V633.64H1666.69V636.634H1661.16V647.765C1661.16 649.479 1660.82 650.712 1660.14 651.463C1659.46 652.215 1658.26 652.626 1656.55 652.696C1655.21 652.766 1653.53 652.802 1651.51 652.802C1651.3 651.745 1651.09 650.688 1650.88 649.632C1652.66 649.725 1654.18 649.772 1655.42 649.772C1656.41 649.772 1657.09 649.585 1657.46 649.209C1657.84 648.833 1658.03 648.176 1658.03 647.236V636.634H1647.46ZM1636.61 643.679C1636.38 642.951 1636 641.941 1635.48 640.65C1638.49 638.067 1641.37 634.591 1644.11 630.223L1646.58 631.949C1645.87 633.03 1644.78 634.579 1643.3 636.599V653.365H1640.34V640.051C1639.36 641.107 1638.11 642.317 1636.61 643.679ZM1649.08 626.736V623.742H1665.14V626.736H1649.08ZM1637.46 632.654C1636.92 631.386 1636.45 630.411 1636.05 629.73C1639.01 627.406 1641.62 624.67 1643.9 621.523L1646.44 623.355C1643.6 626.901 1640.6 630 1637.46 632.654ZM1671.69 644.383V641.777H1684.87C1684.96 641.284 1685.04 640.626 1685.11 639.804H1688.11L1687.79 641.777H1701.03V644.383H1688.53C1689.77 646.144 1691.37 647.459 1693.32 648.328C1695.27 649.197 1698.05 649.843 1701.67 650.266C1701.41 650.782 1700.96 651.78 1700.33 653.26C1696.64 652.626 1693.73 651.733 1691.59 650.583C1689.43 649.432 1687.72 647.835 1686.45 645.792C1685.44 647.718 1683.83 649.279 1681.63 650.477C1679.47 651.651 1676.34 652.673 1672.26 653.541C1671.81 652.438 1671.36 651.451 1670.92 650.583C1674.86 649.949 1677.85 649.15 1679.87 648.187C1681.86 647.225 1683.25 645.957 1684.02 644.383H1671.69ZM1672.19 626.771V624.412H1677.68V621.594H1680.5V624.412H1685.61V626.771H1680.5V629.519H1685.04V631.738H1680.5V634.556H1685.85V636.916H1680.5V639.875H1677.68V636.916H1671.87V634.556H1677.68V631.738H1672.89V629.519H1677.68V626.771H1672.19ZM1692.3 638.747L1691.67 635.789C1693.12 635.836 1694.17 635.859 1694.8 635.859C1695.55 635.859 1696.09 635.695 1696.42 635.366C1696.77 635.037 1696.96 634.474 1696.98 633.675C1697.17 631.609 1697.27 629.073 1697.27 626.067H1692.97C1692.9 629.284 1692.49 631.832 1691.74 633.711C1691.01 635.566 1689.67 637.444 1687.72 639.346C1686.99 638.618 1686.25 637.984 1685.5 637.444C1687.26 635.871 1688.47 634.286 1689.13 632.689C1689.81 631.069 1690.17 628.861 1690.22 626.067H1687.05V623.531H1700.19C1700.12 626.936 1699.98 630.482 1699.77 634.168C1699.7 635.718 1699.38 636.822 1698.82 637.479C1698.23 638.137 1697.23 638.524 1695.82 638.642C1694.34 638.712 1693.17 638.747 1692.3 638.747ZM1720.09 635.084C1719.32 634.427 1718.54 633.769 1717.77 633.112C1720.37 629.636 1722.37 625.785 1723.75 621.558L1726.82 622.228C1726.21 623.801 1725.6 625.269 1724.99 626.631H1735.94C1735.82 634.239 1735.6 640.896 1735.27 646.602C1735.15 648.716 1734.67 650.195 1733.83 651.041C1732.96 651.909 1731.46 652.379 1729.32 652.449C1728 652.496 1726.18 652.52 1723.86 652.52C1723.7 651.205 1723.47 650.125 1723.19 649.279C1724.43 649.373 1726.3 649.42 1728.79 649.42C1730.04 649.42 1730.92 649.162 1731.43 648.645C1731.95 648.129 1732.25 647.213 1732.35 645.898C1732.65 640.286 1732.83 634.826 1732.88 629.519H1723.54C1722.6 631.351 1721.45 633.206 1720.09 635.084ZM1707.83 643.996L1706.88 641.248C1707.66 640.732 1708.46 639.922 1709.28 638.818C1710.22 637.526 1711.14 636.176 1712.06 634.767C1709.69 634.838 1707.94 634.955 1706.81 635.119L1705.97 632.513C1706.65 631.926 1707.29 631.127 1707.9 630.118C1709.73 627.159 1711.24 624.306 1712.41 621.558L1715.41 622.474C1713.64 625.903 1711.7 629.19 1709.56 632.337L1713.72 632.161C1714.23 631.315 1715.01 629.953 1716.04 628.075L1718.82 629.343C1716.38 633.452 1713.79 637.292 1711.04 640.861L1717.7 640.086C1717.58 641.213 1717.52 642.105 1717.52 642.763C1713.95 643.115 1711.51 643.385 1710.19 643.573C1710.03 643.597 1709.24 643.737 1707.83 643.996ZM1706.42 651.287L1705.97 648.258C1710.8 647.718 1715.03 647.166 1718.65 646.602C1718.55 647.448 1718.51 648.434 1718.51 649.561C1715.66 649.913 1711.64 650.489 1706.42 651.287ZM1725.9 643.256C1724.68 641.378 1723.06 639.029 1721.04 636.211L1723.3 634.662C1724.87 636.681 1726.57 638.971 1728.4 641.53L1725.9 643.256Z" fill="#191A1D" fill-opacity="0.85"/>
<path opacity="0.5" d="M1569.6 683.787C1569.12 683.271 1568.67 682.835 1568.25 682.48C1570.43 680.349 1572.07 677.911 1573.19 675.166L1575.08 675.312C1574.69 676.2 1574.34 676.918 1574.04 677.467H1588.42V679.041H1576.82V681.366H1586.89V682.867H1576.82V685.192H1587.11V686.669H1576.82V688.17H1575.03V679.041H1573.19C1572.19 680.72 1570.99 682.302 1569.6 683.787ZM1576.34 696.477C1575.32 696.477 1574.58 696.234 1574.11 695.75C1573.62 695.25 1573.38 694.475 1573.38 693.425V689.042H1575.12V693.038C1575.12 693.716 1575.26 694.184 1575.54 694.442C1575.81 694.701 1576.29 694.83 1576.97 694.83H1580.55C1581.21 694.83 1581.7 694.717 1582.03 694.491C1582.33 694.281 1582.55 693.926 1582.68 693.425C1582.83 692.796 1582.95 692.061 1583.04 691.222C1583.33 691.351 1583.92 691.553 1584.79 691.827C1584.61 692.747 1584.42 693.579 1584.21 694.321C1583.96 695.08 1583.6 695.621 1583.12 695.944C1582.6 696.299 1581.88 696.477 1580.96 696.477H1576.34ZM1569.75 695.266C1569.26 695.024 1568.73 694.798 1568.15 694.588C1568.88 692.957 1569.55 691.101 1570.16 689.018L1571.78 689.502C1571.19 691.456 1570.51 693.377 1569.75 695.266ZM1587.84 694.588C1586.43 692.376 1585.36 690.762 1584.62 689.744L1586.05 688.873C1587.22 690.487 1588.33 692.077 1589.36 693.643L1587.84 694.588ZM1579.73 692.529C1578.87 691.319 1578.01 690.18 1577.13 689.115L1578.44 688.195C1579.46 689.389 1580.36 690.471 1581.13 691.44L1579.73 692.529ZM1594.98 696.041L1593.99 694.031C1594.83 693.611 1595.67 692.981 1596.51 692.142C1600.2 688.477 1603.72 684.175 1607.04 679.235L1608.83 680.397C1605.1 685.499 1601.32 689.97 1597.48 693.813C1601.3 693.603 1605.13 693.393 1608.95 693.183C1607.68 691.359 1606.47 689.68 1605.32 688.146L1606.87 687.178C1609.08 690.116 1611.12 692.893 1612.97 695.508L1611.3 696.67L1610.14 694.927C1604.38 695.217 1600.22 695.459 1597.67 695.653C1596.48 695.766 1595.58 695.895 1594.98 696.041ZM1593.53 687.783C1593.27 687.444 1592.82 686.919 1592.17 686.209C1594.08 684.756 1595.88 683.045 1597.57 681.075C1599.17 679.218 1600.57 677.281 1601.76 675.263L1603.53 676.304C1602.03 678.597 1600.5 680.655 1598.93 682.48C1597.2 684.498 1595.4 686.265 1593.53 687.783ZM1636.76 696.719C1635.32 695.379 1634.19 694.079 1633.36 692.82C1632.49 694.144 1631.21 695.564 1629.51 697.082C1629.05 696.436 1628.67 695.952 1628.38 695.629C1630.17 694.063 1631.52 692.578 1632.42 691.173C1631.55 689.381 1630.95 687.04 1630.63 684.151C1630.26 684.845 1629.92 685.442 1629.61 685.943C1629.32 685.442 1629.03 684.934 1628.74 684.417C1630.26 681.753 1631.36 678.702 1632.06 675.263L1633.7 675.457C1633.33 676.958 1632.95 678.282 1632.57 679.428H1637.65V680.978H1636.59C1636.29 685.369 1635.54 688.776 1634.31 691.197C1635.15 692.521 1636.32 693.805 1637.82 695.048C1637.43 695.581 1637.08 696.138 1636.76 696.719ZM1621.52 681.317V679.743H1624.7V675.336H1626.34V679.743H1629.47V681.317H1626.34V685.603H1628.72V693.934H1623.85V695.387H1622.3V685.603H1624.7V681.317H1621.52ZM1618.76 696.985V684.005C1618.13 685.345 1617.5 686.532 1616.85 687.565C1616.78 687.194 1616.58 686.459 1616.24 685.361C1617.86 682.601 1619.17 679.243 1620.19 675.287L1621.84 675.626C1621.47 677.015 1620.97 678.549 1620.36 680.227V696.985H1618.76ZM1633.36 689.405C1634.24 687.436 1634.78 684.627 1634.99 680.978H1632.01L1631.79 681.535C1632.08 684.942 1632.61 687.565 1633.36 689.405ZM1623.85 687.153V692.408H1627.19V687.153H1623.85ZM1642.78 685.289V677.443H1644.58V683.545H1650.34V675.36H1652.18V683.545H1657.94V677.443H1659.74V685.289H1652.18V694.128H1658.62V687.928H1660.41V696.719H1658.62V695.847H1642.11V687.928H1643.9V694.128H1650.34V685.289H1642.78ZM1682.18 687.371H1679.61V684.756H1682.18V687.371ZM1708.49 697.009V687.589H1719.2V697.009H1717.48V695.75H1710.21V697.009H1708.49ZM1700.58 690.301L1700.09 688.727C1700.56 688.421 1701.15 687.799 1701.86 686.863C1702.3 686.314 1702.95 685.361 1703.82 684.005C1702.22 684.07 1701 684.151 1700.16 684.247L1699.7 682.625C1700.14 682.237 1700.58 681.697 1701.04 681.002C1702.34 678.952 1703.38 677.023 1704.16 675.215L1705.95 675.796C1704.58 678.266 1703.17 680.526 1701.71 682.576L1704.77 682.48C1705.07 681.995 1705.5 681.253 1706.05 680.252L1707.65 680.93C1705.63 684.11 1703.92 686.621 1702.51 688.461L1706.82 688.098C1706.76 688.485 1706.71 689.002 1706.68 689.648C1704.16 689.857 1702.71 689.987 1702.32 690.035C1701.93 690.083 1701.35 690.172 1700.58 690.301ZM1710.21 689.163V694.152H1717.48V689.163H1710.21ZM1707.82 684.223C1707.43 683.464 1707.12 682.932 1706.9 682.625C1709.82 680.768 1711.99 678.226 1713.41 674.997L1715.23 675.239L1714.81 676.014C1715.77 677.596 1716.71 678.863 1717.65 679.816C1718.54 680.736 1719.67 681.616 1721.06 682.455C1720.85 682.762 1720.52 683.311 1720.07 684.102C1717.39 682.294 1715.36 680.098 1713.99 677.515C1713.15 678.936 1712.26 680.163 1711.3 681.196C1710.38 682.197 1709.22 683.206 1707.82 684.223ZM1709.37 684.78V683.206H1718.28V684.78H1709.37ZM1699.99 695.435L1699.66 693.643C1702.82 693.191 1705.32 692.78 1707.16 692.408C1707.13 692.893 1707.11 693.482 1707.11 694.176C1704.47 694.58 1702.09 694.999 1699.99 695.435ZM1725.13 683.4V676.377H1732.06V683.4H1730.02V687.056H1732.3V688.606H1730.02V693.183L1732.66 692.723C1732.66 693.563 1732.67 694.16 1732.69 694.515C1730.22 694.886 1727.39 695.363 1724.21 695.944L1723.92 694.079C1724.49 694.015 1724.88 693.958 1725.11 693.91V685.652H1726.51V693.716C1727.17 693.651 1727.83 693.554 1728.47 693.425V683.4H1725.13ZM1744.58 687.759C1742.24 686.984 1740.37 686.088 1738.98 685.071C1737.48 686.152 1735.56 687.129 1733.22 688.001C1733.01 687.484 1732.76 686.968 1732.47 686.451C1734.7 685.676 1736.44 684.861 1737.7 684.005C1736.84 683.182 1736.01 682.052 1735.2 680.615C1734.62 681.438 1734.07 682.173 1733.53 682.819C1733.19 682.383 1732.86 681.947 1732.52 681.511C1734.05 679.671 1735.33 677.539 1736.37 675.118L1738.14 675.457L1737.09 677.491H1743.92V679.162C1742.82 681.228 1741.62 682.851 1740.31 684.029C1741.59 684.869 1743.24 685.563 1745.28 686.112C1745.05 686.661 1744.82 687.21 1744.58 687.759ZM1734.09 697.034V688.34H1743.56V697.034H1741.89V695.653H1735.74V697.034H1734.09ZM1735.74 689.914V694.079H1741.89V689.914H1735.74ZM1726.71 677.903V681.874H1730.48V677.903H1726.71ZM1742.11 679.065H1736.2L1736.13 679.186C1736.95 680.784 1737.9 682.068 1738.98 683.037C1740.19 682.003 1741.23 680.68 1742.11 679.065ZM1755.67 689.187V687.517H1768.26V689.187H1762.93V694.249H1769.45V695.92H1754.46V694.249H1761.14V689.187H1755.67ZM1755.3 686.572C1755.13 686.185 1754.83 685.644 1754.41 684.95C1757.12 683.965 1759.29 682.964 1760.92 681.947C1762.52 680.962 1764.01 679.711 1765.38 678.193H1756.1V676.547H1767.49V678.339C1766.32 679.759 1765.1 680.978 1763.8 681.995C1765.22 682.706 1767.13 683.723 1769.52 685.047L1768.45 686.572C1766.44 685.361 1764.42 684.175 1762.4 683.012C1760.53 684.288 1758.16 685.474 1755.3 686.572ZM1748.69 690.205C1748.66 690.108 1748.43 689.51 1747.99 688.413C1750.11 686.443 1752 683.973 1753.68 681.002L1755.21 681.923C1754.37 683.295 1753.56 684.514 1752.79 685.579V697.009H1751.04V687.735C1750.27 688.639 1749.48 689.462 1748.69 690.205ZM1749.1 682.698C1749.04 682.488 1748.78 681.89 1748.33 680.906C1750.49 679.146 1752.24 677.257 1753.56 675.239L1755.06 676.256C1753.29 678.678 1751.3 680.825 1749.1 682.698Z" fill="#484950"/>
</svg>
