<svg width="2000" height="1128" viewBox="0 0 2000 1128" fill="none" xmlns="http://www.w3.org/2000/svg">
<rect width="2000" height="1128" fill="black"/>
<rect x="185.091" y="343.033" width="423.884" height="293.997" stroke="#C7C8CC"/>
<rect x="185.091" y="343.033" width="423.884" height="441.496" stroke="#C7C8CC"/>
<path d="M361.862 706.655C359.822 706.655 358.058 706.271 356.57 705.503C355.082 704.711 353.93 703.619 353.114 702.227C352.322 700.811 351.926 699.167 351.926 697.295V681.095H356.462V697.295C356.462 698.423 356.678 699.407 357.11 700.247C357.566 701.063 358.202 701.699 359.018 702.155C359.834 702.611 360.782 702.839 361.862 702.839C362.966 702.839 363.914 702.611 364.706 702.155C365.522 701.699 366.146 701.063 366.578 700.247C367.034 699.407 367.262 698.423 367.262 697.295V681.095H371.834V697.295C371.834 699.167 371.426 700.811 370.61 702.227C369.794 703.619 368.642 704.711 367.154 705.503C365.666 706.271 363.902 706.655 361.862 706.655ZM385.564 706.655C383.572 706.655 381.844 706.283 380.38 705.539C378.94 704.771 377.824 703.691 377.032 702.299C376.264 700.883 375.88 699.191 375.88 697.223H380.344C380.344 699.047 380.788 700.451 381.676 701.435C382.588 702.395 383.872 702.875 385.528 702.875C386.92 702.875 388.024 702.563 388.84 701.939C389.68 701.315 390.1 700.439 390.1 699.311C390.1 698.495 389.848 697.859 389.344 697.403C388.864 696.923 388.204 696.527 387.364 696.215C386.548 695.903 385.648 695.627 384.664 695.387C383.68 695.123 382.696 694.835 381.712 694.523C380.728 694.187 379.816 693.755 378.976 693.227C378.16 692.699 377.5 692.015 376.996 691.175C376.492 690.311 376.24 689.219 376.24 687.899C376.24 686.507 376.612 685.271 377.356 684.191C378.1 683.111 379.144 682.259 380.488 681.635C381.832 680.987 383.404 680.663 385.204 680.663C386.932 680.663 388.492 680.987 389.884 681.635C391.3 682.283 392.428 683.207 393.268 684.407C394.132 685.583 394.576 687.023 394.6 688.727H390.064C390.04 687.815 389.8 687.047 389.344 686.423C388.912 685.775 388.324 685.283 387.58 684.947C386.86 684.611 386.068 684.443 385.204 684.443C383.98 684.443 382.96 684.743 382.144 685.343C381.352 685.919 380.956 686.735 380.956 687.791C380.956 688.535 381.208 689.123 381.712 689.555C382.216 689.987 382.876 690.347 383.692 690.635C384.532 690.899 385.444 691.151 386.428 691.391C387.412 691.631 388.384 691.919 389.344 692.255C390.328 692.567 391.228 693.011 392.044 693.587C392.884 694.139 393.556 694.871 394.06 695.783C394.564 696.695 394.816 697.859 394.816 699.275C394.816 700.763 394.408 702.059 393.592 703.163C392.8 704.267 391.708 705.131 390.316 705.755C388.924 706.355 387.34 706.655 385.564 706.655ZM399.87 706.223V681.095H418.086V684.875H404.37V691.319H413.622V695.099H404.37V702.443H418.23V706.223H399.87ZM426.416 696.071V692.327H432.572C433.508 692.327 434.336 692.171 435.056 691.859C435.776 691.523 436.34 691.067 436.748 690.491C437.156 689.891 437.36 689.207 437.36 688.439C437.36 687.695 437.18 687.059 436.82 686.531C436.46 686.003 435.968 685.595 435.344 685.307C434.72 685.019 434.012 684.875 433.22 684.875H426.416V681.095H433.22C434.924 681.095 436.436 681.383 437.756 681.959C439.1 682.535 440.156 683.375 440.924 684.479C441.692 685.559 442.076 686.879 442.076 688.439C442.076 689.399 441.848 690.335 441.392 691.247C440.936 692.159 440.288 692.987 439.448 693.731C438.608 694.451 437.588 695.027 436.388 695.459C435.188 695.867 433.832 696.071 432.32 696.071H426.416ZM423.176 706.223V681.095H427.712V706.223H423.176ZM437.36 706.223C437.264 705.119 437 704.027 436.568 702.947C436.136 701.843 435.524 700.787 434.732 699.779C433.964 698.771 433.016 697.847 431.888 697.007C430.76 696.143 429.44 695.399 427.928 694.775L432.968 693.695C434.48 694.463 435.788 695.327 436.892 696.287C437.996 697.247 438.908 698.279 439.628 699.383C440.372 700.463 440.936 701.591 441.32 702.767C441.704 703.919 441.932 705.071 442.004 706.223H437.36Z" fill="#FAFAFA"/>
<path d="M314.843 742.349C313.727 742.349 312.749 742.079 311.909 741.539C311.081 740.999 310.439 740.243 309.983 739.271C309.527 738.299 309.299 737.159 309.299 735.851C309.299 734.567 309.533 733.439 310.001 732.467C310.469 731.483 311.117 730.721 311.945 730.181C312.785 729.629 313.751 729.353 314.843 729.353C315.707 729.353 316.475 729.521 317.147 729.857C317.819 730.193 318.365 730.679 318.785 731.315C319.205 731.939 319.457 732.689 319.541 733.565H317.795C317.699 732.689 317.381 731.993 316.841 731.477C316.313 730.961 315.635 730.703 314.807 730.703C314.087 730.703 313.433 730.913 312.845 731.333C312.269 731.753 311.807 732.347 311.459 733.115C311.123 733.871 310.955 734.783 310.955 735.851C310.955 736.967 311.129 737.909 311.477 738.677C311.825 739.433 312.299 740.009 312.899 740.405C313.511 740.801 314.189 740.999 314.933 740.999C315.605 740.999 316.199 740.873 316.715 740.621C317.243 740.369 317.669 740.057 317.993 739.685V736.823L315.617 736.895L315.671 735.527H319.541V740.153C319.049 740.837 318.389 741.377 317.561 741.773C316.745 742.157 315.839 742.349 314.843 742.349ZM325.524 742.349C324.468 742.349 323.55 742.085 322.77 741.557C321.99 741.017 321.384 740.261 320.952 739.289C320.532 738.305 320.322 737.159 320.322 735.851C320.322 734.531 320.532 733.385 320.952 732.413C321.384 731.441 321.99 730.691 322.77 730.163C323.55 729.623 324.468 729.353 325.524 729.353C326.58 729.353 327.498 729.623 328.278 730.163C329.058 730.691 329.658 731.441 330.078 732.413C330.51 733.385 330.726 734.531 330.726 735.851C330.726 737.159 330.51 738.305 330.078 739.289C329.658 740.261 329.058 741.017 328.278 741.557C327.498 742.085 326.58 742.349 325.524 742.349ZM325.524 740.999C326.244 740.999 326.868 740.789 327.396 740.369C327.936 739.949 328.35 739.355 328.638 738.587C328.938 737.807 329.088 736.895 329.088 735.851C329.088 734.807 328.938 733.901 328.638 733.133C328.35 732.365 327.936 731.771 327.396 731.351C326.868 730.919 326.244 730.703 325.524 730.703C324.804 730.703 324.174 730.919 323.634 731.351C323.106 731.771 322.692 732.365 322.392 733.133C322.092 733.901 321.942 734.807 321.942 735.851C321.942 736.895 322.092 737.807 322.392 738.587C322.692 739.355 323.106 739.949 323.634 740.369C324.174 740.789 324.804 740.999 325.524 740.999ZM333.145 738.731V737.381H339.967V738.731H333.145ZM335.395 729.569H337.573L341.695 742.133H340.093L337.249 733.421L336.493 730.883L335.737 733.439L332.875 742.133H331.291L335.395 729.569ZM343.772 742.133V729.569H345.32V740.783H352.07V742.133H343.772ZM358.665 742.349C357.717 742.349 356.883 742.169 356.163 741.809C355.455 741.449 354.903 740.921 354.507 740.225C354.111 739.529 353.913 738.683 353.913 737.687H355.461C355.461 738.743 355.749 739.559 356.325 740.135C356.901 740.711 357.681 740.999 358.665 740.999C359.493 740.999 360.165 740.807 360.681 740.423C361.209 740.027 361.473 739.475 361.473 738.767C361.473 738.299 361.335 737.921 361.059 737.633C360.795 737.333 360.441 737.099 359.997 736.931C359.565 736.751 359.091 736.595 358.575 736.463C358.059 736.319 357.537 736.169 357.009 736.013C356.493 735.845 356.013 735.641 355.569 735.401C355.137 735.149 354.789 734.819 354.525 734.411C354.261 734.003 354.129 733.481 354.129 732.845C354.129 732.161 354.303 731.555 354.651 731.027C355.011 730.499 355.509 730.091 356.145 729.803C356.793 729.503 357.555 729.353 358.431 729.353C359.283 729.353 360.045 729.509 360.717 729.821C361.389 730.133 361.923 730.577 362.319 731.153C362.715 731.717 362.925 732.395 362.949 733.187H361.383C361.371 732.683 361.233 732.245 360.969 731.873C360.705 731.501 360.351 731.213 359.907 731.009C359.475 730.805 358.983 730.703 358.431 730.703C357.627 730.703 356.979 730.895 356.487 731.279C356.007 731.651 355.767 732.155 355.767 732.791C355.767 733.223 355.899 733.571 356.163 733.835C356.427 734.099 356.775 734.315 357.207 734.483C357.651 734.639 358.131 734.783 358.647 734.915C359.175 735.047 359.697 735.197 360.213 735.365C360.741 735.521 361.221 735.731 361.653 735.995C362.097 736.259 362.451 736.613 362.715 737.057C362.979 737.501 363.111 738.065 363.111 738.749C363.111 739.493 362.913 740.135 362.517 740.675C362.133 741.215 361.605 741.629 360.933 741.917C360.261 742.205 359.505 742.349 358.665 742.349ZM379.649 742.133V729.569H381.215V742.133H379.649ZM376.427 729.569H384.437V730.919H376.427V729.569ZM376.427 740.783H384.437V742.133H376.427V740.783ZM386.874 742.133V729.569H388.782L394.596 740.045L394.47 736.391V729.569H396V742.133H394.092L388.26 731.747L388.404 735.293V742.133H386.874ZM401.623 742.133V730.919H397.447V729.569H407.365V730.919H403.189V742.133H401.623ZM409.1 742.133V729.569H418.028V730.919H410.666V734.951H415.832V736.301H410.666V740.783H418.1V742.133H409.1ZM419.835 742.133V729.569H421.743L427.557 740.045L427.431 736.391V729.569H428.961V742.133H427.053L421.221 731.747L421.365 735.293V742.133H419.835ZM434.584 742.133V730.919H430.408V729.569H440.326V730.919H436.15V742.133H434.584ZM445.571 742.133V729.569H447.137V742.133H445.571ZM442.349 729.569H450.359V730.919H442.349V729.569ZM442.349 740.783H450.359V742.133H442.349V740.783ZM457.368 742.349C456.312 742.349 455.394 742.085 454.614 741.557C453.834 741.017 453.228 740.261 452.796 739.289C452.376 738.305 452.166 737.159 452.166 735.851C452.166 734.531 452.376 733.385 452.796 732.413C453.228 731.441 453.834 730.691 454.614 730.163C455.394 729.623 456.312 729.353 457.368 729.353C458.424 729.353 459.342 729.623 460.122 730.163C460.902 730.691 461.502 731.441 461.922 732.413C462.354 733.385 462.57 734.531 462.57 735.851C462.57 737.159 462.354 738.305 461.922 739.289C461.502 740.261 460.902 741.017 460.122 741.557C459.342 742.085 458.424 742.349 457.368 742.349ZM457.368 740.999C458.088 740.999 458.712 740.789 459.24 740.369C459.78 739.949 460.194 739.355 460.482 738.587C460.782 737.807 460.932 736.895 460.932 735.851C460.932 734.807 460.782 733.901 460.482 733.133C460.194 732.365 459.78 731.771 459.24 731.351C458.712 730.919 458.088 730.703 457.368 730.703C456.648 730.703 456.018 730.919 455.478 731.351C454.95 731.771 454.536 732.365 454.236 733.133C453.936 733.901 453.786 734.807 453.786 735.851C453.786 736.895 453.936 737.807 454.236 738.587C454.536 739.355 454.95 739.949 455.478 740.369C456.018 740.789 456.648 740.999 457.368 740.999ZM463.783 742.133V729.569H465.691L471.505 740.045L471.379 736.391V729.569H472.909V742.133H471.001L465.169 731.747L465.313 735.293V742.133H463.783ZM479.522 742.349C478.574 742.349 477.74 742.169 477.02 741.809C476.312 741.449 475.76 740.921 475.364 740.225C474.968 739.529 474.77 738.683 474.77 737.687H476.318C476.318 738.743 476.606 739.559 477.182 740.135C477.758 740.711 478.538 740.999 479.522 740.999C480.35 740.999 481.022 740.807 481.538 740.423C482.066 740.027 482.33 739.475 482.33 738.767C482.33 738.299 482.192 737.921 481.916 737.633C481.652 737.333 481.298 737.099 480.854 736.931C480.422 736.751 479.948 736.595 479.432 736.463C478.916 736.319 478.394 736.169 477.866 736.013C477.35 735.845 476.87 735.641 476.426 735.401C475.994 735.149 475.646 734.819 475.382 734.411C475.118 734.003 474.986 733.481 474.986 732.845C474.986 732.161 475.16 731.555 475.508 731.027C475.868 730.499 476.366 730.091 477.002 729.803C477.65 729.503 478.412 729.353 479.288 729.353C480.14 729.353 480.902 729.509 481.574 729.821C482.246 730.133 482.78 730.577 483.176 731.153C483.572 731.717 483.782 732.395 483.806 733.187H482.24C482.228 732.683 482.09 732.245 481.826 731.873C481.562 731.501 481.208 731.213 480.764 731.009C480.332 730.805 479.84 730.703 479.288 730.703C478.484 730.703 477.836 730.895 477.344 731.279C476.864 731.651 476.624 732.155 476.624 732.791C476.624 733.223 476.756 733.571 477.02 733.835C477.284 734.099 477.632 734.315 478.064 734.483C478.508 734.639 478.988 734.783 479.504 734.915C480.032 735.047 480.554 735.197 481.07 735.365C481.598 735.521 482.078 735.731 482.51 735.995C482.954 736.259 483.308 736.613 483.572 737.057C483.836 737.501 483.968 738.065 483.968 738.749C483.968 739.493 483.77 740.135 483.374 740.675C482.99 741.215 482.462 741.629 481.79 741.917C481.118 742.205 480.362 742.349 479.522 742.349Z" fill="#8E929A"/>
<rect x="180.5" y="338.402" width="10.0074" height="10.0074" fill="black" stroke="#C7C8CC"/>
<rect x="180.5" y="780.463" width="10.0074" height="10.0074" fill="black" stroke="#C7C8CC"/>
<rect x="1390.11" y="343.033" width="423.884" height="293.997" stroke="#C7C8CC"/>
<rect x="1390.11" y="343.033" width="423.884" height="441.496" stroke="#C7C8CC"/>
<path d="M1554.18 721.285L1564.55 696.085H1567.43L1577.73 721.285H1573.26L1565.2 700.873H1566.71L1558.58 721.285H1554.18ZM1559.3 716.425V712.825H1572.65V716.425H1559.3ZM1586.97 728.845C1585.15 728.845 1583.55 728.509 1582.19 727.837C1580.82 727.189 1579.71 726.265 1578.87 725.065L1581.47 722.473C1582.16 723.337 1582.95 723.985 1583.84 724.417C1584.73 724.849 1585.8 725.065 1587.05 725.065C1588.61 725.065 1589.84 724.657 1590.75 723.841C1591.67 723.049 1592.12 721.957 1592.12 720.565V716.317L1592.81 712.501L1592.12 708.649V704.005H1596.08V720.565C1596.08 722.221 1595.7 723.661 1594.93 724.885C1594.16 726.133 1593.09 727.105 1591.73 727.801C1590.36 728.497 1588.77 728.845 1586.97 728.845ZM1586.79 720.925C1585.26 720.925 1583.87 720.553 1582.62 719.809C1581.39 719.041 1580.42 717.997 1579.7 716.677C1579.01 715.357 1578.66 713.881 1578.66 712.249C1578.66 710.617 1579.01 709.153 1579.7 707.857C1580.42 706.561 1581.39 705.541 1582.62 704.797C1583.87 704.029 1585.26 703.645 1586.79 703.645C1588.16 703.645 1589.36 703.921 1590.39 704.473C1591.43 705.025 1592.23 705.793 1592.81 706.777C1593.38 707.737 1593.67 708.865 1593.67 710.161V714.409C1593.67 715.681 1593.37 716.809 1592.77 717.793C1592.19 718.777 1591.39 719.545 1590.36 720.097C1589.33 720.649 1588.14 720.925 1586.79 720.925ZM1587.59 717.181C1588.55 717.181 1589.39 716.977 1590.11 716.569C1590.83 716.161 1591.38 715.597 1591.76 714.877C1592.17 714.133 1592.37 713.269 1592.37 712.285C1592.37 711.301 1592.17 710.449 1591.76 709.729C1591.38 708.985 1590.83 708.409 1590.11 708.001C1589.39 707.593 1588.55 707.389 1587.59 707.389C1586.63 707.389 1585.77 707.593 1585.03 708.001C1584.31 708.409 1583.75 708.985 1583.34 709.729C1582.93 710.449 1582.73 711.301 1582.73 712.285C1582.73 713.245 1582.93 714.097 1583.34 714.841C1583.75 715.585 1584.31 716.161 1585.03 716.569C1585.77 716.977 1586.63 717.181 1587.59 717.181ZM1608.51 721.645C1606.78 721.645 1605.22 721.261 1603.83 720.493C1602.46 719.701 1601.37 718.621 1600.55 717.253C1599.76 715.885 1599.37 714.349 1599.37 712.645C1599.37 710.941 1599.76 709.417 1600.55 708.073C1601.35 706.705 1602.41 705.625 1603.76 704.833C1605.13 704.041 1606.64 703.645 1608.29 703.645C1609.9 703.645 1611.32 704.017 1612.54 704.761C1613.79 705.505 1614.76 706.525 1615.46 707.821C1616.18 709.117 1616.54 710.593 1616.54 712.249C1616.54 712.537 1616.51 712.837 1616.47 713.149C1616.44 713.437 1616.39 713.761 1616.32 714.121H1602.14V710.881H1614.27L1612.79 712.177C1612.75 711.121 1612.54 710.233 1612.18 709.513C1611.82 708.793 1611.31 708.241 1610.63 707.857C1609.99 707.473 1609.18 707.281 1608.22 707.281C1607.21 707.281 1606.34 707.497 1605.59 707.929C1604.85 708.361 1604.27 708.973 1603.87 709.765C1603.46 710.533 1603.25 711.457 1603.25 712.537C1603.25 713.617 1603.47 714.565 1603.9 715.381C1604.33 716.197 1604.95 716.833 1605.74 717.289C1606.53 717.721 1607.44 717.937 1608.47 717.937C1609.36 717.937 1610.18 717.781 1610.92 717.469C1611.69 717.157 1612.34 716.701 1612.87 716.101L1615.39 718.657C1614.55 719.641 1613.53 720.385 1612.33 720.889C1611.13 721.393 1609.85 721.645 1608.51 721.645ZM1631.56 721.285V711.313C1631.56 710.161 1631.18 709.213 1630.44 708.469C1629.72 707.725 1628.78 707.353 1627.63 707.353C1626.86 707.353 1626.18 707.521 1625.58 707.857C1624.98 708.193 1624.51 708.661 1624.18 709.261C1623.84 709.861 1623.67 710.545 1623.67 711.313L1622.12 710.449C1622.12 709.129 1622.41 707.965 1622.99 706.957C1623.56 705.925 1624.36 705.121 1625.36 704.545C1626.4 703.945 1627.55 703.645 1628.82 703.645C1630.12 703.645 1631.27 703.981 1632.28 704.653C1633.28 705.301 1634.08 706.153 1634.65 707.209C1635.23 708.241 1635.52 709.321 1635.52 710.449V721.285H1631.56ZM1619.71 721.285V704.005H1623.67V721.285H1619.71ZM1641.96 721.285V696.805H1645.92V721.285H1641.96ZM1637.82 707.605V704.005H1650.06V707.605H1637.82Z" fill="#FAFAFA"/>
<rect x="1809.49" y="337.529" width="10.0074" height="10.0074" fill="black" stroke="#C7C8CC"/>
<rect x="1809.49" y="779.59" width="10.0074" height="10.0074" fill="black" stroke="#C7C8CC"/>
<rect x="-0.5" y="0.5" width="781.145" height="441.496" transform="matrix(-1 0 0 1 1389.62 342.533)" stroke="#C7C8CC"/>
<path d="M740.917 575.281V552.945H743.669V575.281H740.917ZM727.541 575.281V552.945H730.293V575.281H727.541ZM729.877 564.913V562.513H741.333V564.913H729.877ZM749.858 557.745V568.881C749.858 570.225 750.242 571.313 751.01 572.145C751.799 572.977 752.834 573.393 754.114 573.393C755.543 573.393 756.812 572.86 757.922 571.793C759.031 570.705 759.842 569.063 760.354 566.865L760.834 570.289C760.194 572.039 759.234 573.372 757.954 574.289C756.695 575.207 755.287 575.665 753.73 575.665C752.407 575.665 751.255 575.388 750.274 574.833C749.314 574.257 748.556 573.468 748.002 572.465C747.468 571.463 747.202 570.289 747.202 568.945V557.745H749.858ZM762.658 557.745V575.281H760.162L760.002 571.057V557.745H762.658ZM780.91 575.281V562.321C780.91 561.447 780.75 560.775 780.43 560.305C780.131 559.836 779.673 559.601 779.054 559.601C778.179 559.601 777.401 560.145 776.718 561.233C776.035 562.321 775.577 563.975 775.342 566.193L775.054 563.377C775.182 561.457 775.683 559.975 776.558 558.929C777.433 557.884 778.467 557.361 779.662 557.361C780.835 557.361 781.753 557.777 782.414 558.609C783.075 559.441 783.406 560.625 783.406 562.161V575.281H780.91ZM765.934 575.281V557.745H768.27L768.398 561.201V575.281H765.934ZM773.422 575.281V562.321C773.422 561.425 773.251 560.753 772.91 560.305C772.59 559.836 772.11 559.601 771.47 559.601C770.574 559.601 769.795 560.156 769.134 561.265C768.473 562.375 768.025 564.017 767.79 566.193L767.694 563.313C767.779 562.055 768.025 560.988 768.43 560.113C768.857 559.217 769.39 558.535 770.03 558.065C770.691 557.596 771.385 557.361 772.11 557.361C773.326 557.361 774.254 557.788 774.894 558.641C775.555 559.495 775.886 560.668 775.886 562.161V575.281H773.422ZM799.195 575.281L799.067 571.025V563.921C799.067 562.535 798.619 561.447 797.723 560.657C796.827 559.847 795.611 559.441 794.075 559.441C792.581 559.441 791.355 559.793 790.395 560.497C789.456 561.18 788.944 562.129 788.859 563.345H786.267C786.352 562.087 786.736 561.02 787.419 560.145C788.123 559.249 789.051 558.567 790.203 558.097C791.355 557.607 792.667 557.361 794.139 557.361C795.675 557.361 797.008 557.628 798.139 558.161C799.269 558.695 800.144 559.463 800.763 560.465C801.381 561.447 801.691 562.631 801.691 564.017V575.281H799.195ZM792.603 575.665C791.451 575.665 790.437 575.463 789.563 575.057C788.688 574.652 788.005 574.076 787.515 573.329C787.045 572.561 786.811 571.655 786.811 570.609C786.811 568.796 787.504 567.388 788.891 566.385C790.277 565.383 792.229 564.881 794.747 564.881H799.483V566.929H794.619C792.997 566.929 791.728 567.239 790.811 567.857C789.893 568.476 789.435 569.351 789.435 570.481C789.435 571.42 789.765 572.156 790.427 572.689C791.088 573.201 791.952 573.457 793.019 573.457C794.405 573.457 795.621 573.073 796.667 572.305C797.733 571.537 798.597 570.492 799.259 569.169L799.579 571.217C799.003 572.625 798.128 573.724 796.955 574.513C795.781 575.281 794.331 575.665 792.603 575.665ZM818.887 575.281V564.145C818.887 562.801 818.492 561.713 817.703 560.881C816.935 560.049 815.911 559.633 814.631 559.633C813.202 559.633 811.932 560.177 810.823 561.265C809.714 562.332 808.903 563.964 808.391 566.161L807.911 562.737C808.551 560.988 809.5 559.655 810.759 558.737C812.039 557.82 813.458 557.361 815.015 557.361C816.338 557.361 817.479 557.649 818.439 558.225C819.42 558.78 820.178 559.559 820.711 560.561C821.266 561.564 821.543 562.737 821.543 564.081V575.281H818.887ZM806.087 575.281V557.745H808.583L808.743 561.969V575.281H806.087ZM848.064 566.545V564.209H857.536V566.545H848.064ZM890.457 575.281V552.945H893.241V575.281H890.457ZM884.729 552.945H898.969V555.345H884.729V552.945ZM884.729 572.881H898.969V575.281H884.729V572.881ZM916.55 575.281V564.145C916.55 562.801 916.155 561.713 915.366 560.881C914.598 560.049 913.574 559.633 912.294 559.633C910.864 559.633 909.595 560.177 908.486 561.265C907.376 562.332 906.566 563.964 906.054 566.161L905.574 562.737C906.214 560.988 907.163 559.655 908.422 558.737C909.702 557.82 911.12 557.361 912.678 557.361C914 557.361 915.142 557.649 916.102 558.225C917.083 558.78 917.84 559.559 918.374 560.561C918.928 561.564 919.206 562.737 919.206 564.081V575.281H916.55ZM903.75 575.281V557.745H906.246L906.406 561.969V575.281H903.75ZM945.727 566.545V564.209H955.199V566.545H945.727ZM988.12 575.281V555.345H980.696V552.945H998.328V555.345H990.904V575.281H988.12ZM1014.21 575.281V564.177C1014.21 562.812 1013.82 561.713 1013.03 560.881C1012.26 560.049 1011.24 559.633 1009.96 559.633C1008.53 559.633 1007.26 560.177 1006.15 561.265C1005.04 562.332 1004.23 563.964 1003.72 566.161L1003.24 562.769C1003.88 560.999 1004.83 559.655 1006.08 558.737C1007.36 557.82 1008.78 557.361 1010.34 557.361C1011.66 557.361 1012.8 557.649 1013.76 558.225C1014.75 558.78 1015.5 559.559 1016.04 560.561C1016.59 561.564 1016.87 562.748 1016.87 564.113V575.281H1014.21ZM1001.41 575.281V551.793H1004.07V575.281H1001.41ZM1028.78 575.665C1026.99 575.665 1025.45 575.303 1024.14 574.577C1022.84 573.831 1021.84 572.775 1021.14 571.409C1020.45 570.023 1020.11 568.38 1020.11 566.481C1020.11 564.583 1020.46 562.961 1021.17 561.617C1021.87 560.252 1022.88 559.207 1024.18 558.481C1025.48 557.735 1027.04 557.361 1028.85 557.361C1031.58 557.361 1033.64 558.108 1035.02 559.601C1036.41 561.095 1037.03 563.153 1036.88 565.777H1022.22V563.697L1034.16 563.761C1034.08 562.481 1033.55 561.468 1032.59 560.721C1031.63 559.953 1030.38 559.569 1028.85 559.569C1026.93 559.569 1025.44 560.188 1024.37 561.425C1023.3 562.641 1022.77 564.348 1022.77 566.545C1022.77 567.932 1023 569.148 1023.47 570.193C1023.96 571.217 1024.66 572.017 1025.55 572.593C1026.45 573.148 1027.53 573.425 1028.78 573.425C1030.28 573.425 1031.53 573.073 1032.53 572.369C1033.55 571.644 1034.18 570.663 1034.42 569.425H1037.07C1036.75 571.367 1035.86 572.892 1034.38 574.001C1032.91 575.111 1031.05 575.665 1028.78 575.665ZM1062.92 566.545V564.209H1072.39V566.545H1062.92ZM1100.77 569.233V566.833H1112.9V569.233H1100.77ZM1104.77 552.945H1108.64L1115.97 575.281H1113.12L1108.07 559.793L1106.72 555.281L1105.38 559.825L1100.29 575.281H1097.47L1104.77 552.945ZM1124.85 575.281V552.945H1127.63V575.281H1124.85ZM1119.12 552.945H1133.36V555.345H1119.12V552.945ZM1119.12 572.881H1133.36V575.281H1119.12V572.881ZM1160.58 566.545V564.209H1170.06V566.545H1160.58ZM1197.79 575.281V552.945H1200.55V572.881H1212.55V575.281H1197.79ZM1223.89 575.665C1222.09 575.665 1220.55 575.303 1219.25 574.577C1217.97 573.831 1216.97 572.775 1216.27 571.409C1215.59 570.023 1215.25 568.391 1215.25 566.513C1215.25 564.615 1215.59 562.983 1216.27 561.617C1216.97 560.252 1217.97 559.207 1219.25 558.481C1220.55 557.735 1222.09 557.361 1223.89 557.361C1226.59 557.361 1228.72 558.183 1230.25 559.825C1231.79 561.447 1232.56 563.676 1232.56 566.513C1232.56 568.391 1232.21 570.023 1231.5 571.409C1230.82 572.775 1229.83 573.831 1228.53 574.577C1227.25 575.303 1225.7 575.665 1223.89 575.665ZM1223.89 573.425C1225.76 573.425 1227.23 572.807 1228.3 571.569C1229.37 570.332 1229.9 568.647 1229.9 566.513C1229.9 564.359 1229.37 562.673 1228.3 561.457C1227.23 560.22 1225.76 559.601 1223.89 559.601C1222.03 559.601 1220.57 560.22 1219.5 561.457C1218.43 562.673 1217.9 564.359 1217.9 566.513C1217.9 568.647 1218.43 570.332 1219.5 571.569C1220.57 572.807 1222.03 573.425 1223.89 573.425ZM1243.42 575.665C1241.63 575.665 1240.08 575.303 1238.78 574.577C1237.5 573.831 1236.51 572.775 1235.8 571.409C1235.12 570.023 1234.78 568.391 1234.78 566.513C1234.78 564.615 1235.12 562.983 1235.8 561.617C1236.51 560.252 1237.5 559.207 1238.78 558.481C1240.08 557.735 1241.63 557.361 1243.42 557.361C1246.13 557.361 1248.25 558.183 1249.79 559.825C1251.32 561.447 1252.09 563.676 1252.09 566.513C1252.09 568.391 1251.74 570.023 1251.03 571.409C1250.35 572.775 1249.36 573.831 1248.06 574.577C1246.78 575.303 1245.23 575.665 1243.42 575.665ZM1243.42 573.425C1245.3 573.425 1246.77 572.807 1247.83 571.569C1248.9 570.332 1249.43 568.647 1249.43 566.513C1249.43 564.359 1248.9 562.673 1247.83 561.457C1246.77 560.22 1245.3 559.601 1243.42 559.601C1241.56 559.601 1240.1 560.22 1239.03 561.457C1237.97 562.673 1237.43 564.359 1237.43 566.513C1237.43 568.647 1237.97 570.332 1239.03 571.569C1240.1 572.807 1241.56 573.425 1243.42 573.425ZM1263.85 557.361C1265.43 557.361 1266.81 557.745 1268.01 558.513C1269.2 559.281 1270.13 560.359 1270.79 561.745C1271.47 563.111 1271.81 564.7 1271.81 566.513C1271.81 568.305 1271.47 569.895 1270.79 571.281C1270.13 572.647 1269.2 573.724 1268.01 574.513C1266.81 575.281 1265.43 575.665 1263.85 575.665C1262.59 575.665 1261.44 575.399 1260.39 574.865C1259.37 574.332 1258.55 573.617 1257.93 572.721V580.977H1255.27V557.745H1257.77L1257.86 560.369C1258.48 559.452 1259.31 558.727 1260.36 558.193C1261.4 557.639 1262.57 557.361 1263.85 557.361ZM1263.33 573.393C1264.51 573.393 1265.52 573.105 1266.37 572.529C1267.25 571.953 1267.93 571.153 1268.42 570.129C1268.91 569.084 1269.16 567.879 1269.16 566.513C1269.16 565.127 1268.91 563.921 1268.42 562.897C1267.93 561.852 1267.25 561.052 1266.37 560.497C1265.52 559.921 1264.51 559.633 1263.33 559.633C1262.14 559.633 1261.05 559.964 1260.07 560.625C1259.11 561.287 1258.4 562.193 1257.93 563.345V569.649C1258.4 570.801 1259.11 571.719 1260.07 572.401C1261.05 573.063 1262.14 573.393 1263.33 573.393Z" fill="#8E929A"/>
<path d="M933.697 203.88V193.476H957.529V203.88H945.469C946.885 205.296 948.001 206.472 948.817 207.408L946.621 209.064C945.733 207.936 944.629 206.676 943.309 205.284L945.253 203.88H933.697ZM932.005 186.204V183.936H944.281C943.993 183.048 943.681 182.208 943.345 181.416L946.837 181.02C947.173 181.932 947.485 182.904 947.773 183.936H959.401V186.204H953.173L954.397 186.456C953.917 187.248 953.293 188.148 952.525 189.156H961.381V191.424H930.061V189.156H938.737C938.161 188.268 937.573 187.428 936.973 186.636L938.593 186.204H932.005ZM941.689 212.88C940.201 212.88 939.145 212.568 938.521 211.944C937.897 211.32 937.585 210.264 937.585 208.776V205.32H940.537V208.128C940.537 209.04 940.705 209.652 941.041 209.964C941.377 210.276 942.037 210.432 943.021 210.432H948.385C949.321 210.432 949.981 210.312 950.365 210.072C950.773 209.808 951.073 209.316 951.265 208.596C951.553 207.372 951.733 206.496 951.805 205.968C952.597 206.376 953.557 206.748 954.685 207.084C954.301 208.62 954.025 209.628 953.857 210.108C953.521 211.116 953.005 211.836 952.309 212.268C951.637 212.676 950.617 212.88 949.249 212.88H941.689ZM936.685 199.56V201.828H954.577V199.56H936.685ZM936.685 195.564V197.796H954.577V195.564H936.685ZM940.141 186.204C941.317 187.86 942.001 188.844 942.193 189.156H949.105C949.969 187.932 950.617 186.948 951.049 186.204H940.141ZM932.293 212.412C931.453 211.884 930.625 211.428 929.809 211.044C931.153 208.98 932.245 207.036 933.085 205.212L935.713 206.328C934.105 209.304 932.965 211.332 932.293 212.412ZM958.969 211.728C957.937 209.808 956.845 207.96 955.693 206.184L958.285 205.068C959.005 206.148 960.145 207.948 961.705 210.468L958.969 211.728ZM967.285 213.672V182.316H995.977V213.672H993.025V212.088H970.237V213.672H967.285ZM970.237 185.016V209.388H993.025V185.016H970.237ZM991.225 199.272C987.577 198.528 984.577 197.616 982.225 196.536C979.705 197.784 976.333 198.864 972.109 199.776C971.725 198.816 971.353 198.012 970.993 197.364C974.353 196.86 977.269 196.104 979.741 195.096C978.397 194.16 977.125 193.032 975.925 191.712C975.109 192.528 974.161 193.356 973.081 194.196C972.073 193.116 971.521 192.528 971.425 192.432C974.113 190.512 976.297 188.244 977.977 185.628L980.749 186.096C980.173 186.888 979.669 187.56 979.237 188.112H990.181V190.272C988.453 192.288 986.641 193.908 984.745 195.132C986.977 195.924 989.509 196.476 992.341 196.788C991.813 197.796 991.441 198.624 991.225 199.272ZM988.777 208.2C984.289 207.24 979.141 206.364 973.333 205.572L974.017 203.196C980.113 204.108 985.273 204.948 989.497 205.716L988.777 208.2ZM987.049 202.836C983.137 202.14 979.573 201.564 976.357 201.108L976.897 198.984C980.665 199.536 984.229 200.1 987.589 200.676L987.049 202.836ZM986.977 190.272H977.509C978.757 191.76 980.305 192.996 982.153 193.98C984.025 192.948 985.633 191.712 986.977 190.272ZM1003.18 187.32V184.8H1016.14V181.236H1019.23V184.8H1032.23V187.32H1019.23V190.416H1030.82V192.9H1019.23V196.032H1033.31V198.552H1019.23C1020.14 200.568 1021.19 202.224 1022.36 203.52C1025 202.056 1027.31 200.616 1029.28 199.2L1031.18 201.576C1028.93 202.824 1026.67 204.072 1024.42 205.32C1026.65 206.904 1029.7 208.128 1033.56 208.992C1032.98 210 1032.4 211.008 1031.8 212.016C1027.62 210.648 1024.45 209.1 1022.29 207.372C1020.08 205.62 1018.32 203.208 1017 200.136C1015.9 201.36 1014.64 202.512 1013.22 203.592V209.82C1015.81 208.956 1018.39 208.08 1020.96 207.192C1020.86 208.488 1020.82 209.532 1020.82 210.324C1019.4 210.684 1016.7 211.548 1012.72 212.916C1012.12 213.132 1011.46 213.408 1010.74 213.744L1009.26 211.44C1009.98 210.912 1010.34 210.204 1010.34 209.316V205.572C1008.16 206.892 1005.68 208.152 1002.92 209.352C1002.59 208.368 1002.18 207.384 1001.7 206.4C1007.22 204.36 1011.6 201.744 1014.84 198.552H1002.2V196.032H1016.14V192.9H1004.47V190.416H1016.14V187.32H1003.18ZM1047.6 191.64V188.76H1055.74C1055.81 186.36 1055.84 183.888 1055.84 181.344H1058.98C1058.98 184.2 1058.93 186.672 1058.83 188.76H1068.26V191.64H1058.69C1058.45 193.896 1058.1 195.708 1057.64 197.076L1059.08 195.852C1060.26 196.98 1063.36 200.052 1068.37 205.068L1065.89 207.264C1063.82 205.008 1060.94 201.96 1057.25 198.12C1055.98 201.36 1053.2 204.492 1048.93 207.516C1048.5 206.916 1047.78 206.028 1046.77 204.852C1049.92 202.692 1052.09 200.7 1053.29 198.876C1054.44 197.1 1055.18 194.688 1055.52 191.64H1047.6ZM1039.21 213.204L1037.74 210.036C1039.13 208.62 1040.53 207.252 1041.95 205.932V195.708H1038.02V192.648H1045.01V205.86C1046.69 208.548 1049.08 209.856 1052.17 209.784C1057.62 209.928 1063.4 209.904 1069.52 209.712C1068.9 211.752 1068.59 212.784 1068.59 212.808C1059.64 212.76 1053.85 212.688 1051.24 212.592C1047.88 212.544 1045.26 211.176 1043.39 208.488C1041.47 210.504 1040.08 212.076 1039.21 213.204ZM1044.07 189.228C1043.11 187.62 1041.67 185.544 1039.75 183L1042.31 181.596C1044.52 184.404 1046.03 186.396 1046.84 187.572L1044.07 189.228Z" fill="#FAFAFA"/>
<path d="M905.738 246.619V234.055H907.304V246.619H905.738ZM902.516 234.055H910.526V235.405H902.516V234.055ZM902.516 245.269H910.526V246.619H902.516V245.269ZM912.963 246.619V234.055H914.871L920.685 244.531L920.559 240.877V234.055H922.089V246.619H920.181L914.349 236.233L914.493 239.779V246.619H912.963ZM927.712 246.619V235.405H923.536V234.055H933.454V235.405H929.278V246.619H927.712ZM935.189 246.619V234.055H944.117V235.405H936.755V239.437H941.921V240.787H936.755V245.269H944.189V246.619H935.189ZM945.924 246.619V234.055H947.832L953.646 244.531L953.52 240.877V234.055H955.05V246.619H953.142L947.31 236.233L947.454 239.779V246.619H945.924ZM960.673 246.619V235.405H956.497V234.055H966.415V235.405H962.239V246.619H960.673ZM971.66 246.619V234.055H973.226V246.619H971.66ZM968.438 234.055H976.448V235.405H968.438V234.055ZM968.438 245.269H976.448V246.619H968.438V245.269ZM983.457 246.835C982.401 246.835 981.483 246.571 980.703 246.043C979.923 245.503 979.317 244.747 978.885 243.775C978.465 242.791 978.255 241.645 978.255 240.337C978.255 239.017 978.465 237.871 978.885 236.899C979.317 235.927 979.923 235.177 980.703 234.649C981.483 234.109 982.401 233.839 983.457 233.839C984.513 233.839 985.431 234.109 986.211 234.649C986.991 235.177 987.591 235.927 988.011 236.899C988.443 237.871 988.659 239.017 988.659 240.337C988.659 241.645 988.443 242.791 988.011 243.775C987.591 244.747 986.991 245.503 986.211 246.043C985.431 246.571 984.513 246.835 983.457 246.835ZM983.457 245.485C984.177 245.485 984.801 245.275 985.329 244.855C985.869 244.435 986.283 243.841 986.571 243.073C986.871 242.293 987.021 241.381 987.021 240.337C987.021 239.293 986.871 238.387 986.571 237.619C986.283 236.851 985.869 236.257 985.329 235.837C984.801 235.405 984.177 235.189 983.457 235.189C982.737 235.189 982.107 235.405 981.567 235.837C981.039 236.257 980.625 236.851 980.325 237.619C980.025 238.387 979.875 239.293 979.875 240.337C979.875 241.381 980.025 242.293 980.325 243.073C980.625 243.841 981.039 244.435 981.567 244.855C982.107 245.275 982.737 245.485 983.457 245.485ZM989.872 246.619V234.055H991.78L997.594 244.531L997.468 240.877V234.055H998.998V246.619H997.09L991.258 236.233L991.402 239.779V246.619H989.872ZM1013.74 241.705V240.391H1019.06V241.705H1013.74ZM1033.84 246.619V234.055H1037.6C1038.5 234.055 1039.31 234.205 1040.03 234.505C1040.76 234.793 1041.39 235.213 1041.9 235.765C1042.42 236.305 1042.81 236.959 1043.09 237.727C1043.37 238.495 1043.5 239.353 1043.5 240.301C1043.5 241.261 1043.37 242.131 1043.09 242.911C1042.81 243.679 1042.42 244.345 1041.9 244.909C1041.39 245.461 1040.76 245.887 1040.03 246.187C1039.31 246.475 1038.5 246.619 1037.6 246.619H1033.84ZM1035.4 245.269H1037.6C1038.46 245.269 1039.21 245.065 1039.85 244.657C1040.5 244.249 1040.99 243.673 1041.33 242.929C1041.67 242.173 1041.85 241.297 1041.85 240.301C1041.85 239.305 1041.67 238.441 1041.33 237.709C1040.99 236.977 1040.5 236.413 1039.85 236.017C1039.21 235.609 1038.46 235.405 1037.6 235.405H1035.4V245.269ZM1046.28 241.183V239.833H1049.58C1050.17 239.833 1050.68 239.743 1051.13 239.563C1051.58 239.371 1051.94 239.101 1052.19 238.753C1052.45 238.393 1052.58 237.979 1052.58 237.511C1052.58 237.079 1052.47 236.707 1052.24 236.395C1052.01 236.083 1051.71 235.843 1051.32 235.675C1050.94 235.495 1050.51 235.405 1050.05 235.405H1046.28V234.055H1050.05C1050.85 234.055 1051.56 234.193 1052.19 234.469C1052.82 234.745 1053.32 235.141 1053.68 235.657C1054.04 236.173 1054.22 236.791 1054.22 237.511C1054.22 237.991 1054.11 238.453 1053.9 238.897C1053.69 239.329 1053.39 239.719 1052.98 240.067C1052.57 240.403 1052.08 240.673 1051.5 240.877C1050.93 241.081 1050.27 241.183 1049.52 241.183H1046.28ZM1045.17 246.619V234.055H1046.72V246.619H1045.17ZM1052.51 246.619C1052.42 246.043 1052.24 245.479 1051.99 244.927C1051.75 244.375 1051.43 243.847 1051.02 243.343C1050.62 242.839 1050.12 242.365 1049.52 241.921C1048.92 241.477 1048.23 241.069 1047.44 240.697L1049.16 240.301C1050 240.709 1050.72 241.159 1051.31 241.651C1051.89 242.131 1052.38 242.641 1052.76 243.181C1053.16 243.709 1053.46 244.261 1053.66 244.837C1053.87 245.413 1054.01 246.007 1054.08 246.619H1052.51ZM1059.56 246.619V234.055H1061.12V246.619H1059.56ZM1056.33 234.055H1064.34V235.405H1056.33V234.055ZM1056.33 245.269H1064.34V246.619H1056.33V245.269ZM1070.26 246.619L1066.08 234.055H1067.7L1070.65 242.713L1071.35 245.251L1072.06 242.731L1075.01 234.055H1076.61L1072.43 246.619H1070.26ZM1078.02 246.619V234.055H1086.95V235.405H1079.59V239.437H1084.75V240.787H1079.59V245.269H1087.02V246.619H1078.02ZM1088.76 246.619V234.055H1090.66L1096.48 244.531L1096.35 240.877V234.055H1097.88V246.619H1095.97L1090.14 236.233L1090.29 239.779V246.619H1088.76Z" fill="#8E929A"/>
<path d="M942.948 910.599V896.955H959.76V910.599H956.772V908.619H945.9V910.599H942.948ZM941.544 885.507V882.771H949.752V878.199H952.776V882.771H961.344V885.507H952.776V890.439H960.264V893.175H942.48V890.439H949.752V885.507H941.544ZM931.176 901.131L930.204 898.467C930.948 897.915 931.572 897.279 932.076 896.559C933.18 895.119 934.308 893.463 935.46 891.591C933.756 891.639 932.1 891.759 930.492 891.951L929.7 889.323C930.252 888.867 930.732 888.291 931.14 887.595C933.084 884.307 934.692 881.127 935.964 878.055L938.952 878.991C936.864 882.951 934.944 886.311 933.192 889.071C934.512 889.023 935.82 888.975 937.116 888.927C938.028 887.343 938.688 886.167 939.096 885.399L941.724 886.695C939.3 890.631 936.828 894.375 934.308 897.927L940.752 896.991C940.656 898.383 940.608 899.307 940.608 899.763C936.264 900.243 933.12 900.699 931.176 901.131ZM945.9 899.691V905.847H956.772V899.691H945.9ZM930.204 908.511L929.7 905.415C934.332 904.695 938.088 904.083 940.968 903.579C940.872 904.371 940.824 905.355 940.824 906.531C937.032 907.203 933.492 907.863 930.204 908.511ZM969.3 894.219V879.747H994.104V894.219H983.232V897.423H997.236V900.123H985.176C988.152 903.075 992.292 905.127 997.596 906.279C997.092 907.263 996.576 908.235 996.048 909.195C990.384 907.467 986.112 904.911 983.232 901.527V910.563H980.208V901.347C977.448 904.707 973.164 907.515 967.356 909.771L965.772 906.999C968.604 906.063 971.004 905.043 972.972 903.939C974.868 902.859 976.572 901.587 978.084 900.123H966.204V897.423H980.208V894.219H969.3ZM972.216 888.135V891.627H980.208V888.135H972.216ZM983.232 888.135V891.627H991.188V888.135H983.232ZM991.188 882.375H983.232V885.831H991.188V882.375ZM972.216 882.375V885.831H980.208V882.375H972.216ZM1012 883.059V880.107H1032.08V883.059H1023.7V895.695H1033.63V898.611H1023.7V910.563H1020.6V898.611H1010.63V895.695H1020.6V883.059H1012ZM1006.24 909.699L1004.22 907.143C1004.94 906.303 1005.3 905.187 1005.3 903.795V892.347H1001.81V889.395H1008.29V904.083L1012.32 900.987C1012.58 902.259 1012.84 903.315 1013.08 904.155C1011.52 905.283 1009.79 906.603 1007.89 908.115C1007.29 908.643 1006.74 909.171 1006.24 909.699ZM1007.42 886.155C1006.66 885.027 1005.16 883.083 1002.92 880.323L1005.41 878.667C1007.18 880.659 1008.76 882.531 1010.12 884.283L1007.42 886.155ZM1028.41 893.463L1025.82 891.951C1027.33 889.767 1028.63 887.619 1029.71 885.507L1032.37 886.767C1031.34 888.615 1030.02 890.847 1028.41 893.463ZM1015.67 893.319C1014.35 890.895 1013.1 888.723 1011.92 886.803L1014.44 885.471C1015.96 887.871 1017.23 889.995 1018.26 891.843L1015.67 893.319ZM1047.2 887.595V884.607H1056.74V878.163H1059.84V884.607H1069.56V887.595H1059.84V894.075H1067.44V910.599H1064.34V908.187H1052.24V910.599H1049.15V894.075H1056.74V887.595H1047.2ZM1038.56 897.423C1038.25 896.103 1037.93 894.771 1037.59 893.427C1040.54 889.059 1042.92 883.935 1044.72 878.055L1047.71 878.847C1046.84 881.415 1045.87 883.923 1044.79 886.371V910.635H1041.8V892.239C1040.8 893.967 1039.72 895.695 1038.56 897.423ZM1052.24 896.955V905.271H1064.34V896.955H1052.24Z" fill="#FAFAFA"/>
<path d="M898.03 938.146V936.796H901.324C901.912 936.796 902.428 936.706 902.872 936.526C903.328 936.334 903.682 936.064 903.934 935.716C904.198 935.356 904.33 934.942 904.33 934.474C904.33 934.042 904.216 933.67 903.988 933.358C903.76 933.046 903.454 932.806 903.07 932.638C902.686 932.458 902.26 932.368 901.792 932.368H898.03V931.018H901.792C902.596 931.018 903.31 931.156 903.934 931.432C904.57 931.708 905.068 932.104 905.428 932.62C905.788 933.136 905.968 933.754 905.968 934.474C905.968 934.954 905.86 935.416 905.644 935.86C905.44 936.292 905.134 936.682 904.726 937.03C904.318 937.366 903.826 937.636 903.25 937.84C902.674 938.044 902.014 938.146 901.27 938.146H898.03ZM896.914 943.582V931.018H898.462V943.582H896.914ZM904.258 943.582C904.162 943.006 903.988 942.442 903.736 941.89C903.496 941.338 903.172 940.81 902.764 940.306C902.368 939.802 901.87 939.328 901.27 938.884C900.67 938.44 899.974 938.032 899.182 937.66L900.91 937.264C901.75 937.672 902.464 938.122 903.052 938.614C903.64 939.094 904.126 939.604 904.51 940.144C904.906 940.672 905.206 941.224 905.41 941.8C905.614 942.376 905.752 942.97 905.824 943.582H904.258ZM907.793 943.582V931.018H916.721V932.368H909.359V936.4H914.525V937.75H909.359V942.232H916.793V943.582H907.793ZM923.28 943.798C922.332 943.798 921.498 943.618 920.778 943.258C920.07 942.898 919.518 942.37 919.122 941.674C918.726 940.978 918.528 940.132 918.528 939.136H920.076C920.076 940.192 920.364 941.008 920.94 941.584C921.516 942.16 922.296 942.448 923.28 942.448C924.108 942.448 924.78 942.256 925.296 941.872C925.824 941.476 926.088 940.924 926.088 940.216C926.088 939.748 925.95 939.37 925.674 939.082C925.41 938.782 925.056 938.548 924.612 938.38C924.18 938.2 923.706 938.044 923.19 937.912C922.674 937.768 922.152 937.618 921.624 937.462C921.108 937.294 920.628 937.09 920.184 936.85C919.752 936.598 919.404 936.268 919.14 935.86C918.876 935.452 918.744 934.93 918.744 934.294C918.744 933.61 918.918 933.004 919.266 932.476C919.626 931.948 920.124 931.54 920.76 931.252C921.408 930.952 922.17 930.802 923.046 930.802C923.898 930.802 924.66 930.958 925.332 931.27C926.004 931.582 926.538 932.026 926.934 932.602C927.33 933.166 927.54 933.844 927.564 934.636H925.998C925.986 934.132 925.848 933.694 925.584 933.322C925.32 932.95 924.966 932.662 924.522 932.458C924.09 932.254 923.598 932.152 923.046 932.152C922.242 932.152 921.594 932.344 921.102 932.728C920.622 933.1 920.382 933.604 920.382 934.24C920.382 934.672 920.514 935.02 920.778 935.284C921.042 935.548 921.39 935.764 921.822 935.932C922.266 936.088 922.746 936.232 923.262 936.364C923.79 936.496 924.312 936.646 924.828 936.814C925.356 936.97 925.836 937.18 926.268 937.444C926.712 937.708 927.066 938.062 927.33 938.506C927.594 938.95 927.726 939.514 927.726 940.198C927.726 940.942 927.528 941.584 927.132 942.124C926.748 942.664 926.22 943.078 925.548 943.366C924.876 943.654 924.12 943.798 923.28 943.798ZM934.087 943.798C933.139 943.798 932.305 943.606 931.585 943.222C930.865 942.826 930.301 942.28 929.893 941.584C929.485 940.876 929.281 940.06 929.281 939.136V931.018H930.865V939.136C930.865 939.796 930.997 940.372 931.261 940.864C931.537 941.356 931.915 941.746 932.395 942.034C932.875 942.31 933.439 942.448 934.087 942.448C934.735 942.448 935.293 942.31 935.761 942.034C936.241 941.746 936.613 941.356 936.877 940.864C937.153 940.372 937.291 939.796 937.291 939.136V931.018H938.857V939.136C938.857 940.06 938.653 940.876 938.245 941.584C937.849 942.28 937.291 942.826 936.571 943.222C935.863 943.606 935.035 943.798 934.087 943.798ZM941.348 943.582V931.018H942.896V942.232H949.646V943.582H941.348ZM955.251 943.582V932.368H951.075V931.018H960.993V932.368H956.817V943.582H955.251ZM974.867 938.776V937.426H978.287C979.163 937.426 979.871 937.192 980.411 936.724C980.951 936.256 981.221 935.638 981.221 934.87C981.221 934.114 980.969 933.508 980.465 933.052C979.973 932.596 979.319 932.368 978.503 932.368H974.867V931.018H978.521C979.397 931.018 980.159 931.18 980.807 931.504C981.455 931.816 981.959 932.26 982.319 932.836C982.679 933.4 982.859 934.078 982.859 934.87C982.859 935.65 982.667 936.334 982.283 936.922C981.911 937.51 981.383 937.966 980.699 938.29C980.015 938.614 979.211 938.776 978.287 938.776H974.867ZM973.751 943.582V931.018H975.299V943.582H973.751ZM985.926 938.146V936.796H989.22C989.808 936.796 990.324 936.706 990.768 936.526C991.224 936.334 991.578 936.064 991.83 935.716C992.094 935.356 992.226 934.942 992.226 934.474C992.226 934.042 992.112 933.67 991.884 933.358C991.656 933.046 991.35 932.806 990.966 932.638C990.582 932.458 990.156 932.368 989.688 932.368H985.926V931.018H989.688C990.492 931.018 991.206 931.156 991.83 931.432C992.466 931.708 992.964 932.104 993.324 932.62C993.684 933.136 993.864 933.754 993.864 934.474C993.864 934.954 993.756 935.416 993.54 935.86C993.336 936.292 993.03 936.682 992.622 937.03C992.214 937.366 991.722 937.636 991.146 937.84C990.57 938.044 989.91 938.146 989.166 938.146H985.926ZM984.81 943.582V931.018H986.358V943.582H984.81ZM992.154 943.582C992.058 943.006 991.884 942.442 991.632 941.89C991.392 941.338 991.068 940.81 990.66 940.306C990.264 939.802 989.766 939.328 989.166 938.884C988.566 938.44 987.87 938.032 987.078 937.66L988.806 937.264C989.646 937.672 990.36 938.122 990.948 938.614C991.536 939.094 992.022 939.604 992.406 940.144C992.802 940.672 993.102 941.224 993.306 941.8C993.51 942.376 993.648 942.97 993.72 943.582H992.154ZM995.689 943.582V931.018H1004.62V932.368H997.255V936.4H1002.42V937.75H997.255V942.232H1004.69V943.582H995.689ZM1011.18 943.798C1010.23 943.798 1009.39 943.618 1008.67 943.258C1007.97 942.898 1007.41 942.37 1007.02 941.674C1006.62 940.978 1006.42 940.132 1006.42 939.136H1007.97C1007.97 940.192 1008.26 941.008 1008.84 941.584C1009.41 942.16 1010.19 942.448 1011.18 942.448C1012 942.448 1012.68 942.256 1013.19 941.872C1013.72 941.476 1013.98 940.924 1013.98 940.216C1013.98 939.748 1013.85 939.37 1013.57 939.082C1013.31 938.782 1012.95 938.548 1012.51 938.38C1012.08 938.2 1011.6 938.044 1011.09 937.912C1010.57 937.768 1010.05 937.618 1009.52 937.462C1009 937.294 1008.52 937.09 1008.08 936.85C1007.65 936.598 1007.3 936.268 1007.04 935.86C1006.77 935.452 1006.64 934.93 1006.64 934.294C1006.64 933.61 1006.81 933.004 1007.16 932.476C1007.52 931.948 1008.02 931.54 1008.66 931.252C1009.3 930.952 1010.07 930.802 1010.94 930.802C1011.79 930.802 1012.56 930.958 1013.23 931.27C1013.9 931.582 1014.43 932.026 1014.83 932.602C1015.23 933.166 1015.44 933.844 1015.46 934.636H1013.89C1013.88 934.132 1013.74 933.694 1013.48 933.322C1013.22 932.95 1012.86 932.662 1012.42 932.458C1011.99 932.254 1011.49 932.152 1010.94 932.152C1010.14 932.152 1009.49 932.344 1009 932.728C1008.52 933.1 1008.28 933.604 1008.28 934.24C1008.28 934.672 1008.41 935.02 1008.67 935.284C1008.94 935.548 1009.29 935.764 1009.72 935.932C1010.16 936.088 1010.64 936.232 1011.16 936.364C1011.69 936.496 1012.21 936.646 1012.72 936.814C1013.25 936.97 1013.73 937.18 1014.16 937.444C1014.61 937.708 1014.96 938.062 1015.23 938.506C1015.49 938.95 1015.62 939.514 1015.62 940.198C1015.62 940.942 1015.42 941.584 1015.03 942.124C1014.64 942.664 1014.12 943.078 1013.44 943.366C1012.77 943.654 1012.02 943.798 1011.18 943.798ZM1017.66 943.582V931.018H1026.59V932.368H1019.23V936.4H1024.4V937.75H1019.23V942.232H1026.66V943.582H1017.66ZM1028.4 943.582V931.018H1030.31L1036.12 941.494L1035.99 937.84V931.018H1037.52V943.582H1035.62L1029.78 933.196L1029.93 936.742V943.582H1028.4ZM1043.15 943.582V932.368H1038.97V931.018H1048.89V932.368H1044.71V943.582H1043.15ZM1051.58 940.18V938.83H1058.4V940.18H1051.58ZM1053.83 931.018H1056.01L1060.13 943.582H1058.53L1055.68 934.87L1054.93 932.332L1054.17 934.888L1051.31 943.582H1049.72L1053.83 931.018ZM1065.12 943.582V932.368H1060.95V931.018H1070.86V932.368H1066.69V943.582H1065.12ZM1076.11 943.582V931.018H1077.67V943.582H1076.11ZM1072.89 931.018H1080.9V932.368H1072.89V931.018ZM1072.89 942.232H1080.9V943.582H1072.89V942.232ZM1087.91 943.798C1086.85 943.798 1085.93 943.534 1085.15 943.006C1084.37 942.466 1083.77 941.71 1083.33 940.738C1082.91 939.754 1082.7 938.608 1082.7 937.3C1082.7 935.98 1082.91 934.834 1083.33 933.862C1083.77 932.89 1084.37 932.14 1085.15 931.612C1085.93 931.072 1086.85 930.802 1087.91 930.802C1088.96 930.802 1089.88 931.072 1090.66 931.612C1091.44 932.14 1092.04 932.89 1092.46 933.862C1092.89 934.834 1093.11 935.98 1093.11 937.3C1093.11 938.608 1092.89 939.754 1092.46 940.738C1092.04 941.71 1091.44 942.466 1090.66 943.006C1089.88 943.534 1088.96 943.798 1087.91 943.798ZM1087.91 942.448C1088.63 942.448 1089.25 942.238 1089.78 941.818C1090.32 941.398 1090.73 940.804 1091.02 940.036C1091.32 939.256 1091.47 938.344 1091.47 937.3C1091.47 936.256 1091.32 935.35 1091.02 934.582C1090.73 933.814 1090.32 933.22 1089.78 932.8C1089.25 932.368 1088.63 932.152 1087.91 932.152C1087.19 932.152 1086.56 932.368 1086.02 932.8C1085.49 933.22 1085.07 933.814 1084.77 934.582C1084.47 935.35 1084.32 936.256 1084.32 937.3C1084.32 938.344 1084.47 939.256 1084.77 940.036C1085.07 940.804 1085.49 941.398 1086.02 941.818C1086.56 942.238 1087.19 942.448 1087.91 942.448ZM1094.32 943.582V931.018H1096.23L1102.04 941.494L1101.92 937.84V931.018H1103.45V943.582H1101.54L1095.71 933.196L1095.85 936.742V943.582H1094.32Z" fill="#8E929A"/>
<rect x="1385.52" y="338.402" width="10.0074" height="10.0074" fill="black" stroke="#C7C8CC"/>
<rect x="603.473" y="337.529" width="10.0074" height="10.0074" fill="black" stroke="#C7C8CC"/>
<rect x="603.473" y="780.025" width="10.0074" height="10.0074" fill="black" stroke="#C7C8CC"/>
<rect x="1385.52" y="780.463" width="10.0074" height="10.0074" fill="black" stroke="#C7C8CC"/>
<path d="M1572.77 418.779H1631.34C1653.63 418.779 1671.72 436.872 1671.72 459.162V500.954C1671.72 516.301 1659.26 528.762 1643.91 528.762H1560.19C1544.84 528.762 1532.38 516.301 1532.38 500.954V459.162C1532.38 436.872 1550.48 418.779 1572.77 418.779Z" stroke="#C7C8CC" stroke-width="0.88" stroke-miterlimit="16"/>
<path d="M1671.69 457.447C1679.96 457.447 1686.68 464.162 1686.68 472.442V486.522C1686.68 494.794 1679.97 501.518 1671.69 501.518V457.456V457.447Z" stroke="#C7C8CC" stroke-width="0.88" stroke-miterlimit="16"/>
<path d="M1532.42 501.498C1524.15 501.498 1517.42 494.784 1517.42 486.503V472.423C1517.42 464.151 1524.14 457.428 1532.42 457.428V501.489V501.498Z" stroke="#C7C8CC" stroke-width="0.88" stroke-miterlimit="16"/>
<rect x="1567.95" y="526.121" width="57.842" height="5.28" fill="black"/>
<rect x="1515.8" y="472.859" width="3.3666" height="13.2086" fill="black"/>
<rect x="1684.95" y="472.859" width="3.3666" height="13.2086" fill="black"/>
<path d="M1629.55 442.035H1574.55C1557.02 442.035 1542.81 456.246 1542.81 473.777C1542.81 491.307 1557.02 505.518 1574.55 505.518H1629.55C1647.08 505.518 1661.3 491.307 1661.3 473.777C1661.3 456.246 1647.08 442.035 1629.55 442.035Z" stroke="#C7C8CC" stroke-width="0.88" stroke-miterlimit="16"/>
<path d="M1602.58 399.701C1606.03 399.701 1608.82 396.908 1608.82 393.462C1608.82 390.016 1606.03 387.223 1602.58 387.223C1599.14 387.223 1596.34 390.016 1596.34 393.462C1596.34 396.908 1599.14 399.701 1602.58 399.701Z" stroke="#C7C8CC" stroke-width="0.88" stroke-miterlimit="10"/>
<path d="M1686.68 483.458C1688.63 483.458 1690.2 481.882 1690.2 479.938C1690.2 477.994 1688.63 476.418 1686.68 476.418C1684.74 476.418 1683.16 477.994 1683.16 479.938C1683.16 481.882 1684.74 483.458 1686.68 483.458Z" fill="#C7C8CC"/>
<path d="M1517.42 483.458C1519.37 483.458 1520.94 481.882 1520.94 479.938C1520.94 477.994 1519.37 476.418 1517.42 476.418C1515.48 476.418 1513.9 477.994 1513.9 479.938C1513.9 481.882 1515.48 483.458 1517.42 483.458Z" fill="#C7C8CC"/>
<path d="M1618.69 532.28C1620.64 532.28 1622.21 530.704 1622.21 528.76C1622.21 526.816 1620.64 525.24 1618.69 525.24C1616.75 525.24 1615.17 526.816 1615.17 528.76C1615.17 530.704 1616.75 532.28 1618.69 532.28Z" fill="#C7C8CC"/>
<path d="M1560.36 540.686H1643.74C1665.28 540.686 1682.77 558.171 1682.77 579.714C1682.77 581.254 1681.52 582.503 1679.98 582.503H1524.12C1522.58 582.503 1521.33 581.254 1521.33 579.714C1521.33 558.171 1538.82 540.686 1560.36 540.686Z" stroke="#C7C8CC" stroke-width="0.88" stroke-miterlimit="16"/>
<rect x="1593.26" y="574.584" width="15.84" height="15.84" fill="black"/>
<path d="M1601.18 586.024C1603.13 586.024 1604.7 584.448 1604.7 582.504C1604.7 580.56 1603.13 578.984 1601.18 578.984C1599.24 578.984 1597.66 580.56 1597.66 582.504C1597.66 584.448 1599.24 586.024 1601.18 586.024Z" fill="#C7C8CC"/>
<path d="M1602.58 399.701V418.78" stroke="#C7C8CC" stroke-width="0.88" stroke-miterlimit="10"/>
<path d="M1622.34 472.611C1622.34 470.181 1624.31 468.211 1626.74 468.211C1629.17 468.211 1631.14 470.181 1631.14 472.611V477.891C1631.14 480.321 1629.17 482.291 1626.74 482.291C1624.31 482.291 1622.34 480.321 1622.34 477.891V472.611Z" fill="#C7C8CC"/>
<path d="M1572.97 472.611C1572.97 470.181 1574.94 468.211 1577.37 468.211C1579.8 468.211 1581.77 470.181 1581.77 472.611V477.891C1581.77 480.321 1579.8 482.291 1577.37 482.291C1574.94 482.291 1572.97 480.321 1572.97 477.891V472.611Z" fill="#C7C8CC"/>
<path d="M406.396 423.492C395.434 424.643 390.857 429.518 390.857 429.518C358.528 429.97 371.321 472.758 371.321 472.758C370.094 473.201 369.012 473.926 368.159 474.881C367.307 475.835 366.676 476.994 366.403 478.316C366.045 480.012 366.122 482.083 367.051 484.555C370.256 493.01 376.811 493.539 376.811 493.539C379.061 507.858 391.386 518.87 406.387 519.203C421.389 518.879 433.722 507.867 435.964 493.539C435.964 493.539 442.518 493.01 445.723 484.555C446.661 482.091 446.737 480.02 446.371 478.316C446.098 476.994 445.476 475.835 444.615 474.881C443.754 473.926 442.68 473.201 441.453 472.758C455.082 422.077 406.379 423.492 406.379 423.492H406.396Z" stroke="#C7C8CC" stroke-miterlimit="16"/>
<path d="M388.198 512.742V521.726C388.198 524.249 386.689 526.414 384.524 527.36C383.765 527.692 382.93 527.88 382.052 527.88H373.699C348.623 527.88 328.277 548.209 328.277 573.302V579.251C328.277 582.141 330.621 584.476 333.502 584.476H479.289C482.169 584.476 484.513 582.141 484.513 579.251V573.302C484.513 548.217 464.176 527.88 439.092 527.88H430.739C429.861 527.88 429.034 527.692 428.275 527.36C426.11 526.414 424.593 524.24 424.593 521.726V512.742" stroke="#C7C8CC" stroke-miterlimit="16"/>
<path d="M384.515 527.369C387.779 535.074 396.345 540.572 406.386 540.572C416.427 540.572 424.993 535.074 428.266 527.369" stroke="#C7C8CC" stroke-miterlimit="16"/>
<path d="M371.312 472.759H374.909V468.114C374.909 468.114 384.294 467.935 391.88 451.809C391.88 451.809 397.684 466.128 437.873 466.128V472.759H441.47" stroke="#C7C8CC" stroke-miterlimit="16"/>
<path d="M475.145 545.678C488.987 529.714 497.357 508.891 497.357 486.108C497.357 435.87 456.632 395.145 406.394 395.145C356.157 395.145 315.423 435.87 315.423 486.108C315.423 508.891 323.801 529.722 337.635 545.687" stroke="#C7C8CC" stroke-miterlimit="16"/>
<rect x="398.476" y="576.559" width="15.84" height="15.84" fill="black"/>
<path d="M406.396 587.999C408.34 587.999 409.916 586.423 409.916 584.479C409.916 582.535 408.34 580.959 406.396 580.959C404.452 580.959 402.876 582.535 402.876 584.479C402.876 586.423 404.452 587.999 406.396 587.999Z" fill="#C7C8CC"/>
<path d="M490.154 533.97C501.814 533.97 511.267 524.517 511.267 512.857C511.267 501.197 501.814 491.744 490.154 491.744C478.494 491.744 469.041 501.197 469.041 512.857C469.041 524.517 478.494 533.97 490.154 533.97Z" fill="black" stroke="#C7C8CC" stroke-miterlimit="16"/>
<path d="M488.211 504.187C487.359 503.028 486.003 502.338 484.563 502.338H484.546C481.247 502.355 478.588 505.031 478.588 508.321V508.355C478.596 510.648 479.517 512.847 481.145 514.467L490.146 523.382L499.147 514.467C499.965 513.657 500.596 512.702 501.039 511.671C501.474 510.631 501.712 509.515 501.712 508.364V508.338C501.712 505.04 499.053 502.363 495.754 502.346C494.305 502.346 492.942 503.028 492.089 504.196L490.146 506.838L488.211 504.196V504.187Z" stroke="#C7C8CC" stroke-miterlimit="16"/>
<path d="M349.603 487.088H294.933C292.344 487.088 290.245 489.187 290.245 491.776V525.742C290.245 528.331 292.344 530.43 294.933 530.43H349.603C352.192 530.43 354.291 528.331 354.291 525.742V491.776C354.291 489.187 352.192 487.088 349.603 487.088Z" fill="black" stroke="#C7C8CC" stroke-miterlimit="16"/>
<path d="M306.568 512.812C310.847 512.812 314.316 509.343 314.316 505.064C314.316 500.785 310.847 497.316 306.568 497.316C302.289 497.316 298.82 500.785 298.82 505.064C298.82 509.343 302.289 512.812 306.568 512.812Z" fill="black" stroke="#C7C8CC" stroke-miterlimit="16"/>
<path d="M321.016 499.131H345.725" stroke="#C7C8CC" stroke-miterlimit="16"/>
<path d="M321.016 509.666H338.191" stroke="#C7C8CC" stroke-miterlimit="16"/>
<path d="M298.82 520.203H345.725" stroke="#C7C8CC" stroke-miterlimit="16"/>
<rect x="399.206" y="387.223" width="15.84" height="15.84" fill="black"/>
<rect x="308.321" y="467.268" width="15.84" height="15.84" fill="black"/>
<rect x="487.003" y="455.914" width="15.84" height="15.84" fill="black"/>
<path d="M407.126 398.665C409.07 398.665 410.646 397.089 410.646 395.145C410.646 393.201 409.07 391.625 407.126 391.625C405.182 391.625 403.606 393.201 403.606 395.145C403.606 397.089 405.182 398.665 407.126 398.665Z" fill="#C7C8CC"/>
<path d="M316.242 478.386C318.186 478.386 319.762 476.81 319.762 474.866C319.762 472.922 318.186 471.346 316.242 471.346C314.298 471.346 312.722 472.922 312.722 474.866C312.722 476.81 314.298 478.386 316.242 478.386Z" fill="#C7C8CC"/>
<path d="M493.837 467.354C495.781 467.354 497.357 465.778 497.357 463.834C497.357 461.89 495.781 460.314 493.837 460.314C491.893 460.314 490.317 461.89 490.317 463.834C490.317 465.778 491.893 467.354 493.837 467.354Z" fill="#C7C8CC"/>
<rect x="910.5" y="316.033" width="179" height="53" fill="black" stroke="#C7C8CC"/>
<path d="M954.926 351.324V334.572H957.014V351.324H954.926ZM950.63 334.572H961.31V336.372H950.63V334.572ZM950.63 349.524H961.31V351.324H950.63V349.524ZM964.559 351.324V334.572H967.103L974.855 348.54L974.687 343.668V334.572H976.727V351.324H974.183L966.407 337.476L966.599 342.204V351.324H964.559ZM981.08 344.916V343.116H985.64C986.808 343.116 987.752 342.804 988.472 342.18C989.192 341.556 989.552 340.732 989.552 339.708C989.552 338.7 989.216 337.892 988.544 337.284C987.888 336.676 987.016 336.372 985.928 336.372H981.08V334.572H985.952C987.12 334.572 988.136 334.788 989 335.22C989.864 335.636 990.536 336.228 991.016 336.996C991.496 337.748 991.736 338.652 991.736 339.708C991.736 340.748 991.48 341.66 990.968 342.444C990.472 343.228 989.768 343.836 988.856 344.268C987.944 344.7 986.872 344.916 985.64 344.916H981.08ZM979.592 351.324V334.572H981.656V351.324H979.592ZM999.954 351.612C998.69 351.612 997.578 351.356 996.618 350.844C995.658 350.316 994.906 349.588 994.362 348.66C993.818 347.716 993.546 346.628 993.546 345.396V334.572H995.658V345.396C995.658 346.276 995.834 347.044 996.186 347.7C996.554 348.356 997.058 348.876 997.698 349.26C998.338 349.628 999.09 349.812 999.954 349.812C1000.82 349.812 1001.56 349.628 1002.19 349.26C1002.83 348.876 1003.32 348.356 1003.67 347.7C1004.04 347.044 1004.23 346.276 1004.23 345.396V334.572H1006.31V345.396C1006.31 346.628 1006.04 347.716 1005.5 348.66C1004.97 349.588 1004.23 350.316 1003.27 350.844C1002.32 351.356 1001.22 351.612 999.954 351.612ZM1013.52 351.324V336.372H1007.96V334.572H1021.18V336.372H1015.61V351.324H1013.52ZM1042.97 338.124H1045.41L1051.08 343.788L1045.41 349.5H1042.97L1045.44 346.98L1048.05 344.532L1044.43 344.652H1036.68V342.9H1044.45L1048.05 343.02L1045.39 340.548L1042.97 338.124Z" fill="#8E929A"/>
<rect x="910.5" y="758.529" width="179" height="53" fill="black" stroke="#C7C8CC"/>
<path d="M949.542 780.62L947.118 783.044L944.454 785.516L948.054 785.396H955.83V787.148H948.078L944.454 787.028L947.07 789.476L949.542 791.996H947.094L941.43 786.284L947.094 780.62H949.542ZM977.953 794.108C976.545 794.108 975.321 793.756 974.281 793.052C973.241 792.332 972.433 791.324 971.857 790.028C971.297 788.716 971.017 787.188 971.017 785.444C971.017 783.684 971.297 782.156 971.857 780.86C972.433 779.564 973.241 778.564 974.281 777.86C975.321 777.14 976.545 776.78 977.953 776.78C979.361 776.78 980.585 777.14 981.625 777.86C982.665 778.564 983.465 779.564 984.025 780.86C984.601 782.156 984.889 783.684 984.889 785.444C984.889 787.188 984.601 788.716 984.025 790.028C983.465 791.324 982.665 792.332 981.625 793.052C980.585 793.756 979.361 794.108 977.953 794.108ZM977.953 792.308C978.913 792.308 979.745 792.028 980.449 791.468C981.169 790.908 981.721 790.116 982.105 789.092C982.505 788.052 982.705 786.836 982.705 785.444C982.705 784.052 982.505 782.844 982.105 781.82C981.721 780.796 981.169 780.004 980.449 779.444C979.745 778.868 978.913 778.58 977.953 778.58C976.993 778.58 976.153 778.868 975.433 779.444C974.729 780.004 974.177 780.796 973.777 781.82C973.377 782.844 973.177 784.052 973.177 785.444C973.177 786.836 973.377 788.052 973.777 789.092C974.177 790.116 974.729 790.908 975.433 791.468C976.153 792.028 976.993 792.308 977.953 792.308ZM992.602 794.108C991.338 794.108 990.226 793.852 989.266 793.34C988.306 792.812 987.554 792.084 987.01 791.156C986.466 790.212 986.194 789.124 986.194 787.892V777.068H988.306V787.892C988.306 788.772 988.482 789.54 988.834 790.196C989.202 790.852 989.706 791.372 990.346 791.756C990.986 792.124 991.738 792.308 992.602 792.308C993.466 792.308 994.21 792.124 994.834 791.756C995.474 791.372 995.97 790.852 996.322 790.196C996.69 789.54 996.874 788.772 996.874 787.892V777.068H998.962V787.892C998.962 789.124 998.69 790.212 998.146 791.156C997.618 792.084 996.874 792.812 995.914 793.34C994.97 793.852 993.866 794.108 992.602 794.108ZM1006.17 793.82V778.868H1000.6V777.068H1013.83V778.868H1008.26V793.82H1006.17ZM1017.68 787.412V785.612H1022.24C1023.4 785.612 1024.35 785.3 1025.07 784.676C1025.79 784.052 1026.15 783.228 1026.15 782.204C1026.15 781.196 1025.81 780.388 1025.14 779.78C1024.48 779.172 1023.61 778.868 1022.52 778.868H1017.68V777.068H1022.55C1023.72 777.068 1024.73 777.284 1025.6 777.716C1026.46 778.132 1027.13 778.724 1027.61 779.492C1028.09 780.244 1028.33 781.148 1028.33 782.204C1028.33 783.244 1028.08 784.156 1027.56 784.94C1027.07 785.724 1026.36 786.332 1025.45 786.764C1024.54 787.196 1023.47 787.412 1022.24 787.412H1017.68ZM1016.19 793.82V777.068H1018.25V793.82H1016.19ZM1036.55 794.108C1035.29 794.108 1034.17 793.852 1033.21 793.34C1032.25 792.812 1031.5 792.084 1030.96 791.156C1030.41 790.212 1030.14 789.124 1030.14 787.892V777.068H1032.25V787.892C1032.25 788.772 1032.43 789.54 1032.78 790.196C1033.15 790.852 1033.65 791.372 1034.29 791.756C1034.93 792.124 1035.69 792.308 1036.55 792.308C1037.41 792.308 1038.16 792.124 1038.78 791.756C1039.42 791.372 1039.92 790.852 1040.27 790.196C1040.64 789.54 1040.82 788.772 1040.82 787.892V777.068H1042.91V787.892C1042.91 789.124 1042.64 790.212 1042.09 791.156C1041.57 792.084 1040.82 792.812 1039.86 793.34C1038.92 793.852 1037.81 794.108 1036.55 794.108ZM1050.12 793.82V778.868H1044.55V777.068H1057.78V778.868H1052.21V793.82H1050.12Z" fill="#8E929A"/>
</svg>
