<svg width="1562" height="1415" viewBox="0 0 1562 1415" fill="none" xmlns="http://www.w3.org/2000/svg">
<rect width="1562" height="1415" fill="#FAFAFA"/>
<path d="M494.5 340.5V432.5H95.5V340.5H494.5Z" stroke="#C7C8CC"/>
<path d="M225.892 377.41H232.704V374.758H234.602V377.41H241.752V379.204H234.602V381.674H240.686V389.032H234.498C234.29 391.372 233.848 393.166 233.146 394.466C235.746 395.896 238.762 396.702 242.168 396.884L241.7 398.678C238.06 398.444 234.862 397.534 232.106 395.922C230.702 397.352 228.492 398.288 225.476 398.73L224.67 397.014C227.322 396.728 229.272 396 230.468 394.856C228.934 393.764 227.556 392.438 226.36 390.904L227.79 389.916C228.908 391.32 230.156 392.49 231.534 393.478C232.08 392.334 232.444 390.852 232.6 389.032H226.776V381.674H232.704V379.204H225.892V377.41ZM238.918 387.342V383.338H234.602V386.718C234.602 386.926 234.576 387.134 234.576 387.342H238.918ZM232.678 387.342C232.678 387.134 232.704 386.926 232.704 386.718V383.338H228.544V387.342H232.678ZM221.134 384.144C220.302 385.314 219.418 386.432 218.43 387.498L217.806 385.522C220.51 382.35 222.46 378.71 223.656 374.602L225.424 375.408C224.774 377.436 223.968 379.36 223.006 381.154V398.652H221.134V384.144ZM248.538 383.832V388.382H255.142V383.832H248.538ZM248.434 390.098C248.148 393.426 247.186 396.182 245.522 398.366L244.092 397.092C245.756 394.778 246.614 391.84 246.666 388.278V375.798H266.036V395.272C266.036 397.092 265.126 398.002 263.306 398.002H260.316L259.822 396.156C260.862 396.208 261.824 396.26 262.708 396.26C263.644 396.26 264.138 395.714 264.138 394.622V390.098H257.066V397.716H255.142V390.098H248.434ZM264.138 388.382V383.832H257.066V388.382H264.138ZM264.138 382.09V377.618H257.066V382.09H264.138ZM255.142 377.618H248.538V382.09H255.142V377.618ZM270.846 378.788L270.482 376.994C273.472 376.682 276.124 376.11 278.412 375.252L279.088 376.994C278.074 377.332 277.008 377.644 275.89 377.904V381.882H278.958V383.676H275.89V385.028C277.034 386.172 278.178 387.446 279.348 388.876L278.308 390.462C277.372 388.902 276.566 387.654 275.89 386.718V398.6H274.096V386.874C273.264 389.214 272.146 391.346 270.794 393.27L270.014 391.242C271.86 389.006 273.16 386.484 273.94 383.676H270.352V381.882H274.096V378.294C273.03 378.476 271.938 378.632 270.846 378.788ZM291.906 390.046H280.336V388.434H290.112V386.458H280.7V384.898H290.112V382.974H280.492V381.492C280.232 381.7 279.946 381.908 279.686 382.09L278.594 380.686C281.09 379.022 282.78 377.02 283.664 374.654L285.51 374.862C285.302 375.46 285.042 376.032 284.756 376.552H290.632V377.93C289.852 379.282 289.072 380.4 288.292 381.31H291.906V390.046ZM283.742 378.19C282.91 379.334 281.922 380.374 280.752 381.31H286.264C287.044 380.426 287.798 379.386 288.552 378.19H283.742ZM291.62 391.294C292.556 392.906 293.362 394.622 294.064 396.442L292.53 397.118C291.75 395.116 290.918 393.348 290.008 391.814L291.62 391.294ZM279.816 391.736L281.428 392.048C280.986 394.154 280.362 395.974 279.556 397.534L278.048 396.572C278.854 395.116 279.452 393.504 279.816 391.736ZM288.032 398.366H284.652C283.196 398.366 282.468 397.56 282.468 396V391.32H284.158V395.662C284.158 396.364 284.496 396.728 285.224 396.728H287.72C288.136 396.728 288.448 396.624 288.63 396.442C288.864 396.208 289.02 395.506 289.098 394.31L290.71 394.804C290.554 396.494 290.268 397.534 289.826 397.898C289.462 398.21 288.864 398.366 288.032 398.366ZM286.316 390.878C287.304 392.048 288.058 393.088 288.578 393.972L287.226 394.908C286.68 393.946 285.926 392.88 284.964 391.736L286.316 390.878ZM300.382 382.48H315.67V384.248H309.066V388.824H316.814V390.592H309.066V395.974C310.886 396.234 313.07 396.39 315.67 396.416C316.996 396.416 318.348 396.364 319.752 396.26L319.414 398.132H316.502C311.25 398.132 307.506 397.638 305.218 396.676C303.502 395.87 302.098 394.622 301.032 392.932C300.018 395.168 298.77 397.04 297.288 398.548L296.092 397.066C298.588 394.414 300.252 390.852 301.136 386.38L302.956 386.692C302.644 388.304 302.228 389.786 301.76 391.138C303.008 393.374 304.568 394.778 306.44 395.376C306.674 395.454 306.934 395.532 307.194 395.584V384.248H300.382V382.48ZM318.634 377.41V382.948H316.814V379.126H299.186V383.078H297.366V377.41H307.298C306.908 376.474 306.466 375.616 305.998 374.836L308 374.524C308.416 375.382 308.832 376.344 309.196 377.41H318.634ZM342.034 380.452V392.75H340.162V382.272H327.734V392.802H325.862V380.452H332.44C332.7 379.542 332.882 378.606 333.012 377.618H322.56V375.85H345.44V377.618H334.988C334.832 378.606 334.65 379.568 334.39 380.452H342.034ZM335.716 392.802C339.07 393.946 342.138 395.298 344.894 396.91L343.75 398.678C340.786 396.832 337.77 395.376 334.676 394.336L335.716 392.802ZM333.038 383.832H334.962V387.966C334.858 390.826 333.922 393.088 332.206 394.804C330.542 396.39 327.812 397.612 324.016 398.496L322.95 396.832C326.72 396 329.346 394.908 330.828 393.53C332.232 392.1 332.96 390.254 333.038 387.966V383.832ZM348.43 375.798H371.57V377.618H361.144C360.936 378.762 360.598 379.88 360.182 380.946H370.166V398.678H368.372V397.378H351.706V398.678H349.912V380.946H358.284C358.7 379.854 359.038 378.762 359.246 377.618H348.43V375.798ZM351.706 395.662H355.294V382.636H351.706V395.662ZM357.036 395.662H362.964V392.334H357.036V395.662ZM364.706 395.662H368.372V382.636H364.706V395.662ZM357.036 390.696H362.964V387.524H357.036V390.696ZM357.036 385.86H362.964V382.636H357.036V385.86Z" fill="black"/>
<rect x="95" y="420" width="13.3503" height="13.3503" fill="#88E5E4"/>
<path d="M989.5 340.5V432.5H590.5V340.5H989.5Z" stroke="#C7C8CC"/>
<path d="M652.538 383.832V388.382H659.142V383.832H652.538ZM652.434 390.098C652.148 393.426 651.186 396.182 649.522 398.366L648.092 397.092C649.756 394.778 650.614 391.84 650.666 388.278V375.798H670.036V395.272C670.036 397.092 669.126 398.002 667.306 398.002H664.316L663.822 396.156C664.862 396.208 665.824 396.26 666.708 396.26C667.644 396.26 668.138 395.714 668.138 394.622V390.098H661.066V397.716H659.142V390.098H652.434ZM668.138 388.382V383.832H661.066V388.382H668.138ZM668.138 382.09V377.618H661.066V382.09H668.138ZM659.142 377.618H652.538V382.09H659.142V377.618ZM693.774 379.802H678.928V384.872H693.774V379.802ZM678.928 386.692C678.798 391.346 677.576 395.35 675.236 398.704L673.858 397.456C675.964 394.544 677.03 390.748 677.082 386.094V377.956H685.558C685.09 376.864 684.596 375.85 684.05 374.914L686.052 374.602C686.52 375.59 686.988 376.708 687.456 377.956H695.672V386.692H678.928ZM704.2 375.642H720.008V384.664H704.2V375.642ZM718.162 383.078V380.946H706.046V383.078H718.162ZM706.046 379.412H718.162V377.254H706.046V379.412ZM711.35 388.304H700.508V386.588H723.518V388.304H713.248V391.242H720.736V392.906H713.248V396.364C714.496 396.468 716.004 396.546 717.72 396.546C719.956 396.546 721.854 396.52 723.388 396.468L722.868 398.236C720.996 398.236 719.332 398.21 717.85 398.184C713.56 398.184 710.648 397.846 709.114 397.196C707.788 396.598 706.592 395.454 705.552 393.738C704.538 395.662 703.238 397.248 701.678 398.522L700.456 396.988C702.848 395.064 704.486 392.464 705.344 389.214L707.112 389.526C706.852 390.488 706.566 391.398 706.228 392.256C707.32 394.076 708.568 395.22 709.92 395.714C710.336 395.844 710.804 395.974 711.35 396.078V388.304ZM727.522 375.98H748.582V377.8H740.288C739.872 378.372 739.404 378.944 738.936 379.464V388.07H737.064V381.258C734.62 383.286 731.422 385.08 727.47 386.666L726.3 385.132C731.864 383.078 735.816 380.634 738.156 377.8H727.522V375.98ZM746.632 388.98V398.496H744.734V397.274H731.318V398.496H729.42V388.98H746.632ZM731.318 395.454H744.734V390.8H731.318V395.454ZM741.666 380.114C744.786 381.882 747.386 383.676 749.492 385.47L748.14 386.848C746.268 385.132 743.694 383.286 740.418 381.31L741.666 380.114ZM752.482 387.108H775.518V388.72H764.546L763.662 390.592H773.776V396.286C773.776 397.794 772.996 398.574 771.462 398.574H769.616L769.2 396.962L770.942 397.04C771.618 397.04 771.956 396.65 771.956 395.896V392.204H767.77V398.366H765.976V392.204H762.128V398.366H760.334V392.204H756.434V398.678H754.666V390.592H761.764L762.648 388.72H752.482V387.108ZM754.068 375.642H773.958V377.176H764.91V378.814H774.894V384.17H773.1V380.296H764.91V386.042H763.09V380.296H754.9V384.17H753.106V378.814H763.09V377.176H754.068V375.642ZM756.304 381.752H761.712V383H756.304V381.752ZM756.304 384.352H761.712V385.6H756.304V384.352ZM766.262 381.752H771.644V383H766.262V381.752ZM766.288 384.352H771.722V385.6H766.288V384.352ZM778.508 375.798H801.492V377.488H793.822V379.802H799.88V386.354H789.064C788.596 387.186 788.154 387.94 787.738 388.668H801.804V390.384H796.214C795.694 391.944 794.732 393.27 793.354 394.388C796.006 395.194 798.71 396.13 801.466 397.222L800.296 398.756C797.436 397.534 794.55 396.468 791.664 395.532C789.194 396.858 785.138 397.898 779.522 398.652L778.82 396.988C783.448 396.442 786.958 395.714 789.298 394.804C787.14 394.154 784.982 393.582 782.824 393.088C783.448 392.178 784.02 391.268 784.592 390.384H778.17V388.668H785.632C786.1 387.862 786.542 387.082 786.958 386.354H780.12V379.802H786.178V377.488H778.508V375.798ZM791.352 393.79C792.808 392.88 793.796 391.736 794.316 390.384H786.724C786.282 391.086 785.866 391.736 785.476 392.308C787.4 392.724 789.35 393.218 791.352 393.79ZM792.028 379.802V377.488H787.972V379.802H792.028ZM798.086 384.742V381.44H793.822V384.742H798.086ZM792.028 384.742V381.44H787.972V384.742H792.028ZM786.178 384.742V381.44H781.914V384.742H786.178ZM804.612 382.558H813.374C813.868 381.882 814.258 381.18 814.544 380.452C812.23 380.556 809.838 380.634 807.368 380.712L807.082 379.074C808.772 378.658 810.904 377.176 813.478 374.628L815.298 375.252C813.79 376.812 812.282 378.06 810.8 379.022C814.284 378.918 817.56 378.736 820.68 378.528C819.926 377.852 819.12 377.176 818.262 376.474L819.692 375.564C822.266 377.566 824.242 379.308 825.594 380.79L824.034 381.882C823.514 381.258 822.916 380.66 822.266 380.036C820.394 380.14 818.444 380.27 816.442 380.374C816.156 381.128 815.792 381.856 815.376 382.558H827.232V384.274H820.758C822.318 385.834 824.71 387.082 827.934 387.992L827.128 389.708C823.228 388.304 820.446 386.51 818.782 384.274H814.076C812.048 386.536 809.006 388.382 804.95 389.838L804.092 388.174C807.368 387.212 809.942 385.912 811.788 384.274H804.612V382.558ZM816.078 385.184L817.534 386.068C815.792 388.252 813.088 389.968 809.422 391.242L808.616 389.786C811.996 388.642 814.492 387.108 816.078 385.184ZM822.786 389.214L824.45 389.942C822.058 394.206 816.858 397.196 808.876 398.886L807.81 397.43C815.662 395.766 820.654 393.01 822.786 389.214ZM819.38 387.342L820.836 388.33C817.794 391.788 813.946 393.92 809.266 394.752L808.2 393.322C813.01 392.542 816.728 390.54 819.38 387.342ZM834.876 374.654L836.722 374.81L836.358 378.294H852.114V380.088H836.176L835.734 384.326H850.346C850.346 391.398 849.852 395.48 848.864 396.598C847.902 397.664 845.822 398.21 842.65 398.21C841.818 398.21 840.96 398.158 840.076 398.106L839.582 396.39C840.856 396.494 841.74 396.572 842.26 396.572C845.198 396.572 846.966 396.078 847.538 395.09C848.136 394.024 848.448 391.008 848.448 386.068H833.654L834.876 374.654ZM830.3 390.254H844.99V392.048H830.3V390.254ZM858.744 375.928C859.42 377.436 860.018 379.178 860.59 381.102L858.9 381.544C858.432 379.776 857.834 378.086 857.132 376.474L858.744 375.928ZM867.298 375.668L868.936 376.11C868.416 378.216 867.766 380.062 866.986 381.648L865.348 381.05C866.102 379.646 866.752 377.852 867.298 375.668ZM857.054 382.792H862.098V374.862H863.918V382.792H868.884V384.56H863.918C863.866 385.964 863.762 387.29 863.554 388.512H869.612V390.306H863.19C862.28 393.79 860.564 396.546 858.068 398.522L856.586 397.222C858.874 395.532 860.434 393.218 861.292 390.306H856.43V388.512H861.708C861.942 387.264 862.072 385.964 862.098 384.56H857.054V382.792ZM871.588 377.202H873.408V393.244H871.588V377.202ZM876.216 398.366H872.81L872.394 396.572C873.512 396.65 874.578 396.702 875.592 396.702C876.476 396.702 876.918 396.234 876.918 395.298V374.836H878.764V395.766C878.764 397.482 877.906 398.366 876.216 398.366ZM882.95 375.928H884.588V395.012H893.35V396.728H882.95V375.928ZM885.706 383.026H889.554V374.784H891.27V383.026H894.702V384.69H891.27V385.392C892.466 386.588 893.714 387.914 894.962 389.396L893.974 390.878C892.934 389.214 892.024 387.888 891.27 386.9V393.946H889.554V386.978C888.644 388.798 887.448 390.436 885.94 391.918L885.212 390.098C887.188 388.486 888.618 386.692 889.502 384.69H885.706V383.026ZM893.298 376.24L894.832 376.422C894.676 378.398 894.286 380.14 893.662 381.648L892.232 381.206C892.804 379.75 893.142 378.112 893.298 376.24ZM887.136 376.578C887.63 377.982 888.072 379.62 888.488 381.466L887.058 381.804C886.668 380.166 886.2 378.58 885.628 377.072L887.136 376.578ZM898.082 384.586V386.588C898.004 391.788 897.172 395.714 895.586 398.34L893.974 397.56C895.508 394.96 896.314 391.294 896.392 386.588V376.63C899.642 376.5 902.398 375.902 904.634 374.862L905.518 376.422C903.282 377.384 900.786 377.93 898.056 378.086L898.082 382.792H906.012V384.586H903.334V398.626H901.514V384.586H898.082ZM913.734 377.072C915.398 377.072 916.724 377.514 917.738 378.45C918.7 379.334 919.194 380.556 919.194 382.116C919.194 383.286 918.856 384.3 918.206 385.158C917.946 385.47 917.244 386.146 916.1 387.16C915.528 387.654 915.138 388.122 914.878 388.59C914.54 389.162 914.384 389.786 914.384 390.488V391.086H912.304V390.488C912.304 389.63 912.46 388.876 912.772 388.226C913.136 387.446 913.994 386.458 915.398 385.21C915.814 384.794 916.126 384.482 916.282 384.274C916.802 383.624 917.062 382.948 917.062 382.22C917.062 381.18 916.75 380.374 916.178 379.802C915.58 379.178 914.722 378.892 913.63 378.892C912.33 378.892 911.368 379.308 910.744 380.166C910.172 380.894 909.886 381.882 909.886 383.156H907.832C907.832 381.336 908.326 379.88 909.366 378.788C910.406 377.644 911.862 377.072 913.734 377.072ZM913.344 392.906C913.786 392.906 914.176 393.036 914.488 393.348C914.774 393.634 914.93 393.998 914.93 394.44C914.93 394.908 914.774 395.272 914.462 395.558C914.15 395.844 913.786 396 913.344 396C912.902 396 912.538 395.844 912.226 395.558C911.914 395.246 911.784 394.882 911.784 394.44C911.784 393.998 911.914 393.634 912.226 393.348C912.538 393.036 912.902 392.906 913.344 392.906Z" fill="black"/>
<rect x="590" y="422" width="11.0074" height="11.0074" fill="#88E5E4"/>
<path d="M1228.5 569.5V661.5H829.5V569.5H1228.5Z" stroke="#C7C8CC"/>
<path d="M935.712 622.4V624.168C933.06 625.13 930.07 625.91 926.69 626.534L926.456 624.714C929.992 624.142 933.06 623.362 935.712 622.4ZM930.902 603.68L932.644 604.356C931.318 607.736 929.966 610.44 928.614 612.468C929.836 612.312 931.058 612.13 932.306 611.922C932.8 610.986 933.32 610.024 933.84 609.036L935.478 609.634C933.112 614.028 931.136 617.148 929.55 619.02C931.526 618.63 933.476 618.11 935.4 617.46V619.124C932.592 620.086 929.888 620.736 927.288 621.074L926.794 619.384C927.132 619.228 927.418 619.046 927.652 618.838C928.64 617.824 929.862 616.108 931.318 613.664C929.836 613.898 928.354 614.106 926.846 614.314L926.378 612.598C926.664 612.468 926.924 612.234 927.158 611.896C928.614 609.504 929.862 606.774 930.902 603.68ZM935.4 606.982H941.614V603.836H943.512V606.982H949.7V608.802H943.512V612.65H948.946V614.47H936.258V612.65H941.614V608.802H935.4V606.982ZM948.192 617.07V627.522H946.372V626.274H938.936V627.522H937.09V617.07H948.192ZM938.936 624.506H946.372V618.838H938.936V624.506ZM955.264 604.798H972.606V614.86H964.962V617.226H975.31V618.994H966.626C968.472 621.334 971.566 623.44 975.882 625.26L974.608 626.898C970.084 624.532 966.912 621.906 965.092 618.994H964.962V627.574H963.038V618.994H962.934C960.958 622.192 957.734 624.818 953.21 626.872L952.144 625.156C956.382 623.544 959.45 621.49 961.348 618.994H952.69V617.226H963.038V614.86H955.264V604.798ZM970.76 613.222V610.7H964.962V613.222H970.76ZM963.038 613.222V610.7H957.136V613.222H963.038ZM957.136 609.062H963.038V606.462H957.136V609.062ZM964.962 606.462V609.062H970.76V606.462H964.962ZM982.2 604.642H998.008V613.664H982.2V604.642ZM996.162 612.078V609.946H984.046V612.078H996.162ZM984.046 608.412H996.162V606.254H984.046V608.412ZM989.35 617.304H978.508V615.588H1001.52V617.304H991.248V620.242H998.736V621.906H991.248V625.364C992.496 625.468 994.004 625.546 995.72 625.546C997.956 625.546 999.854 625.52 1001.39 625.468L1000.87 627.236C998.996 627.236 997.332 627.21 995.85 627.184C991.56 627.184 988.648 626.846 987.114 626.196C985.788 625.598 984.592 624.454 983.552 622.738C982.538 624.662 981.238 626.248 979.678 627.522L978.456 625.988C980.848 624.064 982.486 621.464 983.344 618.214L985.112 618.526C984.852 619.488 984.566 620.398 984.228 621.256C985.32 623.076 986.568 624.22 987.92 624.714C988.336 624.844 988.804 624.974 989.35 625.078V617.304ZM1005.52 604.98H1026.58V606.8H1018.29C1017.87 607.372 1017.4 607.944 1016.94 608.464V617.07H1015.06V610.258C1012.62 612.286 1009.42 614.08 1005.47 615.666L1004.3 614.132C1009.86 612.078 1013.82 609.634 1016.16 606.8H1005.52V604.98ZM1024.63 617.98V627.496H1022.73V626.274H1009.32V627.496H1007.42V617.98H1024.63ZM1009.32 624.454H1022.73V619.8H1009.32V624.454ZM1019.67 609.114C1022.79 610.882 1025.39 612.676 1027.49 614.47L1026.14 615.848C1024.27 614.132 1021.69 612.286 1018.42 610.31L1019.67 609.114ZM1030.48 616.108H1053.52V617.72H1042.55L1041.66 619.592H1051.78V625.286C1051.78 626.794 1051 627.574 1049.46 627.574H1047.62L1047.2 625.962L1048.94 626.04C1049.62 626.04 1049.96 625.65 1049.96 624.896V621.204H1045.77V627.366H1043.98V621.204H1040.13V627.366H1038.33V621.204H1034.43V627.678H1032.67V619.592H1039.76L1040.65 617.72H1030.48V616.108ZM1032.07 604.642H1051.96V606.176H1042.91V607.814H1052.89V613.17H1051.1V609.296H1042.91V615.042H1041.09V609.296H1032.9V613.17H1031.11V607.814H1041.09V606.176H1032.07V604.642ZM1034.3 610.752H1039.71V612H1034.3V610.752ZM1034.3 613.352H1039.71V614.6H1034.3V613.352ZM1044.26 610.752H1049.64V612H1044.26V610.752ZM1044.29 613.352H1049.72V614.6H1044.29V613.352ZM1056.51 604.798H1079.49V606.488H1071.82V608.802H1077.88V615.354H1067.06C1066.6 616.186 1066.15 616.94 1065.74 617.668H1079.8V619.384H1074.21C1073.69 620.944 1072.73 622.27 1071.35 623.388C1074.01 624.194 1076.71 625.13 1079.47 626.222L1078.3 627.756C1075.44 626.534 1072.55 625.468 1069.66 624.532C1067.19 625.858 1063.14 626.898 1057.52 627.652L1056.82 625.988C1061.45 625.442 1064.96 624.714 1067.3 623.804C1065.14 623.154 1062.98 622.582 1060.82 622.088C1061.45 621.178 1062.02 620.268 1062.59 619.384H1056.17V617.668H1063.63C1064.1 616.862 1064.54 616.082 1064.96 615.354H1058.12V608.802H1064.18V606.488H1056.51V604.798ZM1069.35 622.79C1070.81 621.88 1071.8 620.736 1072.32 619.384H1064.72C1064.28 620.086 1063.87 620.736 1063.48 621.308C1065.4 621.724 1067.35 622.218 1069.35 622.79ZM1070.03 608.802V606.488H1065.97V608.802H1070.03ZM1076.09 613.742V610.44H1071.82V613.742H1076.09ZM1070.03 613.742V610.44H1065.97V613.742H1070.03ZM1064.18 613.742V610.44H1059.91V613.742H1064.18ZM1084.22 604.382C1085.91 605.63 1087.34 606.904 1088.51 608.152L1087.19 609.478C1086.15 608.282 1084.72 607.008 1082.92 605.656L1084.22 604.382ZM1083.63 610.44C1085.34 611.74 1086.77 613.014 1087.94 614.314L1086.59 615.64C1085.55 614.418 1084.12 613.118 1082.3 611.74L1083.63 610.44ZM1086.62 617.486L1088.31 618.162C1087.21 621.412 1086.02 624.454 1084.69 627.314L1082.9 626.508C1084.33 623.57 1085.58 620.554 1086.62 617.486ZM1104.74 604.798V610.466H1102.92V606.54H1091.35V610.466H1089.53V604.798H1104.74ZM1092.86 617.564V610.986H1101.23V624.454C1101.23 625.052 1101.49 625.364 1101.96 625.39H1103.07C1103.59 625.39 1103.88 625 1103.98 624.246C1104.04 623.31 1104.06 621.906 1104.06 620.06L1105.75 620.554C1105.73 622.738 1105.65 624.298 1105.49 625.182C1105.23 626.378 1104.45 627.002 1103.1 627.002H1101.7C1100.21 627.002 1099.49 626.222 1099.49 624.662V612.65H1094.57V617.746C1094.47 622.114 1092.91 625.39 1089.92 627.626L1088.41 626.274C1091.32 624.35 1092.8 621.464 1092.86 617.564ZM1110.04 604.304C1111.6 605.526 1112.93 606.748 1114.02 607.97L1112.69 609.322C1111.73 608.152 1110.41 606.904 1108.69 605.604L1110.04 604.304ZM1109.57 610.544C1111.26 611.844 1112.67 613.118 1113.81 614.418L1112.49 615.77C1111.47 614.522 1110.07 613.222 1108.25 611.818L1109.57 610.544ZM1112.59 617.772L1114.28 618.448C1113.06 621.62 1111.71 624.584 1110.2 627.34L1108.33 626.534C1109.96 623.674 1111.39 620.762 1112.59 617.772ZM1130.89 606.696V611.87H1129.67V613.378H1124.21V617.668H1129.65V619.384H1124.21V625.182C1125.36 625.442 1126.84 625.572 1128.61 625.598C1129.8 625.598 1130.92 625.546 1131.96 625.494L1131.6 627.366C1127.18 627.366 1124.21 627.08 1122.73 626.534C1120.91 625.936 1119.32 624.61 1117.97 622.53C1117.22 624.558 1116.28 626.248 1115.19 627.6L1113.73 626.56C1115.81 623.96 1117.14 620.372 1117.74 615.77L1119.48 616.056C1119.25 617.72 1118.93 619.28 1118.54 620.684C1119.66 622.53 1120.96 623.804 1122.44 624.532V613.378H1116.52V611.87H1115.14V606.696H1122.31C1121.9 605.734 1121.46 604.85 1120.99 604.044L1122.89 603.732C1123.35 604.616 1123.77 605.604 1124.19 606.696H1130.89ZM1116.91 611.662H1129.13V608.386H1116.91V611.662Z" fill="black"/>
<rect x="829" y="651" width="11.0074" height="11.0074" fill="#88E5E4"/>
<path d="M989.5 798.5V890.5H590.5V798.5H989.5Z" stroke="#C7C8CC"/>
<path d="M661.766 839.414C660.726 841.78 659.4 843.756 657.788 845.368L656.592 843.834C659.036 841.286 660.7 837.828 661.558 833.486L663.456 833.824C663.17 835.176 662.832 836.424 662.442 837.594H668.006V832.966H669.904V837.594H678.458V839.414H669.904V845.42H677.938V847.24H669.904V853.844H680.122V855.716H657.216V853.844H668.006V847.24H660.362V845.42H668.006V839.414H661.766ZM700.844 832.68C702.092 833.616 703.158 834.578 704.042 835.54L702.846 836.736H706.018V838.53H698.01C698.192 841.754 698.53 844.302 698.998 846.174C699.154 846.824 699.336 847.422 699.518 847.994C700.818 845.914 701.858 843.47 702.664 840.688L704.354 841.416C703.314 844.848 701.962 847.76 700.298 850.1C700.662 850.932 701.052 851.66 701.468 852.258C702.326 853.506 703.028 854.13 703.548 854.13C704.016 854.104 704.458 852.752 704.848 850.074L706.538 851.01C705.914 854.468 705.03 856.21 703.86 856.21C702.768 856.21 701.598 855.43 700.35 853.87C699.882 853.246 699.44 852.518 699.05 851.712C697.23 853.844 695.098 855.43 692.654 856.522L691.614 854.962C694.214 853.792 696.424 852.076 698.218 849.814C697.854 848.852 697.516 847.812 697.23 846.694C696.658 844.51 696.294 841.78 696.086 838.53H687.168V842.846H693.538C693.486 847.24 693.278 850.074 692.94 851.348C692.602 852.466 691.796 853.038 690.496 853.09C689.872 853.09 689.118 853.038 688.286 852.986L687.714 851.296C688.728 851.348 689.586 851.374 690.288 851.374C690.86 851.348 691.224 850.958 691.38 850.23C691.536 849.346 691.614 847.474 691.666 844.614H687.168V845.394C687.064 850.048 686.024 853.792 684.1 856.6L682.67 855.326C684.334 852.934 685.192 849.632 685.27 845.394V836.736H696.008C695.956 835.436 695.93 834.11 695.93 832.706H697.854C697.854 834.162 697.88 835.488 697.932 836.736H702.794C702.014 835.8 700.974 834.838 699.648 833.824L700.844 832.68ZM709.19 837.412H721.904C721.826 835.93 721.8 834.396 721.8 832.81H723.724C723.724 834.422 723.75 835.956 723.828 837.412H731.862V839.232H723.932C724.244 843.6 724.92 847.214 725.934 850.126C727.026 852.986 728.014 854.442 728.872 854.442C729.392 854.364 729.938 852.882 730.484 849.97L732.174 850.854C731.394 854.598 730.328 856.496 729.002 856.522C726.688 856.418 724.764 853.506 723.204 847.838C722.606 845.368 722.216 842.508 722.008 839.232H709.19V837.412ZM709.58 843.548H720.604V845.316H716.028V852.076C717.952 851.712 719.798 851.27 721.618 850.802V852.622C717.874 853.532 713.818 854.286 709.502 854.91L709.06 853.142C710.776 852.934 712.492 852.674 714.156 852.414V845.316H709.58V843.548ZM727.65 832.94C728.508 833.98 729.314 835.124 730.094 836.372L728.534 837.152C727.78 835.852 726.974 834.708 726.09 833.694L727.65 832.94ZM746.552 832.42C746.968 833.304 747.384 834.318 747.774 835.436H756.9V837.23H752.376C752.064 838.608 751.648 839.934 751.102 841.182H757.446V842.976H738.778V846.824C738.674 850.88 737.738 854.13 735.944 856.574L734.514 855.3C736.022 853.272 736.828 850.438 736.88 846.824V841.182H742.21L741.118 837.23H736.36V835.436H745.876C745.512 834.448 745.07 833.564 744.602 832.758L746.552 832.42ZM744.056 841.182H749.308C749.88 839.934 750.322 838.608 750.582 837.23H742.964L744.056 841.182ZM772.552 832.732L774.32 833.2C774.034 834.552 773.722 835.8 773.358 836.944H783.446C783.446 845.628 783.316 850.984 783.056 853.012C782.77 855.3 781.366 856.444 778.844 856.444C778.48 856.444 777.83 856.418 776.894 856.366L776.452 854.676C777.284 854.728 777.986 854.78 778.584 854.78C780.17 854.78 781.08 853.948 781.314 852.284C781.496 850.828 781.6 846.304 781.652 838.764H779.884C779.312 843.106 778.532 846.538 777.518 849.06C776.322 851.764 774.554 854.208 772.188 856.366L771.044 854.884C773.228 852.908 774.84 850.724 775.932 848.332C776.946 845.914 777.7 842.716 778.194 838.764H776.166C775.126 844.432 773.15 848.54 770.238 851.114L769.016 849.71C771.694 847.422 773.514 843.756 774.502 838.764H772.708C772.006 840.428 771.226 841.78 770.342 842.872L768.964 841.702C770.628 839.622 771.824 836.632 772.552 832.732ZM763.14 840.012C762.854 841.312 762.516 842.586 762.1 843.808L760.462 843.34C761.45 840.584 761.996 837.698 762.126 834.656L763.764 834.786C763.712 835.93 763.608 837.074 763.452 838.192H765.272V832.784H767.092V838.192H769.276V840.012H767.092V846.252C767.82 845.914 768.496 845.576 769.172 845.212V846.98C768.496 847.344 767.794 847.682 767.092 848.02V856.6H765.272V848.8C763.946 849.32 762.594 849.814 761.19 850.256L760.748 848.436C762.308 848.072 763.816 847.604 765.272 847.032V840.012H763.14Z" fill="black"/>
<path d="M803.96 835.072C806.274 835.072 808.12 835.618 809.498 836.762C810.798 837.828 811.604 839.362 811.942 841.39H809.81C809.524 839.986 808.9 838.92 807.938 838.166C806.924 837.36 805.598 836.97 803.96 836.97C801.932 836.97 800.346 837.672 799.15 839.102C797.954 840.506 797.382 842.404 797.382 844.796C797.382 847.136 797.954 848.982 799.098 850.334C800.32 851.764 802.14 852.492 804.558 852.492C805.572 852.492 806.534 852.336 807.47 852.076C808.38 851.816 809.16 851.452 809.81 851.036V846.304H803.986V844.458H811.916V852.05C811.032 852.778 809.94 853.324 808.666 853.74C807.314 854.156 805.884 854.364 804.35 854.364C801.412 854.364 799.124 853.428 797.512 851.556C796.004 849.814 795.25 847.552 795.25 844.796C795.25 842.04 795.978 839.778 797.486 837.984C799.072 836.034 801.23 835.072 803.96 835.072ZM820.757 840.194C822.915 840.194 824.553 840.922 825.645 842.378C826.633 843.678 827.153 845.524 827.205 847.864H816.597C816.701 849.372 817.091 850.542 817.819 851.374C818.547 852.206 819.561 852.622 820.835 852.622C821.927 852.622 822.837 852.336 823.513 851.79C824.085 851.322 824.527 850.62 824.865 849.684H826.945C826.633 850.984 826.035 852.024 825.125 852.856C824.007 853.844 822.577 854.364 820.835 854.364C818.911 854.364 817.351 853.714 816.207 852.466C815.011 851.166 814.439 849.45 814.439 847.266C814.439 845.29 814.985 843.626 816.129 842.3C817.273 840.896 818.807 840.194 820.757 840.194ZM820.809 841.936C819.613 841.936 818.651 842.326 817.923 843.106C817.195 843.886 816.779 844.926 816.649 846.252H825.047C824.787 843.366 823.357 841.936 820.809 841.936ZM835.933 840.194C839.261 840.194 840.951 842.04 840.951 845.732V854H838.871V845.888C838.871 843.262 837.675 841.962 835.335 841.962C834.399 841.962 833.593 842.3 832.917 842.976C832.189 843.704 831.799 844.666 831.721 845.888V854H829.641V840.558H831.721V842.534C832.189 841.78 832.787 841.208 833.515 840.818C834.243 840.402 835.049 840.194 835.933 840.194ZM844.425 835.436H852.433C854.279 835.436 855.735 835.852 856.801 836.71C857.893 837.594 858.465 838.894 858.465 840.61C858.465 841.65 858.179 842.56 857.607 843.366C856.983 844.198 856.151 844.718 855.085 844.978V845.03C856.853 845.42 857.841 846.538 858.049 848.41L858.335 851.27C858.439 852.414 858.777 853.324 859.323 854H857.009C856.593 853.376 856.333 852.57 856.255 851.53L856.021 849.06C855.917 847.968 855.527 847.162 854.851 846.694C854.227 846.226 853.343 846.018 852.173 846.018H846.557V854H844.425V835.436ZM846.557 837.282V844.172H852.173C853.525 844.172 854.591 843.834 855.319 843.21C855.969 842.612 856.307 841.78 856.307 840.688C856.307 839.544 855.969 838.686 855.345 838.14C854.669 837.568 853.603 837.282 852.173 837.282H846.557ZM867.273 840.194C869.431 840.194 871.069 840.922 872.161 842.378C873.149 843.678 873.669 845.524 873.721 847.864H863.113C863.217 849.372 863.607 850.542 864.335 851.374C865.063 852.206 866.077 852.622 867.351 852.622C868.443 852.622 869.353 852.336 870.029 851.79C870.601 851.322 871.043 850.62 871.381 849.684H873.461C873.149 850.984 872.551 852.024 871.641 852.856C870.523 853.844 869.093 854.364 867.351 854.364C865.427 854.364 863.867 853.714 862.723 852.466C861.527 851.166 860.955 849.45 860.955 847.266C860.955 845.29 861.501 843.626 862.645 842.3C863.789 840.896 865.323 840.194 867.273 840.194ZM867.325 841.936C866.129 841.936 865.167 842.326 864.439 843.106C863.711 843.886 863.295 844.926 863.165 846.252H871.563C871.303 843.366 869.873 841.936 867.325 841.936ZM882.579 840.194C884.503 840.194 886.037 840.896 887.155 842.352C888.169 843.652 888.689 845.29 888.689 847.318C888.689 849.294 888.169 850.932 887.181 852.232C886.089 853.636 884.607 854.364 882.683 854.364C880.759 854.364 879.277 853.428 878.237 851.556V859.148H876.157V840.558H878.107V842.768C879.069 841.052 880.551 840.194 882.579 840.194ZM882.319 841.91C880.967 841.91 879.901 842.43 879.173 843.496C878.497 844.432 878.159 845.68 878.159 847.188V847.448C878.159 849.008 878.523 850.256 879.303 851.218C880.031 852.154 880.993 852.648 882.241 852.648C883.697 852.648 884.789 852.128 885.543 851.14C886.219 850.204 886.557 848.93 886.557 847.318C886.557 845.732 886.219 844.458 885.595 843.522C884.841 842.43 883.749 841.91 882.319 841.91ZM897.397 840.194C899.399 840.194 901.011 840.87 902.207 842.274C903.351 843.6 903.923 845.264 903.923 847.292C903.923 849.294 903.351 850.958 902.233 852.258C901.011 853.662 899.399 854.364 897.397 854.364C895.369 854.364 893.783 853.662 892.587 852.258C891.443 850.958 890.871 849.294 890.871 847.292C890.871 845.264 891.443 843.6 892.587 842.274C893.783 840.87 895.369 840.194 897.397 840.194ZM897.397 841.936C895.967 841.936 894.849 842.482 894.069 843.574C893.341 844.562 893.003 845.784 893.003 847.292C893.003 848.774 893.341 849.996 894.069 850.984C894.849 852.076 895.967 852.622 897.397 852.622C898.801 852.622 899.919 852.076 900.751 850.984C901.453 849.996 901.817 848.748 901.817 847.292C901.817 845.784 901.453 844.562 900.751 843.574C899.919 842.482 898.801 841.936 897.397 841.936ZM912.528 840.194C913.256 840.194 913.88 840.298 914.374 840.506V842.586C913.698 842.378 913.022 842.3 912.372 842.3C911.332 842.3 910.448 842.742 909.746 843.678C909.018 844.562 908.68 845.628 908.68 846.876V854H906.626V840.558H908.68V842.898C909.044 842.118 909.512 841.494 910.084 841.052C910.786 840.48 911.592 840.194 912.528 840.194ZM919.71 836.216V840.558H923.038V842.3H919.71V850.854C919.71 851.348 919.788 851.712 919.996 851.92C920.178 852.128 920.516 852.258 920.984 852.258H922.7V854H920.672C919.58 854 918.774 853.714 918.306 853.142C917.864 852.622 917.656 851.868 917.656 850.854V842.3H914.952V840.558H917.656V837.074L919.71 836.216Z" fill="#8E929A"/>
<rect x="590" y="880" width="11.0074" height="11.0074" fill="#88E5E4"/>
<path d="M494.5 798.5V890.5H95.5V798.5H494.5Z" stroke="#C7C8CC"/>
<path d="M144.198 833.122C145.966 834.5 147.448 835.878 148.644 837.23L147.292 838.608C146.226 837.282 144.77 835.852 142.898 834.344L144.198 833.122ZM160.006 856.132C158.524 856.132 156.912 856.106 155.17 856.08C153.402 856.054 151.972 855.898 150.906 855.612C149.814 855.3 148.852 854.65 148.02 853.714C147.656 853.272 147.292 853.064 146.954 853.064C146.33 853.064 145.264 854.26 143.808 856.704L142.404 855.456C143.808 853.22 145.03 851.868 146.122 851.4V843.522H142.378V841.754H147.916V851.504C148.124 851.66 148.358 851.842 148.592 852.102C149.268 852.83 149.97 853.376 150.724 853.74C151.556 854.078 152.804 854.26 154.416 854.312C155.846 854.338 157.64 854.364 159.772 854.364C160.916 854.364 162.06 854.338 163.256 854.338C164.426 854.312 165.336 854.286 165.96 854.234L165.492 856.132H160.006ZM159.226 852.648H155.534L155.118 850.854C156.314 850.932 157.484 850.984 158.576 850.984C159.304 850.984 159.694 850.62 159.694 849.918V838.868H149.866V837.022H159.694V832.81H161.592V837.022H165.44V838.868H161.592V850.36C161.592 851.868 160.786 852.648 159.226 852.648ZM152.7 841.182C154.364 843.106 155.638 844.796 156.522 846.252L155.014 847.292C154.078 845.732 152.83 844.016 151.244 842.118L152.7 841.182ZM179.246 833.72H190.036V841.234H179.246V833.72ZM188.216 839.544V835.384H181.092V839.544H188.216ZM178.232 843.652H191.154V845.368H185.486V848.696H190.348V850.386H185.486V853.896H191.778V855.664H177.192V853.896H183.562V850.386H178.83V848.696H183.562V845.368H178.232V843.652ZM168.508 839.882H172.304V836.112C171.212 836.268 170.068 836.424 168.898 836.554L168.534 834.786C171.784 834.474 174.67 833.928 177.166 833.148L177.816 834.916C176.646 835.254 175.398 835.54 174.098 835.8V839.882H177.452V841.676H174.098V843.054C175.32 844.25 176.568 845.602 177.816 847.084L176.776 848.644C175.736 847.032 174.826 845.732 174.098 844.77V856.496H172.304V844.77C171.394 847.318 170.198 849.606 168.716 851.66L167.91 849.58C169.886 847.266 171.29 844.64 172.122 841.676H168.508V839.882ZM201.97 841.156C201.658 842.378 201.32 843.522 200.982 844.588H214.944C214.866 850.932 214.45 854.52 213.67 855.352C213.02 856.054 211.616 856.418 209.458 856.444H207.196L206.676 854.702C207.716 854.728 208.652 854.754 209.536 854.754C210.94 854.728 211.824 854.468 212.24 854C212.708 853.454 212.994 850.906 213.072 846.33H198.616C199.708 842.69 200.54 839.466 201.086 836.684L202.932 836.866C202.75 837.75 202.568 838.582 202.386 839.388H212.994V841.156H201.97ZM194.898 849.45H210.498V851.244H194.898V849.45ZM216.374 833.85V839.492H214.528V835.618H197.472V839.466H195.626V833.85H216.374ZM231.584 838.27C230.388 840.792 229.01 842.976 227.45 844.848L226.124 843.262C228.412 840.558 230.31 836.996 231.766 832.602L233.638 833.018C233.222 834.214 232.806 835.358 232.39 836.424H243.622V838.27H234.886V842.56H242.478V844.38H234.886V848.774H242.634V850.568H234.886V856.626H232.988V838.27H231.584ZM223.264 842.014C222.432 843.106 221.522 844.146 220.534 845.134L219.91 843.158C222.718 840.116 224.772 836.632 226.046 832.68L227.814 833.512C227.112 835.54 226.228 837.438 225.188 839.206V856.626H223.264V842.014Z" fill="black"/>
<path d="M260.964 835.436H263.434L270.74 854H268.426L266.45 848.8H257.922L255.946 854H253.658L260.964 835.436ZM258.598 847.006H265.774L262.264 837.724H262.16L258.598 847.006ZM278.806 835.072C280.522 835.072 281.926 835.566 283.044 836.554C284.136 837.542 284.708 838.868 284.708 840.48C284.708 842.092 284.084 843.548 282.888 844.848C282.238 845.524 280.964 846.538 279.04 847.838C276.674 849.424 275.322 850.854 274.984 852.102H284.734V854H272.358C272.358 852.31 272.956 850.776 274.204 849.398C274.932 848.566 276.258 847.448 278.234 846.096C279.69 845.056 280.652 844.302 281.146 843.782C282.082 842.768 282.576 841.65 282.576 840.454C282.576 839.31 282.238 838.452 281.562 837.828C280.886 837.204 279.924 836.892 278.728 836.892C277.454 836.892 276.466 837.308 275.79 838.192C275.062 839.024 274.672 840.272 274.646 841.91H272.514C272.514 839.83 273.112 838.166 274.256 836.944C275.4 835.696 276.934 835.072 278.806 835.072ZM288.208 835.436H290.34V846.902C290.34 848.722 290.73 850.1 291.562 851.036C292.42 851.998 293.772 852.492 295.618 852.492C297.438 852.492 298.79 851.998 299.674 851.036C300.48 850.1 300.896 848.722 300.896 846.902V835.436H303.028V846.876C303.028 849.294 302.404 851.14 301.182 852.414C299.908 853.714 298.062 854.364 295.618 854.364C293.174 854.364 291.328 853.714 290.08 852.44C288.832 851.14 288.208 849.294 288.208 846.876V835.436ZM306.924 835.436H309.03V854H306.924V835.436ZM329.917 832.68H331.763L322.559 856.6H320.687L329.917 832.68ZM343.255 835.436H355.683V837.282H345.387V843.522H355.137V845.368H345.387V854H343.255V835.436ZM358.417 835.072H360.471V854H358.417V835.072ZM369.658 840.194C371.816 840.194 373.454 840.922 374.546 842.378C375.534 843.678 376.054 845.524 376.106 847.864H365.498C365.602 849.372 365.992 850.542 366.72 851.374C367.448 852.206 368.462 852.622 369.736 852.622C370.828 852.622 371.738 852.336 372.414 851.79C372.986 851.322 373.428 850.62 373.766 849.684H375.846C375.534 850.984 374.936 852.024 374.026 852.856C372.908 853.844 371.478 854.364 369.736 854.364C367.812 854.364 366.252 853.714 365.108 852.466C363.912 851.166 363.34 849.45 363.34 847.266C363.34 845.29 363.886 843.626 365.03 842.3C366.174 840.896 367.708 840.194 369.658 840.194ZM369.71 841.936C368.514 841.936 367.552 842.326 366.824 843.106C366.096 843.886 365.68 844.926 365.55 846.252H373.948C373.688 843.366 372.258 841.936 369.71 841.936ZM377.632 840.558H380.076L383.56 845.342L387.018 840.558H389.462L384.704 846.876L390.034 854H387.564L383.56 848.41L379.53 854H377.06L382.39 846.876L377.632 840.558ZM400.038 835.072C402.092 835.072 403.834 835.618 405.238 836.71C406.642 837.802 407.474 839.284 407.734 841.13H405.68C405.42 839.778 404.744 838.738 403.704 838.01C402.69 837.308 401.468 836.97 400.012 836.97C397.854 836.97 396.19 837.724 395.02 839.232C393.928 840.636 393.382 842.482 393.382 844.796C393.382 847.11 393.902 848.956 394.994 850.308C396.138 851.738 397.776 852.466 399.96 852.466C401.442 852.466 402.69 852.076 403.73 851.296C404.822 850.464 405.576 849.242 405.94 847.63H407.994C407.578 849.788 406.616 851.478 405.082 852.674C403.652 853.792 401.936 854.364 399.96 854.364C397.074 854.364 394.864 853.402 393.33 851.504C391.926 849.788 391.25 847.552 391.25 844.796C391.25 842.04 391.952 839.778 393.382 838.01C394.942 836.034 397.178 835.072 400.038 835.072ZM416.536 840.194C418.46 840.194 419.864 840.688 420.8 841.702C421.58 842.586 421.996 843.808 421.996 845.368V854H420.046V851.738C419.526 852.466 418.824 853.064 417.992 853.532C417.004 854.078 415.886 854.364 414.638 854.364C413.286 854.364 412.22 854.026 411.414 853.35C410.582 852.648 410.166 851.738 410.166 850.646C410.166 849.112 410.764 847.968 412.012 847.188C413.104 846.46 414.664 846.07 416.692 846.044L419.916 845.992V845.29C419.916 843.028 418.746 841.91 416.406 841.91C415.418 841.91 414.612 842.092 413.988 842.508C413.286 842.924 412.844 843.574 412.636 844.432L410.582 844.276C410.868 842.872 411.57 841.806 412.662 841.13C413.65 840.506 414.924 840.194 416.536 840.194ZM419.916 847.552L416.822 847.604C413.806 847.656 412.298 848.644 412.298 850.594C412.298 851.218 412.532 851.712 413.052 852.128C413.572 852.518 414.248 852.726 415.08 852.726C416.354 852.726 417.472 852.31 418.46 851.478C419.422 850.672 419.916 849.736 419.916 848.696V847.552ZM431.112 840.194C431.84 840.194 432.464 840.298 432.958 840.506V842.586C432.282 842.378 431.606 842.3 430.956 842.3C429.916 842.3 429.032 842.742 428.33 843.678C427.602 844.562 427.264 845.628 427.264 846.876V854H425.21V840.558H427.264V842.898C427.628 842.118 428.096 841.494 428.668 841.052C429.37 840.48 430.176 840.194 431.112 840.194ZM444.638 835.072H446.718V854H444.768V851.79C443.832 853.506 442.324 854.364 440.296 854.364C438.32 854.364 436.786 853.636 435.694 852.232C434.68 850.932 434.186 849.268 434.186 847.24C434.186 845.264 434.68 843.652 435.694 842.352C436.786 840.896 438.268 840.194 440.192 840.194C442.116 840.194 443.598 841.13 444.638 843.028V835.072ZM440.634 841.91C439.152 841.91 438.034 842.43 437.306 843.47C436.63 844.38 436.318 845.628 436.318 847.24C436.318 848.852 436.63 850.126 437.28 851.062C438.008 852.102 439.1 852.648 440.556 852.648C441.908 852.648 442.948 852.128 443.702 851.088C444.352 850.152 444.69 848.93 444.69 847.422V847.162C444.69 845.602 444.3 844.328 443.572 843.366C442.818 842.378 441.83 841.91 440.634 841.91Z" fill="#8E929A"/>
<rect x="95" y="880" width="11.0074" height="11.0074" fill="#88E5E4"/>
<path d="M990.5 1027.5V1119.5H591.5V1027.5H990.5Z" stroke="#C7C8CC"/>
<path d="M692.538 1070.83V1075.38H699.142V1070.83H692.538ZM692.434 1077.1C692.148 1080.43 691.186 1083.18 689.522 1085.37L688.092 1084.09C689.756 1081.78 690.614 1078.84 690.666 1075.28V1062.8H710.036V1082.27C710.036 1084.09 709.126 1085 707.306 1085H704.316L703.822 1083.16C704.862 1083.21 705.824 1083.26 706.708 1083.26C707.644 1083.26 708.138 1082.71 708.138 1081.62V1077.1H701.066V1084.72H699.142V1077.1H692.434ZM708.138 1075.38V1070.83H701.066V1075.38H708.138ZM708.138 1069.09V1064.62H701.066V1069.09H708.138ZM699.142 1064.62H692.538V1069.09H699.142V1064.62ZM723.244 1079.78V1081.54C720.8 1082.69 717.992 1083.62 714.82 1084.3L714.586 1082.45C717.914 1081.78 720.8 1080.89 723.244 1079.78ZM719.162 1061.78L720.93 1062.49C719.526 1065.71 718.122 1068.28 716.692 1070.21C717.94 1070.1 719.162 1069.92 720.41 1069.71C720.956 1068.75 721.528 1067.71 722.126 1066.59L723.816 1067.24C721.32 1071.72 719.266 1074.89 717.628 1076.79C719.552 1076.37 721.476 1075.8 723.4 1075.07V1076.79C720.566 1077.8 717.862 1078.5 715.262 1078.87L714.768 1077.12C715.106 1076.97 715.392 1076.79 715.626 1076.58C716.666 1075.56 717.914 1073.85 719.396 1071.43C717.888 1071.66 716.38 1071.87 714.82 1072.08L714.352 1070.34C714.638 1070.23 714.898 1070 715.158 1069.64C716.692 1067.35 718.018 1064.75 719.162 1061.78ZM735.62 1062.98V1082.87H737.83V1084.69H722.802V1082.87H725.064V1062.98H735.62ZM726.91 1082.87H733.774V1077.93H726.91V1082.87ZM726.91 1076.16H733.774V1071.25H726.91V1076.16ZM726.91 1069.48H733.774V1064.77H726.91V1069.48ZM745.812 1061.6L747.58 1062.41C746.904 1064.46 746.046 1066.41 745.006 1068.26V1085.63H743.16V1071.12C742.328 1072.26 741.418 1073.35 740.43 1074.39L739.832 1072.39C742.588 1069.27 744.564 1065.66 745.812 1061.6ZM750.18 1063.32L752.026 1063.55C751.818 1064.85 751.532 1066.1 751.168 1067.24H754.99V1061.84H756.862V1067.24H762.842V1069.06H756.862V1075.33H763.804V1077.12H756.862V1085.5H754.99V1077.12H747.346V1075.33H754.99V1069.06H750.57C749.92 1070.78 749.114 1072.31 748.152 1073.67L746.956 1072.11C748.542 1069.71 749.608 1066.78 750.18 1063.32ZM788.66 1063.53V1084.56H786.84V1082.51H780.522V1084.82H778.728V1063.53H788.66ZM780.522 1080.74H786.84V1065.27H780.522V1080.74ZM766.846 1068.91H771.396V1065.16C770.096 1065.37 768.77 1065.53 767.418 1065.63L766.82 1063.97C770.694 1063.66 773.918 1063.01 776.518 1062.02L777.402 1063.58C776.05 1064.07 774.672 1064.49 773.216 1064.8V1068.91H777.662V1070.65H773.216V1071.95C774.724 1073.28 776.232 1074.78 777.766 1076.5L776.674 1078.11C775.322 1076.27 774.178 1074.78 773.216 1073.69V1085.42H771.396V1073.87C770.278 1076.34 768.796 1078.58 766.95 1080.58L766.17 1078.55C768.588 1076.27 770.33 1073.69 771.396 1070.83V1070.65H766.846V1068.91ZM792.846 1065.53H796.564V1061.97H798.436V1065.53H801.894V1067.32H798.436V1071.61H802.258V1073.43H798.332C798.28 1074.11 798.202 1074.76 798.124 1075.38C799.58 1076.76 801.088 1078.35 802.596 1080.11L801.556 1081.73C800.1 1079.75 798.852 1078.22 797.838 1077.1C797.084 1080.76 795.654 1083.62 793.522 1085.68L792.144 1084.46C794.666 1082.01 796.096 1078.35 796.46 1073.43H792.482V1071.61H796.564V1067.32H792.846V1065.53ZM813.958 1062.85V1077.12H812.164V1064.59H805.222V1077.12H803.428V1062.85H813.958ZM813.256 1085.26H811.098C809.746 1085.26 809.096 1084.53 809.096 1083.1V1077.25H810.786V1082.71C810.786 1083.29 811.046 1083.57 811.618 1083.57H812.944C813.386 1083.57 813.698 1083.44 813.88 1083.18C814.114 1082.84 814.27 1081.86 814.374 1080.24L815.986 1080.76C815.83 1082.9 815.518 1084.2 815.102 1084.66C814.686 1085.05 814.088 1085.26 813.256 1085.26ZM807.848 1066.75H809.538V1071.35C809.486 1075.23 808.784 1078.32 807.458 1080.63C806.158 1082.77 804.026 1084.46 801.114 1085.68L800.126 1084.09C802.986 1082.92 804.988 1081.34 806.132 1079.36C807.198 1077.31 807.77 1074.63 807.848 1071.35V1066.75ZM830.65 1062.82V1078.84H828.83V1064.64H821.394V1079.07H819.574V1062.82H830.65ZM827.166 1079.54C828.986 1081.05 830.494 1082.58 831.742 1084.09L830.338 1085.47C829.246 1084.01 827.738 1082.48 825.866 1080.82L827.166 1079.54ZM824.202 1066.33H826.022V1074.52C825.944 1077.57 825.346 1079.98 824.254 1081.8C823.162 1083.49 821.42 1084.82 818.976 1085.76L817.91 1084.09C820.25 1083.21 821.888 1082.01 822.824 1080.53C823.682 1079 824.15 1076.99 824.202 1074.52V1066.33ZM833.614 1064.02H835.434V1080.24H833.614V1064.02ZM838.268 1085.34H834.758L834.342 1083.52C835.486 1083.57 836.578 1083.62 837.618 1083.62C838.476 1083.62 838.918 1083.18 838.918 1082.32V1061.84H840.79V1082.79C840.79 1084.48 839.932 1085.34 838.268 1085.34ZM857.638 1072.34C859.562 1074.58 861.018 1076.55 862.032 1078.22L860.446 1079.33C859.406 1077.51 857.95 1075.51 856.104 1073.3L857.638 1072.34ZM858.028 1061.71L859.9 1061.94C859.588 1063.37 859.172 1064.72 858.704 1065.97H866.842C866.842 1074.94 866.712 1080.48 866.452 1082.58C866.166 1084.53 864.866 1085.52 862.526 1085.52C861.928 1085.52 860.888 1085.47 859.406 1085.42L858.938 1083.68C860.238 1083.73 861.33 1083.78 862.266 1083.78C863.67 1083.78 864.476 1083.13 864.684 1081.83C864.84 1080.32 864.944 1075.67 864.996 1067.87H857.898C856.988 1069.69 855.896 1071.35 854.596 1072.81L853.426 1071.27C855.688 1068.67 857.222 1065.48 858.028 1061.71ZM853.92 1080.43V1082.35C851.216 1083.26 848.122 1083.99 844.664 1084.56L844.43 1082.71C848.07 1082.14 851.216 1081.36 853.92 1080.43ZM848.668 1061.68L850.488 1062.41C849.214 1065.74 847.914 1068.41 846.614 1070.44C847.81 1070.29 849.032 1070.08 850.228 1069.84C850.774 1068.83 851.346 1067.76 851.944 1066.62L853.738 1067.3C851.242 1071.87 849.136 1075.12 847.472 1077.05C849.5 1076.68 851.554 1076.16 853.608 1075.51V1077.18C850.696 1078.11 847.888 1078.74 845.21 1079.1L844.716 1077.36C845.054 1077.2 845.34 1077.02 845.574 1076.81C846.588 1075.77 847.81 1074.06 849.24 1071.61C847.784 1071.87 846.328 1072.11 844.846 1072.34L844.378 1070.6C844.664 1070.47 844.924 1070.23 845.184 1069.87C846.51 1067.48 847.68 1064.75 848.668 1061.68ZM870.872 1064.44H881.038V1061.84H882.962V1064.44H893.076V1066.23H882.962V1068.78H891.152V1076.14H884.548C886.42 1078.79 889.592 1081.13 894.012 1083.21L892.738 1084.82C888.136 1082.25 884.912 1079.36 883.04 1076.14H882.962V1085.57H881.038V1076.14H880.96C878.984 1079.67 875.708 1082.58 871.106 1084.87L870.014 1083.16C874.33 1081.34 877.476 1079 879.426 1076.14H872.9V1068.78H881.038V1066.23H870.872V1064.44ZM889.28 1074.42V1070.55H882.962V1074.42H889.28ZM881.038 1074.42V1070.55H874.772V1074.42H881.038Z" fill="black"/>
<rect x="591" y="1109" width="11.0074" height="11.0074" fill="#88E5E4"/>
<path d="M1466.5 798.5V890.5H1067.5V798.5H1466.5Z" stroke="#C7C8CC"/>
<path d="M1195.45 839.934H1197.27V843.964H1200.02V845.732H1197.27V849.476C1198.52 849.216 1199.69 848.956 1200.78 848.696V850.412C1199.63 850.724 1198.46 850.984 1197.27 851.244V856.496H1195.45V851.608C1193.89 851.868 1192.25 852.128 1190.53 852.362L1190.3 850.542C1192.12 850.334 1193.84 850.074 1195.45 849.814V845.732H1191.08L1190.66 844.042C1191.5 842.404 1192.28 840.324 1193 837.802H1190.25V835.982H1193.47C1193.73 834.942 1193.97 833.85 1194.2 832.732L1195.97 832.992C1195.73 834.032 1195.5 835.02 1195.27 835.982H1200.18V837.802H1194.77C1194.1 840.142 1193.37 842.196 1192.56 843.964H1195.45V839.934ZM1205.82 847.968H1201.14V846.148H1212.56V847.968H1207.67V853.922H1213.73V855.716H1199.69V853.922H1205.82V847.968ZM1207.56 841.052C1205.9 842.612 1203.82 843.912 1201.35 844.978L1200.18 843.444C1204.52 841.65 1207.54 839.128 1209.2 835.904H1201.22V834.11H1211.33V835.566C1210.71 837.126 1209.85 838.53 1208.76 839.83C1210.76 841.13 1212.45 842.404 1213.86 843.704L1212.56 845.03C1211.31 843.756 1209.64 842.43 1207.56 841.052ZM1218.98 843.652H1237.07V850.282H1228.91V851.738H1237.72V852.986H1228.91V854.52H1239.62V855.976H1216.38V854.52H1227.04V852.986H1218.33V851.738H1227.04V850.282H1218.98V843.652ZM1235.28 849.112V847.526H1228.91V849.112H1235.28ZM1227.04 849.112V847.526H1220.77V849.112H1227.04ZM1220.77 846.434H1227.04V844.822H1220.77V846.434ZM1228.91 844.822V846.434H1235.28V844.822H1228.91ZM1219.55 833.174H1236.53V839.596H1219.55V833.174ZM1234.71 838.478V836.944H1221.37V838.478H1234.71ZM1221.37 835.826H1234.71V834.318H1221.37V835.826ZM1216.35 840.948H1239.65V842.352H1216.35V840.948ZM1243.34 834.578H1252.75V836.372H1243.34V834.578ZM1242.33 841.598H1253.74V843.418H1247.73C1246.69 847.37 1245.78 850.178 1245 851.894C1247.06 851.478 1249.11 850.88 1251.14 850.126C1250.46 848.722 1249.81 847.448 1249.14 846.252L1250.72 845.472C1251.97 847.708 1253.14 850.126 1254.23 852.752L1252.62 853.584C1252.36 852.908 1252.1 852.284 1251.84 851.686C1249.09 852.674 1246.07 853.454 1242.85 854.026L1242.4 852.258C1242.59 852.206 1242.72 852.154 1242.82 852.102C1243.6 851.036 1244.64 848.15 1245.94 843.418H1242.33V841.598ZM1257.64 832.836H1259.51V838.088H1265.18C1265.18 846.226 1265.05 851.244 1264.82 853.168C1264.56 855.274 1263.28 856.34 1261.05 856.34C1260.6 856.34 1259.85 856.314 1258.76 856.262L1258.34 854.598C1259.28 854.65 1260.11 854.702 1260.81 854.702C1262.09 854.702 1262.84 853.948 1263.05 852.466C1263.2 851.088 1263.31 846.902 1263.36 839.908H1259.51V840.22C1259.43 847.708 1257.61 853.194 1254.08 856.652L1252.67 855.43C1255.92 852.284 1257.59 847.214 1257.64 840.22V839.908H1254.13V838.088H1257.64V832.836ZM1279.06 832.524L1280.94 832.706C1280.83 833.694 1280.65 834.604 1280.44 835.488H1290.48V837.282H1282.16C1283.43 840.168 1286.66 842.404 1291.83 844.016L1290.84 845.628C1285.07 843.6 1281.56 840.818 1280.26 837.282H1279.87C1279.3 838.79 1278.52 840.116 1277.56 841.208C1277.45 841.312 1277.37 841.39 1277.3 841.494C1278.44 842.3 1279.69 843.34 1281.09 844.614L1279.79 845.914C1278.54 844.666 1277.3 843.548 1276.05 842.56C1274.33 843.834 1271.89 844.874 1268.77 845.706L1268.04 843.99C1271.73 843.054 1274.41 841.702 1276.05 839.986C1276.78 839.206 1277.35 838.296 1277.82 837.282H1269.29V835.488H1278.47C1278.75 834.552 1278.96 833.564 1279.06 832.524ZM1270.72 847.89L1272.56 848.28C1271.94 850.984 1271.06 853.324 1269.94 855.3L1268.33 854.286C1269.42 852.362 1270.22 850.23 1270.72 847.89ZM1280.57 846.954C1281.48 848.306 1282.29 849.762 1282.96 851.322L1281.25 852.076C1280.52 850.334 1279.77 848.8 1278.93 847.474L1280.57 846.954ZM1288.35 847.5C1289.59 849.424 1290.69 851.504 1291.62 853.74L1289.91 854.494C1288.89 852.05 1287.77 849.918 1286.55 848.072L1288.35 847.5ZM1283.59 856.054H1276.98C1275.32 856.054 1274.51 855.17 1274.51 853.454V847.812H1276.44V853.064C1276.44 853.844 1276.8 854.234 1277.58 854.234H1283.25C1283.8 854.234 1284.19 854.078 1284.42 853.766C1284.73 853.402 1284.94 852.336 1285.04 850.542L1286.81 851.114C1286.63 853.454 1286.27 854.858 1285.75 855.378C1285.28 855.82 1284.58 856.054 1283.59 856.054ZM1301.37 842.43H1299.53V842.69C1299.34 848.462 1298.02 853.09 1295.55 856.522L1294.22 855.144C1296.35 852.128 1297.5 847.994 1297.65 842.69V834.656C1304.15 834.578 1310 834.032 1315.2 833.018L1316.09 834.63C1311.15 835.566 1305.64 836.112 1299.53 836.268V840.662H1315.18V842.326C1314.19 845.654 1312.37 848.514 1309.74 850.906C1311.98 852.466 1314.68 853.844 1317.86 855.04L1316.84 856.678C1313.46 855.326 1310.65 853.766 1308.39 852.05C1306 853.896 1303.04 855.43 1299.55 856.678L1298.51 855.092C1301.84 853.948 1304.65 852.518 1306.91 850.854C1304.15 848.384 1302.31 845.576 1301.37 842.43ZM1308.26 849.762C1310.65 847.656 1312.32 845.212 1313.28 842.43H1303.14C1304.02 845.186 1305.74 847.63 1308.26 849.762ZM1330.6 834.188H1335.46V832.732H1337.28V834.188H1342.19V839.284H1337.28V840.922H1343.57V842.534H1329.17V840.922H1335.46V839.284H1330.6V834.188ZM1340.55 837.802V835.696H1337.28V837.802H1340.55ZM1335.46 837.802V835.696H1332.23V837.802H1335.46ZM1341.88 844.25V851.972H1340.14V845.81H1332.39V851.972H1330.65V844.25H1341.88ZM1338.19 852.076C1340.22 852.882 1342.09 853.87 1343.78 855.066L1342.76 856.626C1340.97 855.274 1339.12 854.208 1337.25 853.428L1338.19 852.076ZM1335.25 846.824H1337.07V849.372C1336.99 851.348 1336.37 852.934 1335.17 854.13C1334.03 855.222 1332.13 856.106 1329.5 856.73L1328.49 855.144C1331.01 854.624 1332.78 853.896 1333.79 853.012C1334.7 852.076 1335.2 850.854 1335.25 849.372V846.824ZM1323.86 838.894C1323.13 841.026 1322.2 842.82 1321.08 844.276L1319.91 842.846C1321.63 840.402 1322.77 837.1 1323.39 832.94L1325.21 833.252C1324.98 834.656 1324.69 835.956 1324.38 837.178H1329.17V838.634C1328.49 840.194 1327.76 841.52 1326.96 842.612L1325.6 841.546C1326.18 840.766 1326.7 839.882 1327.19 838.894H1323.86ZM1323.73 842.3H1325.53V853.61C1326.62 853.012 1327.71 852.206 1328.83 851.192L1329.17 852.934C1327.66 854.182 1325.89 855.222 1323.89 856.028L1323.13 854.442C1323.52 854.208 1323.73 853.87 1323.73 853.402V842.3Z" fill="black"/>
<rect x="1067" y="880" width="11.0074" height="11.0074" fill="#88E5E4"/>
<path d="M399.5 111.5H706.5C731.905 111.5 752.5 132.095 752.5 157.5C752.5 182.905 731.905 203.5 706.5 203.5H399.5C374.095 203.5 353.5 182.905 353.5 157.5C353.5 132.095 374.095 111.5 399.5 111.5Z" stroke="#C7C8CC"/>
<path d="M415.828 146.616L416.738 148.202C414.866 148.826 412.682 149.294 410.186 149.58V156.886H417.804V158.706H410.186V166.87H416.504V168.716H402.048V166.87H408.314V158.706H400.748V156.886H408.314V149.762C406.546 149.892 404.674 149.97 402.698 149.97L402.1 148.202C407.612 148.202 412.188 147.656 415.828 146.616ZM400.02 145.81L401.762 146.616C401.086 148.618 400.202 150.516 399.162 152.284V169.652H397.29V155.066C396.458 156.158 395.522 157.224 394.508 158.238L393.91 156.236C396.718 153.22 398.746 149.736 400.02 145.81ZM427.944 145.68L429.842 145.94C429.556 146.642 429.218 147.292 428.854 147.916H440.19V149.424C438.526 151.348 436.498 152.986 434.106 154.338C437.044 155.586 440.32 156.392 443.934 156.756L443.076 158.498C438.968 158.03 435.302 156.99 432.078 155.378C428.906 156.834 425.188 157.9 420.976 158.55L420.118 156.782C423.888 156.262 427.19 155.43 430.05 154.286C428.594 153.428 427.242 152.44 425.994 151.348C425.006 152.232 423.94 153.038 422.744 153.766L421.6 152.258C424.72 150.464 426.852 148.28 427.944 145.68ZM432.052 153.376C434.158 152.336 435.978 151.088 437.512 149.684H427.58L427.242 150.1C428.698 151.374 430.31 152.466 432.052 153.376ZM430.466 157.25H432.312C432.312 158.29 432.208 159.278 432.052 160.214H441.204C441.152 164.608 440.762 167.234 440.008 168.092C439.254 168.95 437.954 169.392 436.108 169.392C435.276 169.392 434.262 169.34 433.066 169.288L432.598 167.598L435.666 167.728C437.226 167.702 438.188 167.364 438.604 166.74C438.994 166.116 439.228 164.504 439.306 161.904H431.61C431.402 162.58 431.116 163.23 430.778 163.854C429.452 166.194 426.41 168.144 421.626 169.652L420.378 168.118C424.642 166.87 427.476 165.284 428.828 163.386C429.14 162.918 429.426 162.424 429.634 161.904H421.886V160.214H430.154C430.362 159.278 430.466 158.29 430.466 157.25ZM450.2 146.642H466.008V155.664H450.2V146.642ZM464.162 154.078V151.946H452.046V154.078H464.162ZM452.046 150.412H464.162V148.254H452.046V150.412ZM457.35 159.304H446.508V157.588H469.518V159.304H459.248V162.242H466.736V163.906H459.248V167.364C460.496 167.468 462.004 167.546 463.72 167.546C465.956 167.546 467.854 167.52 469.388 167.468L468.868 169.236C466.996 169.236 465.332 169.21 463.85 169.184C459.56 169.184 456.648 168.846 455.114 168.196C453.788 167.598 452.592 166.454 451.552 164.738C450.538 166.662 449.238 168.248 447.678 169.522L446.456 167.988C448.848 166.064 450.486 163.464 451.344 160.214L453.112 160.526C452.852 161.488 452.566 162.398 452.228 163.256C453.32 165.076 454.568 166.22 455.92 166.714C456.336 166.844 456.804 166.974 457.35 167.078V159.304ZM473.522 146.98H494.582V148.8H486.288C485.872 149.372 485.404 149.944 484.936 150.464V159.07H483.064V152.258C480.62 154.286 477.422 156.08 473.47 157.666L472.3 156.132C477.864 154.078 481.816 151.634 484.156 148.8H473.522V146.98ZM492.632 159.98V169.496H490.734V168.274H477.318V169.496H475.42V159.98H492.632ZM477.318 166.454H490.734V161.8H477.318V166.454ZM487.666 151.114C490.786 152.882 493.386 154.676 495.492 156.47L494.14 157.848C492.268 156.132 489.694 154.286 486.418 152.31L487.666 151.114ZM498.482 158.108H521.518V159.72H510.546L509.662 161.592H519.776V167.286C519.776 168.794 518.996 169.574 517.462 169.574H515.616L515.2 167.962L516.942 168.04C517.618 168.04 517.956 167.65 517.956 166.896V163.204H513.77V169.366H511.976V163.204H508.128V169.366H506.334V163.204H502.434V169.678H500.666V161.592H507.764L508.648 159.72H498.482V158.108ZM500.068 146.642H519.958V148.176H510.91V149.814H520.894V155.17H519.1V151.296H510.91V157.042H509.09V151.296H500.9V155.17H499.106V149.814H509.09V148.176H500.068V146.642ZM502.304 152.752H507.712V154H502.304V152.752ZM502.304 155.352H507.712V156.6H502.304V155.352ZM512.262 152.752H517.644V154H512.262V152.752ZM512.288 155.352H517.722V156.6H512.288V155.352ZM524.508 146.798H547.492V148.488H539.822V150.802H545.88V157.354H535.064C534.596 158.186 534.154 158.94 533.738 159.668H547.804V161.384H542.214C541.694 162.944 540.732 164.27 539.354 165.388C542.006 166.194 544.71 167.13 547.466 168.222L546.296 169.756C543.436 168.534 540.55 167.468 537.664 166.532C535.194 167.858 531.138 168.898 525.522 169.652L524.82 167.988C529.448 167.442 532.958 166.714 535.298 165.804C533.14 165.154 530.982 164.582 528.824 164.088C529.448 163.178 530.02 162.268 530.592 161.384H524.17V159.668H531.632C532.1 158.862 532.542 158.082 532.958 157.354H526.12V150.802H532.178V148.488H524.508V146.798ZM537.352 164.79C538.808 163.88 539.796 162.736 540.316 161.384H532.724C532.282 162.086 531.866 162.736 531.476 163.308C533.4 163.724 535.35 164.218 537.352 164.79ZM538.028 150.802V148.488H533.972V150.802H538.028ZM544.086 155.742V152.44H539.822V155.742H544.086ZM538.028 155.742V152.44H533.972V155.742H538.028ZM532.178 155.742V152.44H527.914V155.742H532.178ZM552.198 146.018C553.966 147.396 555.474 148.748 556.696 150.1L555.37 151.426C554.278 150.126 552.796 148.748 550.898 147.24L552.198 146.018ZM567.382 169.132C565.978 169.132 564.47 169.106 562.832 169.08C561.194 169.054 559.842 168.898 558.802 168.612C557.814 168.3 556.904 167.65 556.098 166.714C555.76 166.272 555.422 166.064 555.11 166.064C554.486 166.064 553.446 167.26 551.99 169.652L550.586 168.378C551.99 166.194 553.212 164.868 554.304 164.4V156.496H550.586V154.78H556.046V164.53C556.254 164.686 556.436 164.868 556.644 165.102C557.268 165.856 557.918 166.402 558.646 166.74C559.426 167.104 560.596 167.312 562.104 167.364C563.456 167.39 565.12 167.416 567.122 167.416C568.37 167.416 569.644 167.39 570.944 167.364C572.192 167.338 573.18 167.312 573.882 167.26L573.414 169.132H567.382ZM559.608 147.24H571.542V148.956H559.608V147.24ZM558.022 153.142H573.44V154.936H565.328C563.898 158.628 562.624 161.254 561.48 162.814C564.86 162.45 567.642 161.982 569.852 161.462C569.228 160.006 568.526 158.602 567.772 157.25L569.306 156.756C570.71 159.148 571.958 161.878 573.05 164.946L571.386 165.388C571.126 164.582 570.84 163.802 570.528 163.074C567.668 163.75 563.924 164.296 559.296 164.738L558.828 163.1C559.92 162.788 561.454 160.058 563.482 154.936H558.022V153.142ZM586.05 147.422H598.504V149.268H586.05V147.422ZM585.348 154.026H599.648V155.872H595.436V167.234C595.436 168.742 594.578 169.496 592.914 169.496H589.092L588.702 167.65C589.95 167.728 591.12 167.78 592.264 167.78C593.096 167.78 593.538 167.442 593.538 166.766V155.872H585.348V154.026ZM581.942 145.992L583.632 146.772C582.176 149.658 579.836 152.206 576.612 154.416L576.066 152.544C578.77 150.62 580.72 148.436 581.942 145.992ZM583.164 151.92L584.854 152.7C584.1 154.156 583.164 155.56 582.02 156.86V169.6H580.174V158.758C579.134 159.694 578.016 160.604 576.768 161.462L576.222 159.59C579.394 157.354 581.708 154.806 583.164 151.92ZM610.62 147.708V166.87H608.8V165.128H604.952V167.494H603.132V147.708H610.62ZM604.952 163.386H608.8V157.12H604.952V163.386ZM604.952 155.378H608.8V149.424H604.952V155.378ZM614.364 155.456C615.976 157.9 617.224 160.032 618.082 161.852L616.522 162.944C615.612 160.994 614.39 158.81 612.83 156.418L614.364 155.456ZM620.292 169.34H615.742L615.352 167.52C616.86 167.572 618.29 167.624 619.668 167.624C620.422 167.624 620.812 167.208 620.812 166.402V152.336H611.816V150.542H620.812V145.966H622.71V150.542H625.908V152.336H622.71V166.87C622.71 168.508 621.904 169.34 620.292 169.34ZM637.244 163.776V165.544C634.8 166.688 631.992 167.624 628.82 168.3L628.586 166.454C631.914 165.778 634.8 164.894 637.244 163.776ZM633.162 145.784L634.93 146.486C633.526 149.71 632.122 152.284 630.692 154.208C631.94 154.104 633.162 153.922 634.41 153.714C634.956 152.752 635.528 151.712 636.126 150.594L637.816 151.244C635.32 155.716 633.266 158.888 631.628 160.786C633.552 160.37 635.476 159.798 637.4 159.07V160.786C634.566 161.8 631.862 162.502 629.262 162.866L628.768 161.124C629.106 160.968 629.392 160.786 629.626 160.578C630.666 159.564 631.914 157.848 633.396 155.43C631.888 155.664 630.38 155.872 628.82 156.08L628.352 154.338C628.638 154.234 628.898 154 629.158 153.636C630.692 151.348 632.018 148.748 633.162 145.784ZM649.62 146.98V166.87H651.83V168.69H636.802V166.87H639.064V146.98H649.62ZM640.91 166.87H647.774V161.93H640.91V166.87ZM640.91 160.162H647.774V155.248H640.91V160.162ZM640.91 153.48H647.774V148.774H640.91V153.48ZM663.218 164.322V166.168C660.618 167.13 657.706 167.91 654.43 168.508L654.196 166.636C657.628 166.064 660.618 165.284 663.218 164.322ZM659.006 145.758L660.8 146.46C659.37 149.892 657.94 152.648 656.484 154.676C657.732 154.52 658.98 154.338 660.28 154.104C660.852 153.064 661.476 151.972 662.1 150.802L663.764 151.452C661.294 155.924 659.24 159.096 657.602 160.994C659.5 160.604 661.398 160.058 663.296 159.382V160.994C660.462 162.06 657.758 162.788 655.158 163.152L654.638 161.41C655.002 161.254 655.288 161.072 655.522 160.864C656.562 159.876 657.81 158.186 659.266 155.82C657.732 156.08 656.198 156.34 654.664 156.574L654.17 154.858C654.482 154.702 654.742 154.468 654.976 154.13C656.536 151.686 657.862 148.904 659.006 145.758ZM664.726 147.266H676.374V159.486H664.726V147.266ZM674.502 157.718V149.06H666.572V157.718H674.502ZM667.066 160.942L668.704 161.722C667.43 164.764 665.922 167.39 664.18 169.6L662.594 168.456C664.336 166.376 665.818 163.854 667.066 160.942ZM673.644 160.942C675.568 163.854 677.05 166.376 678.09 168.508L676.504 169.626C675.438 167.286 673.982 164.712 672.136 161.878L673.644 160.942ZM685.734 148.072C687.398 148.072 688.724 148.514 689.738 149.45C690.7 150.334 691.194 151.556 691.194 153.116C691.194 154.286 690.856 155.3 690.206 156.158C689.946 156.47 689.244 157.146 688.1 158.16C687.528 158.654 687.138 159.122 686.878 159.59C686.54 160.162 686.384 160.786 686.384 161.488V162.086H684.304V161.488C684.304 160.63 684.46 159.876 684.772 159.226C685.136 158.446 685.994 157.458 687.398 156.21C687.814 155.794 688.126 155.482 688.282 155.274C688.802 154.624 689.062 153.948 689.062 153.22C689.062 152.18 688.75 151.374 688.178 150.802C687.58 150.178 686.722 149.892 685.63 149.892C684.33 149.892 683.368 150.308 682.744 151.166C682.172 151.894 681.886 152.882 681.886 154.156H679.832C679.832 152.336 680.326 150.88 681.366 149.788C682.406 148.644 683.862 148.072 685.734 148.072ZM685.344 163.906C685.786 163.906 686.176 164.036 686.488 164.348C686.774 164.634 686.93 164.998 686.93 165.44C686.93 165.908 686.774 166.272 686.462 166.558C686.15 166.844 685.786 167 685.344 167C684.902 167 684.538 166.844 684.226 166.558C683.914 166.246 683.784 165.882 683.784 165.44C683.784 164.998 683.914 164.634 684.226 164.348C684.538 164.036 684.902 163.906 685.344 163.906Z" fill="black"/>
<path d="M637.5 1211.5H944.5C969.905 1211.5 990.5 1232.09 990.5 1257.5C990.5 1282.91 969.905 1303.5 944.5 1303.5H637.5C612.095 1303.5 591.5 1282.91 591.5 1257.5C591.5 1232.09 612.095 1211.5 637.5 1211.5Z" stroke="#C7C8CC"/>
<path d="M696.828 1246.17C698.57 1247.53 700.052 1248.85 701.248 1250.2L699.896 1251.53C698.856 1250.26 697.4 1248.88 695.554 1247.4L696.828 1246.17ZM711.934 1269.13C710.53 1269.13 708.996 1269.11 707.358 1269.08C705.694 1269.05 704.368 1268.9 703.328 1268.61C702.314 1268.3 701.404 1267.65 700.598 1266.71C700.26 1266.27 699.922 1266.06 699.61 1266.06C698.986 1266.06 697.972 1267.26 696.542 1269.65L695.138 1268.38C696.516 1266.19 697.738 1264.87 698.804 1264.4V1256.5H695.086V1254.78H700.546V1264.5C700.754 1264.66 700.962 1264.87 701.17 1265.1C701.794 1265.86 702.444 1266.4 703.172 1266.74C703.952 1267.1 705.122 1267.31 706.63 1267.36C707.982 1267.39 709.672 1267.42 711.674 1267.42C712.896 1267.42 714.144 1267.39 715.418 1267.36C716.666 1267.34 717.654 1267.31 718.33 1267.26L717.888 1269.13H711.934ZM703.042 1249.87H706.11V1245.73H707.904V1249.87H712.012V1245.76H713.832V1249.87H717.134V1251.61H713.832V1256.78H717.966V1258.55H713.832V1266.01H712.012V1258.55H707.384C706.708 1261.67 705.356 1263.98 703.354 1265.49L702.236 1263.98C703.874 1262.81 704.992 1260.99 705.564 1258.55H702.132V1256.78H705.902C706.032 1255.79 706.11 1254.75 706.11 1253.66V1251.61H703.042V1249.87ZM707.904 1251.61V1253.25C707.904 1254.49 707.826 1255.69 707.696 1256.78H712.012V1251.61H707.904ZM731.356 1251.79C730.16 1249.61 728.73 1247.94 727.066 1246.75L728.626 1245.76C730.94 1247.37 732.89 1250.31 734.502 1254.52C736.946 1260.73 740.196 1265.13 744.304 1267.7L743.134 1269.21C738.922 1266.66 735.49 1261.93 732.812 1255.07C732.656 1254.65 732.526 1254.29 732.396 1253.97C730.68 1260.6 727.092 1265.7 721.632 1269.24L720.514 1267.65C726.078 1264.01 729.692 1258.71 731.356 1251.79ZM763.96 1248.07C766.274 1248.07 768.12 1248.62 769.498 1249.76C770.798 1250.83 771.604 1252.36 771.942 1254.39H769.81C769.524 1252.99 768.9 1251.92 767.938 1251.17C766.924 1250.36 765.598 1249.97 763.96 1249.97C761.932 1249.97 760.346 1250.67 759.15 1252.1C757.954 1253.51 757.382 1255.4 757.382 1257.8C757.382 1260.14 757.954 1261.98 759.098 1263.33C760.32 1264.76 762.14 1265.49 764.558 1265.49C765.572 1265.49 766.534 1265.34 767.47 1265.08C768.38 1264.82 769.16 1264.45 769.81 1264.04V1259.3H763.986V1257.46H771.916V1265.05C771.032 1265.78 769.94 1266.32 768.666 1266.74C767.314 1267.16 765.884 1267.36 764.35 1267.36C761.412 1267.36 759.124 1266.43 757.512 1264.56C756.004 1262.81 755.25 1260.55 755.25 1257.8C755.25 1255.04 755.978 1252.78 757.486 1250.98C759.072 1249.03 761.23 1248.07 763.96 1248.07ZM780.757 1253.19C782.915 1253.19 784.553 1253.92 785.645 1255.38C786.633 1256.68 787.153 1258.52 787.205 1260.86H776.597C776.701 1262.37 777.091 1263.54 777.819 1264.37C778.547 1265.21 779.561 1265.62 780.835 1265.62C781.927 1265.62 782.837 1265.34 783.513 1264.79C784.085 1264.32 784.527 1263.62 784.865 1262.68H786.945C786.633 1263.98 786.035 1265.02 785.125 1265.86C784.007 1266.84 782.577 1267.36 780.835 1267.36C778.911 1267.36 777.351 1266.71 776.207 1265.47C775.011 1264.17 774.439 1262.45 774.439 1260.27C774.439 1258.29 774.985 1256.63 776.129 1255.3C777.273 1253.9 778.807 1253.19 780.757 1253.19ZM780.809 1254.94C779.613 1254.94 778.651 1255.33 777.923 1256.11C777.195 1256.89 776.779 1257.93 776.649 1259.25H785.047C784.787 1256.37 783.357 1254.94 780.809 1254.94ZM795.933 1253.19C799.261 1253.19 800.951 1255.04 800.951 1258.73V1267H798.871V1258.89C798.871 1256.26 797.675 1254.96 795.335 1254.96C794.399 1254.96 793.593 1255.3 792.917 1255.98C792.189 1256.7 791.799 1257.67 791.721 1258.89V1267H789.641V1253.56H791.721V1255.53C792.189 1254.78 792.787 1254.21 793.515 1253.82C794.243 1253.4 795.049 1253.19 795.933 1253.19ZM804.425 1248.44H806.557V1259.9C806.557 1261.72 806.947 1263.1 807.779 1264.04C808.637 1265 809.989 1265.49 811.835 1265.49C813.655 1265.49 815.007 1265 815.891 1264.04C816.697 1263.1 817.113 1261.72 817.113 1259.9V1248.44H819.245V1259.88C819.245 1262.29 818.621 1264.14 817.399 1265.41C816.125 1266.71 814.279 1267.36 811.835 1267.36C809.391 1267.36 807.545 1266.71 806.297 1265.44C805.049 1264.14 804.425 1262.29 804.425 1259.88V1248.44ZM823.141 1248.44H825.247V1267H823.141V1248.44ZM840.127 1246.25C841.765 1247.55 843.143 1248.83 844.261 1250.1L842.987 1251.4C841.973 1250.15 840.595 1248.85 838.827 1247.47L840.127 1246.25ZM837.111 1253.77H842.545V1265.31C843.481 1264.53 844.495 1263.65 845.561 1262.63L846.081 1264.61C844.443 1266.14 842.701 1267.49 840.881 1268.69L840.153 1267.03C840.517 1266.66 840.725 1266.27 840.725 1265.86V1255.56H837.111V1253.77ZM846.341 1256.81H858.717V1258.52C857.885 1260.97 856.533 1263.07 854.635 1264.84C856.403 1266.06 858.561 1267.13 861.109 1268.07L860.095 1269.68C857.391 1268.59 855.103 1267.36 853.283 1265.96C851.203 1267.52 848.629 1268.74 845.587 1269.68L844.547 1268.09C847.433 1267.23 849.851 1266.12 851.801 1264.74C849.825 1262.92 848.499 1260.89 847.771 1258.63H846.341V1256.81ZM849.539 1258.63C850.215 1260.5 851.411 1262.19 853.127 1263.67C854.791 1262.22 856.039 1260.55 856.871 1258.63H849.539ZM848.343 1246.77H857.079V1252.39C857.079 1253.04 857.417 1253.38 858.093 1253.38H860.485V1255.09H857.625C856.013 1255.09 855.233 1254.31 855.233 1252.78V1248.54H850.189V1249.45C850.189 1252.21 848.837 1254.34 846.185 1255.85L844.937 1254.42C847.199 1253.3 848.343 1251.71 848.343 1249.66V1246.77ZM871.249 1253.56H878.295V1245.73H880.219V1253.56H886.901V1255.43H880.219V1269.65H878.295V1255.43H871.249V1253.56ZM866.153 1246.02C867.921 1247.34 869.403 1248.67 870.599 1250.02L869.325 1251.32C868.233 1250.05 866.725 1248.7 864.853 1247.29L866.153 1246.02ZM863.111 1253.71H868.727V1265.28C869.663 1264.5 870.703 1263.62 871.795 1262.58L872.263 1264.5C870.651 1266.06 868.909 1267.44 867.063 1268.66L866.335 1266.97C866.725 1266.66 866.933 1266.3 866.933 1265.88V1255.51H863.111V1253.71Z" fill="black"/>
<path d="M553.5 212V211.5H552.5V212H553H553.5ZM294.646 332.354C294.842 332.549 295.158 332.549 295.354 332.354L298.536 329.172C298.731 328.976 298.731 328.66 298.536 328.464C298.34 328.269 298.024 328.269 297.828 328.464L295 331.293L292.172 328.464C291.976 328.269 291.66 328.269 291.464 328.464C291.269 328.66 291.269 328.976 291.464 329.172L294.646 332.354ZM553 276.865V277.365H553.5V276.865H553ZM295 276.865V276.365H294.5V276.865H295ZM553 212H552.5V276.865H553H553.5V212H553ZM553 276.865V276.365H295V276.865V277.365H553V276.865ZM295 276.865H294.5V332H295H295.5V276.865H295Z" fill="#C7C8CC"/>
<path d="M791.5 441V440.5H790.5V441H791H791.5ZM294.646 790.354C294.842 790.549 295.158 790.549 295.354 790.354L298.535 787.172C298.731 786.976 298.731 786.66 298.535 786.464C298.34 786.269 298.024 786.269 297.828 786.464L295 789.293L292.172 786.464C291.976 786.269 291.66 786.269 291.464 786.464C291.269 786.66 291.269 786.976 291.464 787.172L294.646 790.354ZM791 506V506.5H791.5V506H791ZM295 506V505.5H294.5V506H295ZM791 441H790.5V506H791H791.5V441H791ZM791 506V505.5H295V506V506.5H791V506ZM295 506H294.5L294.5 790H295H295.5L295.5 506H295Z" fill="#C7C8CC"/>
<path d="M1029.5 670V669.5H1028.5V670H1029H1029.5ZM790.646 790.354C790.842 790.549 791.158 790.549 791.354 790.354L794.536 787.172C794.731 786.976 794.731 786.66 794.536 786.464C794.34 786.269 794.024 786.269 793.828 786.464L791 789.293L788.172 786.464C787.976 786.269 787.66 786.269 787.464 786.464C787.269 786.66 787.269 786.976 787.464 787.172L790.646 790.354ZM1029 734.865V735.365H1029.5V734.865H1029ZM791 734.865V734.365H790.5V734.865H791ZM1029 670H1028.5V734.865H1029H1029.5V670H1029ZM1029 734.865V734.365H791V734.865V735.365H1029V734.865ZM791 734.865H790.5V790H791H791.5V734.865H791Z" fill="#C7C8CC"/>
<path d="M294.5 899V898.5H295.5V899H295H294.5ZM791.354 1019.35C791.158 1019.55 790.842 1019.55 790.646 1019.35L787.464 1016.17C787.269 1015.98 787.269 1015.66 787.464 1015.46C787.66 1015.27 787.976 1015.27 788.172 1015.46L791 1018.29L793.828 1015.46C794.024 1015.27 794.34 1015.27 794.536 1015.46C794.731 1015.66 794.731 1015.98 794.536 1016.17L791.354 1019.35ZM295 963.865V964.365H294.5V963.865H295ZM791 963.865V963.365H791.5V963.865H791ZM295 899H295.5V963.865H295H294.5V899H295ZM295 963.865V963.365H791V963.865V964.365H295V963.865ZM791 963.865H791.5V1019H791H790.5V963.865H791Z" fill="#C7C8CC"/>
<path d="M1267.5 899V898.5H1266.5V899H1267H1267.5ZM790.646 1019.35C790.842 1019.55 791.158 1019.55 791.354 1019.35L794.536 1016.17C794.731 1015.98 794.731 1015.66 794.536 1015.46C794.34 1015.27 794.024 1015.27 793.828 1015.46L791 1018.29L788.172 1015.46C787.976 1015.27 787.66 1015.27 787.464 1015.46C787.269 1015.66 787.269 1015.98 787.464 1016.17L790.646 1019.35ZM1267 963.865V964.365H1267.5V963.865H1267ZM791 963.865V963.365H790.5V963.865H791ZM1267 899H1266.5V963.865H1267H1267.5V899H1267ZM1267 963.865V963.365H791V963.865V964.365H1267V963.865ZM791 963.865H790.5V1019H791H791.5V963.865H791Z" fill="#C7C8CC"/>
<path d="M791.354 332.354C791.158 332.549 790.842 332.549 790.646 332.354L787.464 329.172C787.269 328.976 787.269 328.66 787.464 328.464C787.66 328.269 787.976 328.269 788.172 328.464L791 331.293L793.828 328.464C794.024 328.269 794.34 328.269 794.536 328.464C794.731 328.66 794.731 328.976 794.536 329.172L791.354 332.354ZM553 276.865V277.365H552.5V276.865H553ZM791 276.865V276.365H791.5V276.865H791ZM553 212H553.5V276.865H553H552.5V212H553ZM553 276.865V276.365H791V276.865V277.365H553V276.865ZM791 276.865H791.5V332H791H790.5V276.865H791Z" fill="#C7C8CC"/>
<path d="M1029.35 561.354C1029.16 561.549 1028.84 561.549 1028.65 561.354L1025.46 558.172C1025.27 557.976 1025.27 557.66 1025.46 557.464C1025.66 557.269 1025.98 557.269 1026.17 557.464L1029 560.293L1031.83 557.464C1032.02 557.269 1032.34 557.269 1032.54 557.464C1032.73 557.66 1032.73 557.976 1032.54 558.172L1029.35 561.354ZM791 505.865V506.365H790.5V505.865H791ZM1029 505.865V505.365H1029.5V505.865H1029ZM791 441H791.5V505.865H791H790.5V441H791ZM791 505.865V505.365H1029V505.865V506.365H791V505.865ZM1029 505.865H1029.5V561H1029H1028.5V505.865H1029Z" fill="#C7C8CC"/>
<path d="M1267.35 790.354C1267.16 790.549 1266.84 790.549 1266.65 790.354L1263.46 787.172C1263.27 786.976 1263.27 786.66 1263.46 786.464C1263.66 786.269 1263.98 786.269 1264.17 786.464L1267 789.293L1269.83 786.464C1270.02 786.269 1270.34 786.269 1270.54 786.464C1270.73 786.66 1270.73 786.976 1270.54 787.172L1267.35 790.354ZM1029 734.865V735.365H1028.5V734.865H1029ZM1267 734.865V734.365H1267.5V734.865H1267ZM1029 670H1029.5V734.865H1029H1028.5V670H1029ZM1029 734.865V734.365H1267V734.865V735.365H1029V734.865ZM1267 734.865H1267.5V790H1267H1266.5V734.865H1267Z" fill="#C7C8CC"/>
<rect width="34" height="47" transform="translate(417 252)" fill="#FAFAFA"/>
<path d="M428.78 281.532H439.328V282.342H428.78V281.532ZM428.312 276.726H439.814V283.278H438.896V277.536H429.194V283.35H428.312V276.726ZM426.26 268.068H441.758V268.914H426.26V268.068ZM435.116 268.464L435.926 268.842C435.182 269.778 434.294 270.642 433.262 271.434C432.23 272.214 431.126 272.922 429.95 273.558C428.774 274.182 427.598 274.722 426.422 275.178C426.374 275.106 426.314 275.022 426.242 274.926C426.17 274.83 426.098 274.734 426.026 274.638C425.954 274.53 425.882 274.446 425.81 274.386C426.998 273.978 428.174 273.48 429.338 272.892C430.502 272.304 431.582 271.638 432.578 270.894C433.586 270.138 434.432 269.328 435.116 268.464ZM435.404 271.542L436.034 270.948C436.742 271.224 437.48 271.56 438.248 271.956C439.016 272.352 439.736 272.76 440.408 273.18C441.092 273.588 441.656 273.96 442.1 274.296L441.488 274.962C441.056 274.614 440.498 274.23 439.814 273.81C439.13 273.378 438.404 272.964 437.636 272.568C436.88 272.16 436.136 271.818 435.404 271.542ZM433.55 270.678L434.432 269.814V269.832V276.204H433.55V270.678Z" fill="#484950" fill-opacity="0.7"/>
<rect width="34" height="47" transform="translate(526 481)" fill="#FAFAFA"/>
<path d="M535.062 504.07H550.956V504.862H535.062V504.07ZM543.018 507.256H549.768V508.066H543.018V507.256ZM542.694 504.34H543.558V511.27H542.694V504.34ZM538.716 507.292C539.112 508.348 539.64 509.152 540.3 509.704C540.972 510.244 541.788 510.61 542.748 510.802C543.708 510.994 544.812 511.096 546.06 511.108C546.168 511.108 546.384 511.108 546.708 511.108C547.044 511.108 547.434 511.108 547.878 511.108C548.334 511.108 548.79 511.102 549.246 511.09C549.702 511.09 550.11 511.09 550.47 511.09C550.83 511.09 551.082 511.09 551.226 511.09C551.178 511.162 551.13 511.246 551.082 511.342C551.034 511.45 550.992 511.558 550.956 511.666C550.92 511.774 550.896 511.864 550.884 511.936H549.804H546.06C544.992 511.936 544.032 511.876 543.18 511.756C542.34 511.636 541.59 511.42 540.93 511.108C540.282 510.796 539.712 510.358 539.22 509.794C538.74 509.23 538.326 508.504 537.978 507.616L538.716 507.292ZM538.41 505.564L539.274 505.69C538.998 507.202 538.536 508.51 537.888 509.614C537.24 510.718 536.424 511.63 535.44 512.35C535.404 512.29 535.344 512.218 535.26 512.134C535.188 512.062 535.104 511.99 535.008 511.918C534.924 511.846 534.846 511.786 534.774 511.738C535.746 511.09 536.532 510.25 537.132 509.218C537.732 508.174 538.158 506.956 538.41 505.564ZM537.924 500.02V501.838H547.95V500.02H537.924ZM537.924 497.536V499.318H547.95V497.536H537.924ZM537.078 496.798H548.832V502.558H537.078V496.798Z" fill="#484950" fill-opacity="0.7"/>
<rect width="34" height="47" transform="translate(893 710)" fill="#FAFAFA"/>
<path d="M902.062 733.07H917.956V733.862H902.062V733.07ZM910.018 736.256H916.768V737.066H910.018V736.256ZM909.694 733.34H910.558V740.27H909.694V733.34ZM905.716 736.292C906.112 737.348 906.64 738.152 907.3 738.704C907.972 739.244 908.788 739.61 909.748 739.802C910.708 739.994 911.812 740.096 913.06 740.108C913.168 740.108 913.384 740.108 913.708 740.108C914.044 740.108 914.434 740.108 914.878 740.108C915.334 740.108 915.79 740.102 916.246 740.09C916.702 740.09 917.11 740.09 917.47 740.09C917.83 740.09 918.082 740.09 918.226 740.09C918.178 740.162 918.13 740.246 918.082 740.342C918.034 740.45 917.992 740.558 917.956 740.666C917.92 740.774 917.896 740.864 917.884 740.936H916.804H913.06C911.992 740.936 911.032 740.876 910.18 740.756C909.34 740.636 908.59 740.42 907.93 740.108C907.282 739.796 906.712 739.358 906.22 738.794C905.74 738.23 905.326 737.504 904.978 736.616L905.716 736.292ZM905.41 734.564L906.274 734.69C905.998 736.202 905.536 737.51 904.888 738.614C904.24 739.718 903.424 740.63 902.44 741.35C902.404 741.29 902.344 741.218 902.26 741.134C902.188 741.062 902.104 740.99 902.008 740.918C901.924 740.846 901.846 740.786 901.774 740.738C902.746 740.09 903.532 739.25 904.132 738.218C904.732 737.174 905.158 735.956 905.41 734.564ZM904.924 729.02V730.838H914.95V729.02H904.924ZM904.924 726.536V728.318H914.95V726.536H904.924ZM904.078 725.798H915.832V731.558H904.078V725.798Z" fill="#484950" fill-opacity="0.7"/>
<rect width="34" height="47" transform="translate(655 252)" fill="#FAFAFA"/>
<path d="M664.062 275.07H679.956V275.862H664.062V275.07ZM672.018 278.256H678.768V279.066H672.018V278.256ZM671.694 275.34H672.558V282.27H671.694V275.34ZM667.716 278.292C668.112 279.348 668.64 280.152 669.3 280.704C669.972 281.244 670.788 281.61 671.748 281.802C672.708 281.994 673.812 282.096 675.06 282.108C675.168 282.108 675.384 282.108 675.708 282.108C676.044 282.108 676.434 282.108 676.878 282.108C677.334 282.108 677.79 282.102 678.246 282.09C678.702 282.09 679.11 282.09 679.47 282.09C679.83 282.09 680.082 282.09 680.226 282.09C680.178 282.162 680.13 282.246 680.082 282.342C680.034 282.45 679.992 282.558 679.956 282.666C679.92 282.774 679.896 282.864 679.884 282.936H678.804H675.06C673.992 282.936 673.032 282.876 672.18 282.756C671.34 282.636 670.59 282.42 669.93 282.108C669.282 281.796 668.712 281.358 668.22 280.794C667.74 280.23 667.326 279.504 666.978 278.616L667.716 278.292ZM667.41 276.564L668.274 276.69C667.998 278.202 667.536 279.51 666.888 280.614C666.24 281.718 665.424 282.63 664.44 283.35C664.404 283.29 664.344 283.218 664.26 283.134C664.188 283.062 664.104 282.99 664.008 282.918C663.924 282.846 663.846 282.786 663.774 282.738C664.746 282.09 665.532 281.25 666.132 280.218C666.732 279.174 667.158 277.956 667.41 276.564ZM666.924 271.02V272.838H676.95V271.02H666.924ZM666.924 268.536V270.318H676.95V268.536H666.924ZM666.078 267.798H677.832V273.558H666.078V267.798Z" fill="#484950" fill-opacity="0.7"/>
<rect width="34" height="47" transform="translate(893 481)" fill="#FAFAFA"/>
<path d="M904.78 510.532H915.328V511.342H904.78V510.532ZM904.312 505.726H915.814V512.278H914.896V506.536H905.194V512.35H904.312V505.726ZM902.26 497.068H917.758V497.914H902.26V497.068ZM911.116 497.464L911.926 497.842C911.182 498.778 910.294 499.642 909.262 500.434C908.23 501.214 907.126 501.922 905.95 502.558C904.774 503.182 903.598 503.722 902.422 504.178C902.374 504.106 902.314 504.022 902.242 503.926C902.17 503.83 902.098 503.734 902.026 503.638C901.954 503.53 901.882 503.446 901.81 503.386C902.998 502.978 904.174 502.48 905.338 501.892C906.502 501.304 907.582 500.638 908.578 499.894C909.586 499.138 910.432 498.328 911.116 497.464ZM911.404 500.542L912.034 499.948C912.742 500.224 913.48 500.56 914.248 500.956C915.016 501.352 915.736 501.76 916.408 502.18C917.092 502.588 917.656 502.96 918.1 503.296L917.488 503.962C917.056 503.614 916.498 503.23 915.814 502.81C915.13 502.378 914.404 501.964 913.636 501.568C912.88 501.16 912.136 500.818 911.404 500.542ZM909.55 499.678L910.432 498.814V498.832V505.204H909.55V499.678Z" fill="#484950" fill-opacity="0.7"/>
<rect width="34" height="47" transform="translate(1131 710)" fill="#FAFAFA"/>
<path d="M1142.78 739.532H1153.33V740.342H1142.78V739.532ZM1142.31 734.726H1153.81V741.278H1152.9V735.536H1143.19V741.35H1142.31V734.726ZM1140.26 726.068H1155.76V726.914H1140.26V726.068ZM1149.12 726.464L1149.93 726.842C1149.18 727.778 1148.29 728.642 1147.26 729.434C1146.23 730.214 1145.13 730.922 1143.95 731.558C1142.77 732.182 1141.6 732.722 1140.42 733.178C1140.37 733.106 1140.31 733.022 1140.24 732.926C1140.17 732.83 1140.1 732.734 1140.03 732.638C1139.95 732.53 1139.88 732.446 1139.81 732.386C1141 731.978 1142.17 731.48 1143.34 730.892C1144.5 730.304 1145.58 729.638 1146.58 728.894C1147.59 728.138 1148.43 727.328 1149.12 726.464ZM1149.4 729.542L1150.03 728.948C1150.74 729.224 1151.48 729.56 1152.25 729.956C1153.02 730.352 1153.74 730.76 1154.41 731.18C1155.09 731.588 1155.66 731.96 1156.1 732.296L1155.49 732.962C1155.06 732.614 1154.5 732.23 1153.81 731.81C1153.13 731.378 1152.4 730.964 1151.64 730.568C1150.88 730.16 1150.14 729.818 1149.4 729.542ZM1147.55 728.678L1148.43 727.814V727.832V734.204H1147.55V728.678Z" fill="#484950" fill-opacity="0.7"/>
<path d="M790.646 1203.35C790.842 1203.55 791.158 1203.55 791.354 1203.35L794.536 1200.17C794.731 1199.98 794.731 1199.66 794.536 1199.46C794.34 1199.27 794.024 1199.27 793.828 1199.46L791 1202.29L788.172 1199.46C787.976 1199.27 787.66 1199.27 787.464 1199.46C787.269 1199.66 787.269 1199.98 787.464 1200.17L790.646 1203.35ZM791 1128L790.5 1128L790.5 1203L791 1203L791.5 1203L791.5 1128L791 1128Z" fill="#C7C8CC"/>
<path d="M791 899L791 974" stroke="#C7C8CC"/>
</svg>
